<?xml version="1.0" encoding="UTF-8"?><svg id="Calque_2" xmlns="http://www.w3.org/2000/svg" viewBox="0 0 165.08 185.74"><defs><style>.cls-1{fill:#d9531a;}</style></defs><g id="OBJECTS"><path class="cls-1" d="M82.56,0l-14.43,28.01c-1.63,3.05-4.56,2.73-7.5,1.05l-10.45-5.65,7.79,43.06c1.65,7.87-3.62,7.87-6.2,4.48l-18.21-21.25-2.96,10.78c-.33,1.4-1.83,2.91-4.09,2.55L3.47,57.96l6.05,22.92c1.32,5.12,2.3,7.23-1.31,8.58L0,93.47l39.67,33.56c1.55,1.28,2.37,3.53,1.78,5.61l-3.46,11.88c13.64-1.63,25.91-3.13,39.53-4.78,1.21,0,3.24,1.08,3.23,2.53l-1.81,43.47h6.65l-1.06-43.37c0-1.42,1.84-2.62,3.02-2.62,13.67,1.64,25.91,3.14,39.56,4.78l-3.5-11.88c-.53-2.08,.27-4.33,1.81-5.61l39.66-33.56-8.21-4.02c-3.62-1.34-2.6-3.46-1.31-8.58l6.06-22.92-23.04,5.07c-2.26,.36-3.75-1.15-4.09-2.55l-2.95-10.78-18.23,21.25c-2.59,3.4-7.84,3.4-6.19-4.48l7.77-43.06-10.41,5.65c-2.95,1.68-5.89,2-7.5-1.05L82.56,0Z"/></g></svg>