<?xml version="1.0" encoding="UTF-8" standalone="no"?>
<!-- Created with Sodipodi ("http://www.sodipodi.com/") -->
<svg xmlns:inkscape="http://www.inkscape.org/namespaces/inkscape" xmlns:rdf="http://www.w3.org/1999/02/22-rdf-syntax-ns#" xmlns="http://www.w3.org/2000/svg" xmlns:sodipodi="http://sodipodi.sourceforge.net/DTD/sodipodi-0.dtd" xmlns:cc="http://creativecommons.org/ns#" xmlns:xlink="http://www.w3.org/1999/xlink" xmlns:dc="http://purl.org/dc/elements/1.1/" xmlns:svg="http://www.w3.org/2000/svg" id="svg548" sodipodi:docname="_svgclean2.svg" viewBox="0 0 992.13 496.06" sodipodi:version="0.32" version="1.1" inkscape:version="0.48.3.1 r9886" xmlns:ns1="http://sozi.baierouge.fr">
  <sodipodi:namedview id="base" inkscape:window-width="674" inkscape:window-x="0" inkscape:window-y="0" snaptogrid="true" inkscape:window-maximized="0" inkscape:zoom="1" showgrid="true" inkscape:current-layer="svg548" inkscape:cx="395.51405" inkscape:cy="-350.9445" inkscape:window-height="645">
    <inkscape:grid id="GridFromPre046Settings" opacity=".15" color="#3f3fff" originy="-157.00084mm" originx="0mm" empspacing="5" spacingy="2.5mm" spacingx="2.5mm" empopacity="0.38" type="xygrid" empcolor="#3f3fff"/>
  </sodipodi:namedview>
  <rect id="rect2248" style="fill-rule:evenodd;stroke-width:1pt;fill:#0038ac" height="212.6" width="469.49" y="44.291" x="265.75"/>
  <rect id="rect697" style="fill-rule:evenodd;stroke-width:1pt;fill:#ffffff" height="81.771" width="245.31" y="88.583" x="375.62"/>
  <path id="path696" inkscape:connector-curvature="0" sodipodi:nodetypes="ccccccccccccc" style="fill-rule:evenodd;fill:#dc200f;fill-opacity:.99608" d="m375.63 143.1h109.03v27.256h27.247v-27.256h109.03v-27.258h-109.04v-27.257h-27.24v27.257h-109.03v27.258z"/>
  <g id="g2249" transform="translate(0,1.5259e-5)">
    <path id="path552" style="fill-rule:evenodd;fill:#cdc5cd" d="m41.312 109.17c0.417 0 22.379-3.43 24.044-6.35 1.666-2.913 5.828-8.325 11.24-7.076s7.493 2.082 9.991 2.914c2.497 0.833 4.579 7.492 7.909 7.492s29.144-13.32 31.224-12.904c2.08 0.417 13.74 16.654 16.65 16.234s12.07-7.91 13.74-7.91c1.66 0 8.32 5.41 9.99 5.41 1.66 0 13.32-8.738 16.23-8.738 2.92 0 14.99 9.988 18.32 9.988s14.05 0.31 14.05 0.31l1.46 35.6-175.37-8.33 0.522-26.64z" sodipodi:nodetypes="ccccccccccccccc" inkscape:connector-curvature="0" transform="matrix(1.5385,0,0,1.5385,309.44,50.423)"/>
    <path id="path553" style="fill-rule:evenodd;fill:#fdfdfd;fill-opacity:.99608" d="m64.316 103.86c0.208 0.21 6.244-1.46 6.036 1.04s-3.747 2.08-3.747 3.54 6.245 5.62 6.245 7.08c0 1.45-4.788 1.87-6.453 3.12s-7.285 5-7.285 5l27.267 9.57s1.249-4.16 1.04-4.16c-0.208 0-18.94-4.17-18.524-6.87 0.416-2.71 7.077-1.46 7.493-5.62s-3.33-6.45-3.122-7.5c0.208-1.04 1.873-2.7 3.33-3.32 1.457-0.63 4.579 0.2 4.371-1.46-0.208-1.67-3.33-1.25-4.371-1.88-1.041-0.62-4.163-0.62-4.163-1.24 0-0.63 4.371-0.21 5.828-0.63 1.457-0.41 3.122-2.08 4.371-2.497 1.249-0.416-3.538-3.122-8.95-2.497-5.412 0.624-9.158 8.744-9.366 8.324z" sodipodi:nodetypes="ccccccccccccccccccc" inkscape:connector-curvature="0" transform="matrix(1.5385,0,0,1.5385,309.44,50.423)"/>
    <path id="path554" style="fill-rule:evenodd;fill:#fdfdfd;fill-opacity:.99608" d="m82.008 114.68 40.592-21.434c2.55-1.35 2.91 2.498 1.66 3.747s-3.33-0.417-4.16 1.04c-0.84 1.457 2.5 1.874 2.08 2.287-0.42 0.42-2.08 1.25-1.04 2.08 1.04 0.84 5.2-0.2 5.41 2.29 0.21 2.5-0.21 2.71-2.08 2.71s-8.12-5-8.95-4.37c-0.83 0.62 3.12 2.29 2.29 3.12s-5.83-0.62-6.87-0.41c-1.04 0.2 1.46 2.28 0.62 2.49-0.83 0.21-3.12-1.87-3.95-1.04s1.04 3.12-0.21 3.75c-1.25 0.62-3.75-2.08-6.45-2.08-2.707 0-4.789 1.66-4.997 3.74s9.787 1.67 9.787 2.92-5.42 3.33-8.122 2.91c-2.706-0.41-5.203-2.91-9.366-3.12s-4.163 0.21-4.163 1.66c0 1.46 4.371 2.92 3.955 4.79-0.416 1.88-0.625 3.12-2.498 2.92-1.873-0.21-4.579-2.71-4.787-6.25s0.208-2.08 1.249-3.75z" sodipodi:nodetypes="cscccccccccccccccccccccc" inkscape:connector-curvature="0" transform="matrix(1.5385,0,0,1.5385,309.44,50.423)"/>
    <path id="path555" style="fill-rule:evenodd;fill:#fdfdfd;fill-opacity:.99608" d="m131.96 99.907c-2.29 7.283 10.41 17.473 17.69 21.233 6.04 3.11 10.2 3.12 11.66 4.16s7.08 2.08 7.08 2.91c0 0.84-23.52-5.2-24.36-3.12-0.83 2.08 11.24 6.66 11.24 6.87s35.6 1.87 35.6 1.87 0.83-3.74 0.62-3.74-20.4-9.99-19.98-11.87c0.41-1.87 16.65 5.83 16.86 4.79s-6.25-8.95-10.2-9.57c-3.96-0.63-8.53-0.63-8.53-1.88s21.23-2.5 21.02-4.58-8.33-4.37-8.54-5.41c-0.2-1.04 8.12 2.92 7.7 1.87-0.41-1.04-2.7-4.782-7.28-4.99s-23.1 14.36-27.89 13.95c-4.79-0.42-9.16-4.58-9.16-4.58l-2.71 1.45s7.71 5.41 10.62 5.83 4.16-1.87 5.83-0.83c1.66 1.04 4.58 3.12 4.79 2.29 0.2-0.84-1.67-3.96 0.62-3.33 2.29 0.62 1.04 2.7 1.04 3.74s22.39 12.87 21.23 13.95c-1 0.95-5.41 1.66-6.45 1.46-1.04-0.21-9.78-6.25-16.44-9.16-6.66-2.92-7.91-1.52-13.33-4.16-5.24-2.36-14.98-11.45-14.77-12.49 0.2-1.04 0.41-1.67 0.41-1.67l-4.37-4.993z" sodipodi:nodetypes="csccccccccccccccccccccccsccsccc" inkscape:connector-curvature="0" transform="matrix(1.5385,0,0,1.5385,309.44,50.423)"/>
  </g>
  <g id="g2254" transform="translate(0,1.5259e-5)">
    <path id="path556" style="fill-rule:evenodd;fill:#006a20" d="m40.167 121.14c20.606-0.42 26.438 8.32 40.592 7.7 14.153-0.63 27.061-6.45 39.341-6.25 12.28 0.21 32.68 6.25 35.59 6.04s6.66 0 11.03 0.21 5.62 3.74 9.37 3.33c3.74-0.42 19.56-5.83 24.35-5.83s9.16 1.04 9.16 1.04v34.34l-169.54-5.93 0.107-34.65z" sodipodi:nodetypes="ccccccccccc" inkscape:connector-curvature="0" transform="matrix(1.5385,0,0,1.5385,309.44,50.423)"/>
    <path id="path557" style="fill-rule:evenodd;fill:#013918" d="m39.542 120.72c0.208 0 37.262 4.16 37.054 9.16-0.1 2.3-12.981-1.14-14.362 0.42-3.614 4.06 27.267 11.86 26.642 13.11-0.624 1.25-29.01-6.29-29.972-4.58-0.912 1.62 8.693 9.07 11.864 9.78 3.281 0.69-9.574 0.83-16.443 0.63-6.869-0.21-17.491-3.02-14.054-3.02l-0.729-25.5z" sodipodi:nodetypes="csssssscc" inkscape:connector-curvature="0" transform="matrix(1.5385,0,0,1.5385,309.44,50.423)"/>
    <path id="path558" style="fill-rule:evenodd;fill:#013918" d="m113.85 141.54c-1.14 1.14-32.675-8.75-32.675-11.04s3.33-2.08 11.24-3.95c7.905-1.87 25.395-4.79 31.015-4.58s14.78 2.71 14.57 3.75-5.83-0.63-8.33 0.62-3.12 3.54-4.99 4.79c-1.88 1.25-5.62-0.63-10.2 0.83s-7.91 3.33-7.91 4.79c0 1.45 8.22 3.85 7.28 4.79z" sodipodi:nodetypes="csssssssss" inkscape:connector-curvature="0" transform="matrix(1.5385,0,0,1.5385,309.44,50.423)"/>
    <path id="path559" style="fill-rule:evenodd;fill:#013918" d="m145.49 126.13c-3.21-0.53-3.54 3.54-8.33 4.79-4.78 1.25-20.6 2.08-20.6 4.37s6.45 4.79 5.62 6.25c-0.83 1.45-5 0.2-4.58 1.24s7.08 2.71 13.11 2.5c6.04-0.21 43.71-11.24 43.92-12.28s-3.54-4.37-7.08-4.79c-3.53-0.41-10.82 0-13.94-0.41-3.12-0.42-3.83-0.95-8.12-1.67z" sodipodi:nodetypes="cccccccccs" inkscape:connector-curvature="0" transform="matrix(1.5385,0,0,1.5385,309.44,50.423)"/>
    <path id="path560" style="fill-rule:evenodd;fill:#013918" d="m135.29 152.57c1.04-0.63 16.65-11.03 24.77-11.03s32.89 7.07 36.22-0.42-8.54-2.92-10.83-2.92 2.92-2.49 1.25-2.7c-1.66-0.21-13.53 4.79-14.78 4.37-1.24-0.42 6.25-7.7 12.08-9.78 5.82-2.08 11.86-4.79 16.65-4.17 4.79 0.63 13.74 0 13.74 0l-0.63 31.02s-40.17-2.08-41.63-2.29c-1.45-0.21-1.66-7.08-6.03-7.49-4.37-0.42-7.7 1.45-10.41 2.28-2.71 0.84-20.81 3.75-20.4 3.13z" sodipodi:nodetypes="cccccccccccccc" inkscape:connector-curvature="0" transform="matrix(1.5385,0,0,1.5385,309.44,50.423)"/>
  </g>
  <g id="g2260" transform="translate(0,1.5259e-5)">
    <path id="path561" style="fill-rule:evenodd;fill:#f6ee8b" d="m39.854 150.28s25.919 1.04 31.33 0.83c5.412-0.21 18.109-2.29 26.642-2.29 8.534 0 23.104 2.08 32.054 2.5 8.95 0.41 17.48-1.46 26.23-1.67 8.74-0.21 32.67 1.04 38.71 1.46s10.41 1.25 11.66-0.42c1.24-1.66 8.95-8.43 10.2-9.79 3.13-1.98 4.79 35.81 1.04 35.18 3.44 0-176.72 4.07-176.72 4.28-0.935-1.67-0.938-29.67-1.146-30.08z" sodipodi:nodetypes="ccccccccccc" inkscape:connector-curvature="0" transform="matrix(1.5385,0,0,1.5385,309.44,50.423)"/>
    <path id="path566" style="fill-rule:evenodd;fill:#83d5ee" d="m145.7 156.94c-0.37 3.31 2.29 1.04 4.79 1.25 2.49 0.2 6.03-0.84 8.11-0.42s3.13 1.04 5 1.04 3.54-0.83 3.12-1.66c-0.42-0.84-3.12-0.63-4.99-1.05-1.88-0.41-4.79-0.83-7.29-0.83s-8.69 1.23-8.74 1.67z" sodipodi:nodetypes="csssssss" inkscape:connector-curvature="0" transform="matrix(1.5385,0,0,1.5385,309.44,50.423)"/>
    <path id="path564" style="fill-rule:evenodd;fill:#83d5ee" d="m113.02 170.05c-0.8 2.39 18.52 2.71 18.73 2.91 0.21 0.21 2.92-2.91 5.83-2.7 2.92 0.21 9.16 1.46 11.45 1.46s3.54-0.84 3.33-2.09-5-2.91-8.74-4.16c-3.75-1.25-9.37-0.21-12.7 0s-9.99 0.42-12.7 1.46c-2.7 1.04-4.33 0.51-5.2 3.12z" sodipodi:nodetypes="cssssssss" inkscape:connector-curvature="0" transform="matrix(1.5385,0,0,1.5385,309.44,50.423)"/>
    <path id="path563" style="fill-rule:evenodd;fill:#83d5ee" d="m82.008 157.98c-0.132 3.7 12.072 2.7 15.818 2.7 3.744 0 14.984 0.63 16.654-1.66 1.66-2.29 2.08-2.92 0.83-3.75s-6.87 1.46-11.45 1.25c-4.576-0.21-10.613-0.62-13.735-0.42-3.122 0.21-8.041-0.25-8.117 1.88z" sodipodi:nodetypes="cssssss" inkscape:connector-curvature="0" transform="matrix(1.5385,0,0,1.5385,309.44,50.423)"/>
    <path id="path562" style="fill-rule:evenodd;fill:#83d5ee" d="m54.741 157.56c0.26 3.12 5.204 2.5 7.493 2.5 2.29 0 9.991-0.83 9.575-2.5-0.417-1.66-6.453-1.87-9.367-1.87s-7.857-0.01-7.701 1.87z" sodipodi:nodetypes="cssss" inkscape:connector-curvature="0" transform="matrix(1.5385,0,0,1.5385,309.44,50.423)"/>
    <path id="path568" inkscape:connector-curvature="0" style="stroke:#003817;stroke-width:1pt;fill:none" transform="matrix(1.5385,0,0,1.5385,309.44,50.423)" d="m56.406 167.34 0.208 1.67"/>
    <path id="path569" inkscape:connector-curvature="0" style="stroke:#003817;stroke-width:1pt;fill:none" transform="matrix(1.5385,0,0,1.5385,309.44,50.423)" d="m58.696 165.06-0.208 3.32"/>
    <path id="path570" inkscape:connector-curvature="0" style="stroke:#003817;stroke-width:1pt;fill:none" transform="matrix(1.5385,0,0,1.5385,309.44,50.423)" d="m61.818 164.01v0.21"/>
    <path id="path571" inkscape:connector-curvature="0" style="stroke:#003817;stroke-width:1pt;fill:none" transform="matrix(1.5385,0,0,1.5385,309.44,50.423)" d="m61.402 167.76 0.208-4.79"/>
    <path id="path572" inkscape:connector-curvature="0" style="stroke:#003817;stroke-width:1pt;fill:none" transform="matrix(1.5385,0,0,1.5385,309.44,50.423)" d="m63.691 163.18"/>
    <path id="path573" inkscape:connector-curvature="0" style="stroke:#003817;stroke-width:1pt;fill:none" transform="matrix(1.5385,0,0,1.5385,309.44,50.423)" d="m63.067 168.18 0.416-5.21"/>
    <path id="path575" inkscape:connector-curvature="0" style="stroke:#003817;stroke-width:1pt;fill:none" transform="matrix(1.5385,0,0,1.5385,309.44,50.423)" d="m64.732 164.22-0.416 4.79"/>
    <path id="path577" inkscape:connector-curvature="0" style="stroke:#003817;stroke-width:1pt;fill:none" transform="matrix(1.5385,0,0,1.5385,309.44,50.423)" d="m66.397 167.76v-4.16"/>
    <path id="path578" inkscape:connector-curvature="0" style="stroke:#003817;stroke-width:1pt;fill:none" transform="matrix(1.5385,0,0,1.5385,309.44,50.423)" d="m68.687 162.35v5.41"/>
    <path id="path579" inkscape:connector-curvature="0" style="stroke:#003817;stroke-width:1pt;fill:none" transform="matrix(1.5385,0,0,1.5385,309.44,50.423)" d="m70.56 162.97"/>
    <path id="path581" inkscape:connector-curvature="0" style="stroke:#003817;stroke-width:1pt;fill:none" transform="matrix(1.5385,0,0,1.5385,309.44,50.423)" d="m71.392 162.97-0.416 4.79"/>
    <path id="path582" inkscape:connector-curvature="0" style="stroke:#003817;stroke-width:1pt;fill:none" transform="matrix(1.5385,0,0,1.5385,309.44,50.423)" d="m73.058 162.35v5.62"/>
    <path id="path583" inkscape:connector-curvature="0" style="stroke:#003817;stroke-width:1pt;fill:none" transform="matrix(1.5385,0,0,1.5385,309.44,50.423)" d="m75.764 162.35-0.209 6.24"/>
    <path id="path584" inkscape:connector-curvature="0" style="stroke:#003817;stroke-width:1pt;fill:none" transform="matrix(1.5385,0,0,1.5385,309.44,50.423)" d="m77.637 164.43 0.208 4.58"/>
    <path id="path585" inkscape:connector-curvature="0" style="stroke:#003817;stroke-width:1pt;fill:none" transform="matrix(1.5385,0,0,1.5385,309.44,50.423)" d="m80.134 164.22"/>
    <path id="path586" inkscape:connector-curvature="0" style="stroke:#003817;stroke-width:1pt;fill:none" transform="matrix(1.5385,0,0,1.5385,309.44,50.423)" d="m79.926 168.59 0.208-4.16"/>
    <path id="path587" inkscape:connector-curvature="0" style="stroke:#003817;stroke-width:1pt;fill:none" transform="matrix(1.5385,0,0,1.5385,309.44,50.423)" d="m82.216 165.06"/>
    <path id="path590" inkscape:connector-curvature="0" style="stroke:#003817;stroke-width:1pt;fill:none" transform="matrix(1.5385,0,0,1.5385,309.44,50.423)" d="m82.424 168.8v-4.37"/>
    <path id="path591" inkscape:connector-curvature="0" style="stroke:#003817;stroke-width:1pt;fill:none" transform="matrix(1.5385,0,0,1.5385,309.44,50.423)" d="m84.714 166.51 0.416 2.71"/>
    <path id="path592" inkscape:connector-curvature="0" style="stroke:#003817;stroke-width:1pt;fill:none" transform="matrix(1.5385,0,0,1.5385,309.44,50.423)" d="m56.406 155.27v0.21"/>
    <path id="path593" inkscape:connector-curvature="0" style="stroke:#003817;stroke-width:1pt;fill:none" transform="matrix(1.5385,0,0,1.5385,309.44,50.423)" d="m56.614 157.77 0.209-3.33"/>
    <path id="path594" inkscape:connector-curvature="0" style="stroke:#003817;stroke-width:1pt;fill:none" transform="matrix(1.5385,0,0,1.5385,309.44,50.423)" d="m58.28 154.02v3.75"/>
    <path id="path595" inkscape:connector-curvature="0" style="stroke:#003817;stroke-width:1pt;fill:none" transform="matrix(1.5385,0,0,1.5385,309.44,50.423)" d="m60.361 153.61-0.416 4.37"/>
    <path id="path596" inkscape:connector-curvature="0" style="stroke:#003817;stroke-width:1pt;fill:none" transform="matrix(1.5385,0,0,1.5385,309.44,50.423)" d="m62.026 154.23-0.416 3.96"/>
    <path id="path597" inkscape:connector-curvature="0" style="stroke:#003817;stroke-width:1pt;fill:none" transform="matrix(1.5385,0,0,1.5385,309.44,50.423)" d="m64.108 154.02-0.417 3.75"/>
    <path id="path598" inkscape:connector-curvature="0" style="stroke:#003817;stroke-width:1pt;fill:none" transform="matrix(1.5385,0,0,1.5385,309.44,50.423)" d="m66.189 154.02-0.624 3.96"/>
    <path id="path599" inkscape:connector-curvature="0" style="stroke:#003817;stroke-width:1pt;fill:none" transform="matrix(1.5385,0,0,1.5385,309.44,50.423)" d="m68.895 154.02-1.041 3.33"/>
    <path id="path600" inkscape:connector-curvature="0" style="stroke:#003817;stroke-width:1pt;fill:none" transform="matrix(1.5385,0,0,1.5385,309.44,50.423)" d="m70.768 154.86"/>
    <path id="path601" inkscape:connector-curvature="0" style="stroke:#003817;stroke-width:1pt;fill:none" transform="matrix(1.5385,0,0,1.5385,309.44,50.423)" d="m69.936 157.56"/>
    <path id="path602" inkscape:connector-curvature="0" style="stroke:#003817;stroke-width:1pt;fill:none" transform="matrix(1.5385,0,0,1.5385,309.44,50.423)" d="m70.352 154.23-0.625 3.33"/>
    <path id="path604" inkscape:connector-curvature="0" style="stroke:#003817;stroke-width:1pt;fill:none" transform="matrix(1.5385,0,0,1.5385,309.44,50.423)" d="m82.84 154.65 0.208 3.95"/>
    <path id="path605" inkscape:connector-curvature="0" style="stroke:#003817;stroke-width:1pt;fill:none" transform="matrix(1.5385,0,0,1.5385,309.44,50.423)" d="m85.13 154.65-0.416 3.95"/>
    <path id="path606" inkscape:connector-curvature="0" style="stroke:#003817;stroke-width:1pt;fill:none" transform="matrix(1.5385,0,0,1.5385,309.44,50.423)" d="m87.003 154.44v4.16"/>
    <path id="path608" inkscape:connector-curvature="0" style="stroke:#003817;stroke-width:1pt;fill:none" transform="matrix(1.5385,0,0,1.5385,309.44,50.423)" d="m88.668 154.65-0.208 3.74"/>
    <path id="path609" inkscape:connector-curvature="0" style="stroke:#003817;stroke-width:1pt;fill:none" transform="matrix(1.5385,0,0,1.5385,309.44,50.423)" d="m89.917 155.06"/>
    <path id="path610" inkscape:connector-curvature="0" style="stroke:#003817;stroke-width:1pt;fill:none" transform="matrix(1.5385,0,0,1.5385,309.44,50.423)" d="m90.958 155.06-0.625 3.75"/>
    <path id="path611" inkscape:connector-curvature="0" style="stroke:#003817;stroke-width:1pt;fill:none" transform="matrix(1.5385,0,0,1.5385,309.44,50.423)" d="m93.039 155.06 0.833 4.79"/>
    <path id="path614" inkscape:connector-curvature="0" style="stroke:#003817;stroke-width:1pt;fill:none" transform="matrix(1.5385,0,0,1.5385,309.44,50.423)" d="m95.537 154.86v3.95"/>
    <path id="path615" inkscape:connector-curvature="0" style="stroke:#003817;stroke-width:1pt;fill:none" transform="matrix(1.5385,0,0,1.5385,309.44,50.423)" d="m98.243 155.69v4.37"/>
    <path id="path616" inkscape:connector-curvature="0" style="stroke:#003817;stroke-width:1pt;fill:none" transform="matrix(1.5385,0,0,1.5385,309.44,50.423)" d="m100.74 155.9-0.42 3.95"/>
    <path id="path620" inkscape:connector-curvature="0" style="stroke:#003817;stroke-width:1pt;fill:none" transform="matrix(1.5385,0,0,1.5385,309.44,50.423)" d="m103.45 154.23-0.63 6.04"/>
    <path id="path623" inkscape:connector-curvature="0" style="stroke:#003817;stroke-width:1pt;fill:none" transform="matrix(1.5385,0,0,1.5385,309.44,50.423)" d="m105.94 155.06-0.41 5.42"/>
    <path id="path624" inkscape:connector-curvature="0" style="stroke:#003817;stroke-width:1pt;fill:none" transform="matrix(1.5385,0,0,1.5385,309.44,50.423)" d="m107.82 154.65-0.21 5.62"/>
    <path id="path629" inkscape:connector-curvature="0" style="stroke:#003817;stroke-width:1pt;fill:none" transform="matrix(1.5385,0,0,1.5385,309.44,50.423)" d="m109.9 155.06-0.42 4.17"/>
    <path id="path630" inkscape:connector-curvature="0" style="stroke:#003817;stroke-width:1pt;fill:none" transform="matrix(1.5385,0,0,1.5385,309.44,50.423)" d="m111.77 154.23-0.41 4.16"/>
    <path id="path631" inkscape:connector-curvature="0" style="stroke:#003817;stroke-width:1pt;fill:none" transform="matrix(1.5385,0,0,1.5385,309.44,50.423)" d="m114.89 166.51 0.42 3.96"/>
    <path id="path632" inkscape:connector-curvature="0" style="stroke:#003817;stroke-width:1pt;fill:none" transform="matrix(1.5385,0,0,1.5385,309.44,50.423)" d="m118.02 165.26v5.21"/>
    <path id="path633" inkscape:connector-curvature="0" style="stroke:#003817;stroke-width:1pt;fill:none" transform="matrix(1.5385,0,0,1.5385,309.44,50.423)" d="m121.35 165.06-0.21 5.41"/>
    <path id="path634" inkscape:connector-curvature="0" style="stroke:#003817;stroke-width:1pt;fill:none" transform="matrix(1.5385,0,0,1.5385,309.44,50.423)" d="m124.05 164.43-0.41 6.04"/>
    <path id="path635" inkscape:connector-curvature="0" style="stroke:#003817;stroke-width:1pt;fill:none" transform="matrix(1.5385,0,0,1.5385,309.44,50.423)" d="m126.97 164.85-0.63 4.37"/>
    <path id="path636" inkscape:connector-curvature="0" style="stroke:#003817;stroke-width:1pt;fill:none" transform="matrix(1.5385,0,0,1.5385,309.44,50.423)" d="m129.88 164.22v0.21"/>
    <path id="path637" inkscape:connector-curvature="0" style="stroke:#003817;stroke-width:1pt;fill:none" transform="matrix(1.5385,0,0,1.5385,309.44,50.423)" d="m129.05 169.43 0.62-5.21"/>
    <path id="path639" inkscape:connector-curvature="0" style="stroke:#003817;stroke-width:1pt;fill:none" transform="matrix(1.5385,0,0,1.5385,309.44,50.423)" d="m131.54 164.01 0.21 4.58"/>
    <path id="path640" inkscape:connector-curvature="0" style="stroke:#003817;stroke-width:1pt;fill:none" transform="matrix(1.5385,0,0,1.5385,309.44,50.423)" d="m133.84 164.01v4.37"/>
    <path id="path641" inkscape:connector-curvature="0" style="stroke:#003817;stroke-width:1pt;fill:none" transform="matrix(1.5385,0,0,1.5385,309.44,50.423)" d="m135.92 164.01 0.41 3.54"/>
    <path id="path642" inkscape:connector-curvature="0" style="stroke:#003817;stroke-width:1pt;fill:none" transform="matrix(1.5385,0,0,1.5385,309.44,50.423)" d="m138.21 164.22 0.2 3.54"/>
    <path id="path645" inkscape:connector-curvature="0" style="stroke:#003817;stroke-width:1pt;fill:none" transform="matrix(1.5385,0,0,1.5385,309.44,50.423)" d="m141.33 164.22v3.33"/>
    <path id="path646" inkscape:connector-curvature="0" style="stroke:#003817;stroke-width:1pt;fill:none" transform="matrix(1.5385,0,0,1.5385,309.44,50.423)" d="m145.28 165.47v2.5"/>
    <path id="path649" inkscape:connector-curvature="0" style="stroke:#003817;stroke-width:1pt;fill:none" transform="matrix(1.5385,0,0,1.5385,309.44,50.423)" d="m147.57 165.68v3.12"/>
    <path id="path650" inkscape:connector-curvature="0" style="stroke:#003817;stroke-width:1pt;fill:none" transform="matrix(1.5385,0,0,1.5385,309.44,50.423)" d="m150.28 166.1-0.21 3.33"/>
    <path id="path651" inkscape:connector-curvature="0" style="stroke:#003817;stroke-width:1pt;fill:none" transform="matrix(1.5385,0,0,1.5385,309.44,50.423)" d="m146.53 154.23v3.54"/>
    <path id="path652" inkscape:connector-curvature="0" style="stroke:#003817;stroke-width:1pt;fill:none" transform="matrix(1.5385,0,0,1.5385,309.44,50.423)" d="m148.61 154.86v2.29"/>
    <path id="path653" inkscape:connector-curvature="0" style="stroke:#003817;stroke-width:1pt;fill:none" transform="matrix(1.5385,0,0,1.5385,309.44,50.423)" d="m150.69 154.23v3.12"/>
    <path id="path654" inkscape:connector-curvature="0" style="stroke:#003817;stroke-width:1pt;fill:none" transform="matrix(1.5385,0,0,1.5385,309.44,50.423)" d="m152.78 154.02-0.21 2.71"/>
    <path id="path655" inkscape:connector-curvature="0" style="stroke:#003817;stroke-width:1pt;fill:none" transform="matrix(1.5385,0,0,1.5385,309.44,50.423)" d="m154.65 154.02-0.42 2.29"/>
    <path id="path656" inkscape:connector-curvature="0" style="stroke:#003817;stroke-width:1pt;fill:none" transform="matrix(1.5385,0,0,1.5385,309.44,50.423)" d="m156.73 154.02-0.21 2.29"/>
    <path id="path659" inkscape:connector-curvature="0" style="stroke:#003817;stroke-width:1pt;fill:none" transform="matrix(1.5385,0,0,1.5385,309.44,50.423)" d="m158.81 154.44-0.21 2.29"/>
    <path id="path660" inkscape:connector-curvature="0" style="stroke:#003817;stroke-width:1pt;fill:none" transform="matrix(1.5385,0,0,1.5385,309.44,50.423)" d="m161.1 155.06v2.09"/>
    <path id="path661" inkscape:connector-curvature="0" style="stroke:#003817;stroke-width:1pt;fill:none" transform="matrix(1.5385,0,0,1.5385,309.44,50.423)" d="m163.39 155.27 0.21 1.88"/>
    <path id="path662" inkscape:connector-curvature="0" style="stroke:#e65900;stroke-width:1pt;fill:none" transform="matrix(1.5385,0,0,1.5385,309.44,50.423)" d="m156.01 168.85v2.21"/>
    <path id="path663" inkscape:connector-curvature="0" style="stroke:#003817;stroke-width:1pt;fill:none" transform="matrix(1.5385,0,0,1.5385,309.44,50.423)" d="m158.66 167.67-0.3 3.09"/>
    <path id="path664" inkscape:connector-curvature="0" style="stroke:#003817;stroke-width:1pt;fill:none" transform="matrix(1.5385,0,0,1.5385,309.44,50.423)" d="m160.13 167.38-0.44 2.8"/>
    <path id="path665" inkscape:connector-curvature="0" style="stroke:#003817;stroke-width:1pt;fill:none" transform="matrix(1.5385,0,0,1.5385,309.44,50.423)" d="m161.9 167.82 0.14 2.8"/>
    <path id="path666" inkscape:connector-curvature="0" style="stroke:#003817;stroke-width:1pt;fill:none" transform="matrix(1.5385,0,0,1.5385,309.44,50.423)" d="m164.84 166.35-0.44 5"/>
    <path id="path667" inkscape:connector-curvature="0" style="stroke:#003817;stroke-width:1pt;fill:none" transform="matrix(1.5385,0,0,1.5385,309.44,50.423)" d="m166.9 166.5-0.44 3.97"/>
    <path id="path668" inkscape:connector-curvature="0" style="stroke:#003817;stroke-width:1pt;fill:none" transform="matrix(1.5385,0,0,1.5385,309.44,50.423)" d="m168.81 166.2-0.29 3.83"/>
    <path id="path669" inkscape:connector-curvature="0" style="stroke:#003817;stroke-width:1pt;fill:none" transform="matrix(1.5385,0,0,1.5385,309.44,50.423)" d="m170.73 167.08-0.3 3.24"/>
    <path id="path671" inkscape:connector-curvature="0" style="stroke:#003817;stroke-width:1pt;fill:none" transform="matrix(1.5385,0,0,1.5385,309.44,50.423)" d="m172.94 166.94-0.45 2.94"/>
    <path id="path672" inkscape:connector-curvature="0" style="stroke:#003817;stroke-width:1pt;fill:none" transform="matrix(1.5385,0,0,1.5385,309.44,50.423)" d="m174.85 167.08-0.15 2.36"/>
    <path id="path673" inkscape:connector-curvature="0" style="stroke:#003817;stroke-width:1pt;fill:none" transform="matrix(1.5385,0,0,1.5385,309.44,50.423)" d="m177.35 165.91 0.15 4.12"/>
    <path id="path674" inkscape:connector-curvature="0" style="stroke:#003817;stroke-width:1pt;fill:none" transform="matrix(1.5385,0,0,1.5385,309.44,50.423)" d="m180.15 167.23 0.14 3.09"/>
    <path id="path675" inkscape:connector-curvature="0" style="stroke:#003817;stroke-width:1pt;fill:none" transform="matrix(1.5385,0,0,1.5385,309.44,50.423)" d="m182.8 167.67 0.58 2.65"/>
    <path id="path676" inkscape:connector-curvature="0" style="stroke:#003817;stroke-width:1pt;fill:none" transform="matrix(1.5385,0,0,1.5385,309.44,50.423)" d="m185.3 167.08 0.14 3.24"/>
    <path id="path677" inkscape:connector-curvature="0" style="stroke:#003817;stroke-width:1pt;fill:none" transform="matrix(1.5385,0,0,1.5385,309.44,50.423)" d="m187.8 166.2v4.42"/>
    <path id="path678" inkscape:connector-curvature="0" style="stroke:#003817;stroke-width:1pt;fill:none" transform="matrix(1.5385,0,0,1.5385,309.44,50.423)" d="m189.86 167.53v2.2"/>
    <path id="path679" inkscape:connector-curvature="0" style="stroke:#003817;stroke-width:1pt;fill:none" transform="matrix(1.5385,0,0,1.5385,309.44,50.423)" d="m192.36 167.23 0.3 3.53"/>
    <path id="path680" inkscape:connector-curvature="0" style="stroke:#003817;stroke-width:1pt;fill:none" transform="matrix(1.5385,0,0,1.5385,309.44,50.423)" d="m194.13 166.5 0.59 3.53"/>
    <path id="path681" inkscape:connector-curvature="0" style="stroke:#003817;stroke-width:1pt;fill:none" transform="matrix(1.5385,0,0,1.5385,309.44,50.423)" d="m176.02 160.61-0.14 1.91"/>
    <path id="path682" inkscape:connector-curvature="0" style="stroke:#003817;stroke-width:1pt;fill:none" transform="matrix(1.5385,0,0,1.5385,309.44,50.423)" d="m179.41 159.73-0.88 3.23"/>
    <path id="path683" inkscape:connector-curvature="0" style="stroke:#003817;stroke-width:1pt;fill:none" transform="matrix(1.5385,0,0,1.5385,309.44,50.423)" d="m181.32 159.43-0.44 3.97"/>
    <path id="path686" inkscape:connector-curvature="0" style="stroke:#003817;stroke-width:1pt;fill:none" transform="matrix(1.5385,0,0,1.5385,309.44,50.423)" d="m183.68 159.14-0.15 4.12"/>
    <path id="path687" inkscape:connector-curvature="0" style="stroke:#003817;stroke-width:1pt;fill:none" transform="matrix(1.5385,0,0,1.5385,309.44,50.423)" d="m186.62 158.84-0.44 3.39"/>
    <path id="path688" inkscape:connector-curvature="0" style="stroke:#003817;stroke-width:1pt;fill:none" transform="matrix(1.5385,0,0,1.5385,309.44,50.423)" d="m188.83 157.22-0.74 4.42"/>
    <path id="path689" inkscape:connector-curvature="0" style="stroke:#003817;stroke-width:1pt;fill:none" transform="matrix(1.5385,0,0,1.5385,309.44,50.423)" d="m191.18 157.37-0.44 4.27"/>
    <path id="path690" inkscape:connector-curvature="0" style="stroke:#003817;stroke-width:1pt;fill:none" transform="matrix(1.5385,0,0,1.5385,309.44,50.423)" d="m193.98 156.93-0.74 4.86"/>
    <path id="path691" inkscape:connector-curvature="0" style="stroke:#003817;stroke-width:1pt;fill:none" transform="matrix(1.5385,0,0,1.5385,309.44,50.423)" d="m196.92 156.78-0.73 3.83"/>
    <path id="path692" inkscape:connector-curvature="0" style="stroke:#003817;stroke-width:1pt;fill:none" transform="matrix(1.5385,0,0,1.5385,309.44,50.423)" d="m199.13 155.75-0.59 3.83"/>
    <path id="path693" inkscape:connector-curvature="0" style="stroke:#003817;stroke-width:1pt;fill:none" transform="matrix(1.5385,0,0,1.5385,309.44,50.423)" d="m202.22 154.43-0.59 4.85"/>
    <path id="path694" inkscape:connector-curvature="0" style="stroke:#003817;stroke-width:1pt;fill:none" transform="matrix(1.5385,0,0,1.5385,309.44,50.423)" d="m205.02 156.34-0.59 2.94"/>
  </g>
  <g id="g2607" transform="translate(0,1.5259e-5)">
    <path id="path695" style="fill-rule:evenodd;fill:#fedd00" inkscape:connector-curvature="0" d="m361.48 315.4c3.17 0.91 46.65-0.9 56.16-1.36 9.51-0.45 22.64-0.9 31.24-0.9 8.61 0 51.18 2.72 60.23 2.26 9.06-0.45 22.2-2.26 29.44-1.81 7.25 0.45 28.53 2.27 32.61 2.72 4.07 0.45 18.11-1.81 26.26-1.36s16.76-1.36 20.38-1.81c3.63-0.45 9.06 0.45 18.12 1.36 9.06 0.9 15.4 2.26 15.4 2.26v117.29s-290.29-7.7-289.84-8.15 0.91-109.59 0-110.5z"/>
    <g id="g851" style="stroke:#e65900" transform="matrix(1.1051 .087907 -.062567 .78654 379.24 205.9)">
      <path id="path698" style="fill-rule:evenodd;stroke:#e65900;stroke-width:1pt;fill:#feb400" d="m336.61 95.669v106.3" sodipodi:nodetypes="cc" inkscape:connector-curvature="0" transform="translate(-206.83,48.172)"/>
      <g id="g842" style="stroke:#e65900;fill:#feb400" transform="matrix(.27083 0 0 .88636 38.231 -16.418)">
        <path id="path843" sodipodi:rx="1.4363101" sodipodi:ry="7.4577708" style="fill-rule:evenodd;stroke:#e65900;stroke-width:.41628;fill:#feb400" sodipodi:type="arc" d="m308.59 161.35c0 4.1188-0.64305 7.4578-1.4363 7.4578s-1.4363-3.339-1.4363-7.4578 0.64306-7.4578 1.4363-7.4578c0.79326 0 1.4363 3.339 1.4363 7.4578z" transform="matrix(1.3532 -1.1398 .82079 .97446 -217.93 371.38)" sodipodi:cy="161.35086" sodipodi:cx="307.15002"/>
        <path id="path844" sodipodi:rx="1.4363101" sodipodi:ry="7.4577708" style="fill-rule:evenodd;stroke:#e65900;stroke-width:.41628;fill:#feb400" sodipodi:type="arc" d="m308.59 161.35c0 4.1188-0.64305 7.4578-1.4363 7.4578s-1.4363-3.339-1.4363-7.4578 0.64306-7.4578 1.4363-7.4578c0.79326 0 1.4363 3.339 1.4363 7.4578z" transform="matrix(1.2875 1.2135 -.87386 .92716 88.16 -343.68)" sodipodi:cy="161.35086" sodipodi:cx="307.15002"/>
        <path id="path845" sodipodi:rx="1.4363101" sodipodi:ry="7.4577708" style="fill-rule:evenodd;stroke:#e65900;stroke-width:.41628;fill:#feb400" sodipodi:type="arc" d="m308.59 161.35c0 4.1188-0.64305 7.4578-1.4363 7.4578s-1.4363-3.339-1.4363-7.4578 0.64306-7.4578 1.4363-7.4578c0.79326 0 1.4363 3.339 1.4363 7.4578z" transform="matrix(1.7363 .33986 -.24474 1.2503 -155.39 -130.14)" sodipodi:cy="161.35086" sodipodi:cx="307.15002"/>
        <path id="path846" sodipodi:rx="1.4363101" sodipodi:ry="7.4577708" style="fill-rule:evenodd;stroke:#e65900;stroke-width:.41628;fill:#feb400" sodipodi:type="arc" d="m308.59 161.35c0 4.1188-0.64305 7.4578-1.4363 7.4578s-1.4363-3.339-1.4363-7.4578 0.64306-7.4578 1.4363-7.4578c0.79326 0 1.4363 3.339 1.4363 7.4578z" transform="matrix(1.7453 -.29012 .20892 1.2568 -235.11 62.751)" sodipodi:cy="161.35086" sodipodi:cx="307.15002"/>
        <path id="path847" sodipodi:rx="1.4363101" sodipodi:ry="7.4577708" style="fill-rule:evenodd;stroke:#e65900;stroke-width:.41628;fill:#feb400" sodipodi:type="arc" d="m308.59 161.35c0 4.1188-0.64305 7.4578-1.4363 7.4578s-1.4363-3.339-1.4363-7.4578 0.64306-7.4578 1.4363-7.4578c0.79326 0 1.4363 3.339 1.4363 7.4578z" transform="matrix(1.3532 -1.1398 .82079 .97446 -218.37 377.02)" sodipodi:cy="161.35086" sodipodi:cx="307.15002"/>
        <path id="path848" sodipodi:rx="1.4363101" sodipodi:ry="7.4577708" style="fill-rule:evenodd;stroke:#e65900;stroke-width:.41628;fill:#feb400" sodipodi:type="arc" d="m308.59 161.35c0 4.1188-0.64305 7.4578-1.4363 7.4578s-1.4363-3.339-1.4363-7.4578 0.64306-7.4578 1.4363-7.4578c0.79326 0 1.4363 3.339 1.4363 7.4578z" transform="matrix(1.6867 -.53411 .38463 1.2146 -246.46 150.91)" sodipodi:cy="161.35086" sodipodi:cx="307.15002"/>
        <path id="path849" sodipodi:rx="1.4363101" sodipodi:ry="7.4577708" style="fill-rule:evenodd;stroke:#e65900;stroke-width:.41628;fill:#feb400" sodipodi:type="arc" d="m308.59 161.35c0 4.1188-0.64305 7.4578-1.4363 7.4578s-1.4363-3.339-1.4363-7.4578 0.64306-7.4578 1.4363-7.4578c0.79326 0 1.4363 3.339 1.4363 7.4578z" transform="matrix(1.6673 .59172 -.42611 1.2007 -104.07 -192.75)" sodipodi:cy="161.35086" sodipodi:cx="307.15002"/>
        <path id="path850" sodipodi:rx="1.4363101" sodipodi:ry="7.4577708" style="fill-rule:evenodd;stroke:#e65900;stroke-width:.41628;fill:#feb400" sodipodi:type="arc" d="m308.59 161.35c0 4.1188-0.64305 7.4578-1.4363 7.4578s-1.4363-3.339-1.4363-7.4578 0.64306-7.4578 1.4363-7.4578c0.79326 0 1.4363 3.339 1.4363 7.4578z" transform="matrix(1.2254 1.2762 -.919 .88245 114.74 -349.3)" sodipodi:cy="161.35086" sodipodi:cx="307.15002"/>
      </g>
      <g id="g833" style="stroke:#e65900;fill:#feb400" transform="matrix(.30996 0 0 .93007 25.084 -12.873)">
        <path id="path834" sodipodi:rx="1.4363101" sodipodi:ry="7.4577708" style="fill-rule:evenodd;stroke:#e65900;stroke-width:.41628;fill:#feb400" sodipodi:type="arc" d="m308.59 161.35c0 4.1188-0.64305 7.4578-1.4363 7.4578s-1.4363-3.339-1.4363-7.4578 0.64306-7.4578 1.4363-7.4578c0.79326 0 1.4363 3.339 1.4363 7.4578z" transform="matrix(1.3532 -1.1398 .82079 .97446 -217.93 371.38)" sodipodi:cy="161.35086" sodipodi:cx="307.15002"/>
        <path id="path835" sodipodi:rx="1.4363101" sodipodi:ry="7.4577708" style="fill-rule:evenodd;stroke:#e65900;stroke-width:.41628;fill:#feb400" sodipodi:type="arc" d="m308.59 161.35c0 4.1188-0.64305 7.4578-1.4363 7.4578s-1.4363-3.339-1.4363-7.4578 0.64306-7.4578 1.4363-7.4578c0.79326 0 1.4363 3.339 1.4363 7.4578z" transform="matrix(1.2875 1.2135 -.87386 .92716 88.16 -343.68)" sodipodi:cy="161.35086" sodipodi:cx="307.15002"/>
        <path id="path836" sodipodi:rx="1.4363101" sodipodi:ry="7.4577708" style="fill-rule:evenodd;stroke:#e65900;stroke-width:.41628;fill:#feb400" sodipodi:type="arc" d="m308.59 161.35c0 4.1188-0.64305 7.4578-1.4363 7.4578s-1.4363-3.339-1.4363-7.4578 0.64306-7.4578 1.4363-7.4578c0.79326 0 1.4363 3.339 1.4363 7.4578z" transform="matrix(1.7363 .33986 -.24474 1.2503 -155.39 -130.14)" sodipodi:cy="161.35086" sodipodi:cx="307.15002"/>
        <path id="path837" sodipodi:rx="1.4363101" sodipodi:ry="7.4577708" style="fill-rule:evenodd;stroke:#e65900;stroke-width:.41628;fill:#feb400" sodipodi:type="arc" d="m308.59 161.35c0 4.1188-0.64305 7.4578-1.4363 7.4578s-1.4363-3.339-1.4363-7.4578 0.64306-7.4578 1.4363-7.4578c0.79326 0 1.4363 3.339 1.4363 7.4578z" transform="matrix(1.7453 -.29012 .20892 1.2568 -235.11 62.751)" sodipodi:cy="161.35086" sodipodi:cx="307.15002"/>
        <path id="path838" sodipodi:rx="1.4363101" sodipodi:ry="7.4577708" style="fill-rule:evenodd;stroke:#e65900;stroke-width:.41628;fill:#feb400" sodipodi:type="arc" d="m308.59 161.35c0 4.1188-0.64305 7.4578-1.4363 7.4578s-1.4363-3.339-1.4363-7.4578 0.64306-7.4578 1.4363-7.4578c0.79326 0 1.4363 3.339 1.4363 7.4578z" transform="matrix(1.3532 -1.1398 .82079 .97446 -218.37 377.02)" sodipodi:cy="161.35086" sodipodi:cx="307.15002"/>
        <path id="path839" sodipodi:rx="1.4363101" sodipodi:ry="7.4577708" style="fill-rule:evenodd;stroke:#e65900;stroke-width:.41628;fill:#feb400" sodipodi:type="arc" d="m308.59 161.35c0 4.1188-0.64305 7.4578-1.4363 7.4578s-1.4363-3.339-1.4363-7.4578 0.64306-7.4578 1.4363-7.4578c0.79326 0 1.4363 3.339 1.4363 7.4578z" transform="matrix(1.6867 -.53411 .38463 1.2146 -246.46 150.91)" sodipodi:cy="161.35086" sodipodi:cx="307.15002"/>
        <path id="path840" sodipodi:rx="1.4363101" sodipodi:ry="7.4577708" style="fill-rule:evenodd;stroke:#e65900;stroke-width:.41628;fill:#feb400" sodipodi:type="arc" d="m308.59 161.35c0 4.1188-0.64305 7.4578-1.4363 7.4578s-1.4363-3.339-1.4363-7.4578 0.64306-7.4578 1.4363-7.4578c0.79326 0 1.4363 3.339 1.4363 7.4578z" transform="matrix(1.6673 .59172 -.42611 1.2007 -104.07 -192.75)" sodipodi:cy="161.35086" sodipodi:cx="307.15002"/>
        <path id="path841" sodipodi:rx="1.4363101" sodipodi:ry="7.4577708" style="fill-rule:evenodd;stroke:#e65900;stroke-width:.41628;fill:#feb400" sodipodi:type="arc" d="m308.59 161.35c0 4.1188-0.64305 7.4578-1.4363 7.4578s-1.4363-3.339-1.4363-7.4578 0.64306-7.4578 1.4363-7.4578c0.79326 0 1.4363 3.339 1.4363 7.4578z" transform="matrix(1.2254 1.2762 -.919 .88245 114.74 -349.3)" sodipodi:cy="161.35086" sodipodi:cx="307.15002"/>
      </g>
      <g id="g761" style="stroke:#e65900;fill:#feb400" transform="matrix(.38311 0 0 1 .53098 -13.258)">
        <path id="path762" sodipodi:rx="1.4363101" sodipodi:ry="7.4577708" style="fill-rule:evenodd;stroke:#e65900;stroke-width:.41628;fill:#feb400" sodipodi:type="arc" d="m308.59 161.35c0 4.1188-0.64305 7.4578-1.4363 7.4578s-1.4363-3.339-1.4363-7.4578 0.64306-7.4578 1.4363-7.4578c0.79326 0 1.4363 3.339 1.4363 7.4578z" transform="matrix(1.3532 -1.1398 .82079 .97446 -217.93 371.38)" sodipodi:cy="161.35086" sodipodi:cx="307.15002"/>
        <path id="path763" sodipodi:rx="1.4363101" sodipodi:ry="7.4577708" style="fill-rule:evenodd;stroke:#e65900;stroke-width:.41628;fill:#feb400" sodipodi:type="arc" d="m308.59 161.35c0 4.1188-0.64305 7.4578-1.4363 7.4578s-1.4363-3.339-1.4363-7.4578 0.64306-7.4578 1.4363-7.4578c0.79326 0 1.4363 3.339 1.4363 7.4578z" transform="matrix(1.2875 1.2135 -.87386 .92716 88.16 -343.68)" sodipodi:cy="161.35086" sodipodi:cx="307.15002"/>
        <path id="path764" sodipodi:rx="1.4363101" sodipodi:ry="7.4577708" style="fill-rule:evenodd;stroke:#e65900;stroke-width:.41628;fill:#feb400" sodipodi:type="arc" d="m308.59 161.35c0 4.1188-0.64305 7.4578-1.4363 7.4578s-1.4363-3.339-1.4363-7.4578 0.64306-7.4578 1.4363-7.4578c0.79326 0 1.4363 3.339 1.4363 7.4578z" transform="matrix(1.7363 .33986 -.24474 1.2503 -155.39 -130.14)" sodipodi:cy="161.35086" sodipodi:cx="307.15002"/>
        <path id="path765" sodipodi:rx="1.4363101" sodipodi:ry="7.4577708" style="fill-rule:evenodd;stroke:#e65900;stroke-width:.41628;fill:#feb400" sodipodi:type="arc" d="m308.59 161.35c0 4.1188-0.64305 7.4578-1.4363 7.4578s-1.4363-3.339-1.4363-7.4578 0.64306-7.4578 1.4363-7.4578c0.79326 0 1.4363 3.339 1.4363 7.4578z" transform="matrix(1.7453 -.29012 .20892 1.2568 -235.11 62.751)" sodipodi:cy="161.35086" sodipodi:cx="307.15002"/>
        <path id="path766" sodipodi:rx="1.4363101" sodipodi:ry="7.4577708" style="fill-rule:evenodd;stroke:#e65900;stroke-width:.41628;fill:#feb400" sodipodi:type="arc" d="m308.59 161.35c0 4.1188-0.64305 7.4578-1.4363 7.4578s-1.4363-3.339-1.4363-7.4578 0.64306-7.4578 1.4363-7.4578c0.79326 0 1.4363 3.339 1.4363 7.4578z" transform="matrix(1.3532 -1.1398 .82079 .97446 -218.37 377.02)" sodipodi:cy="161.35086" sodipodi:cx="307.15002"/>
        <path id="path767" sodipodi:rx="1.4363101" sodipodi:ry="7.4577708" style="fill-rule:evenodd;stroke:#e65900;stroke-width:.41628;fill:#feb400" sodipodi:type="arc" d="m308.59 161.35c0 4.1188-0.64305 7.4578-1.4363 7.4578s-1.4363-3.339-1.4363-7.4578 0.64306-7.4578 1.4363-7.4578c0.79326 0 1.4363 3.339 1.4363 7.4578z" transform="matrix(1.6867 -.53411 .38463 1.2146 -246.46 150.91)" sodipodi:cy="161.35086" sodipodi:cx="307.15002"/>
        <path id="path768" sodipodi:rx="1.4363101" sodipodi:ry="7.4577708" style="fill-rule:evenodd;stroke:#e65900;stroke-width:.41628;fill:#feb400" sodipodi:type="arc" d="m308.59 161.35c0 4.1188-0.64305 7.4578-1.4363 7.4578s-1.4363-3.339-1.4363-7.4578 0.64306-7.4578 1.4363-7.4578c0.79326 0 1.4363 3.339 1.4363 7.4578z" transform="matrix(1.6673 .59172 -.42611 1.2007 -104.07 -192.75)" sodipodi:cy="161.35086" sodipodi:cx="307.15002"/>
        <path id="path769" sodipodi:rx="1.4363101" sodipodi:ry="7.4577708" style="fill-rule:evenodd;stroke:#e65900;stroke-width:.41628;fill:#feb400" sodipodi:type="arc" d="m308.59 161.35c0 4.1188-0.64305 7.4578-1.4363 7.4578s-1.4363-3.339-1.4363-7.4578 0.64306-7.4578 1.4363-7.4578c0.79326 0 1.4363 3.339 1.4363 7.4578z" transform="matrix(1.2254 1.2762 -.919 .88245 114.74 -349.3)" sodipodi:cy="161.35086" sodipodi:cx="307.15002"/>
      </g>
      <g id="g770" style="stroke:#e65900;fill:#feb400" transform="matrix(.41032 0 0 1 -8.5398 -.33107)">
        <path id="path771" sodipodi:rx="1.4363101" sodipodi:ry="7.4577708" style="fill-rule:evenodd;stroke:#e65900;stroke-width:.41628;fill:#feb400" sodipodi:type="arc" d="m308.59 161.35c0 4.1188-0.64305 7.4578-1.4363 7.4578s-1.4363-3.339-1.4363-7.4578 0.64306-7.4578 1.4363-7.4578c0.79326 0 1.4363 3.339 1.4363 7.4578z" transform="matrix(1.3532 -1.1398 .82079 .97446 -217.93 371.38)" sodipodi:cy="161.35086" sodipodi:cx="307.15002"/>
        <path id="path772" sodipodi:rx="1.4363101" sodipodi:ry="7.4577708" style="fill-rule:evenodd;stroke:#e65900;stroke-width:.41628;fill:#feb400" sodipodi:type="arc" d="m308.59 161.35c0 4.1188-0.64305 7.4578-1.4363 7.4578s-1.4363-3.339-1.4363-7.4578 0.64306-7.4578 1.4363-7.4578c0.79326 0 1.4363 3.339 1.4363 7.4578z" transform="matrix(1.2875 1.2135 -.87386 .92716 88.16 -343.68)" sodipodi:cy="161.35086" sodipodi:cx="307.15002"/>
        <path id="path773" sodipodi:rx="1.4363101" sodipodi:ry="7.4577708" style="fill-rule:evenodd;stroke:#e65900;stroke-width:.41628;fill:#feb400" sodipodi:type="arc" d="m308.59 161.35c0 4.1188-0.64305 7.4578-1.4363 7.4578s-1.4363-3.339-1.4363-7.4578 0.64306-7.4578 1.4363-7.4578c0.79326 0 1.4363 3.339 1.4363 7.4578z" transform="matrix(1.7363 .33986 -.24474 1.2503 -155.39 -130.14)" sodipodi:cy="161.35086" sodipodi:cx="307.15002"/>
        <path id="path774" sodipodi:rx="1.4363101" sodipodi:ry="7.4577708" style="fill-rule:evenodd;stroke:#e65900;stroke-width:.41628;fill:#feb400" sodipodi:type="arc" d="m308.59 161.35c0 4.1188-0.64305 7.4578-1.4363 7.4578s-1.4363-3.339-1.4363-7.4578 0.64306-7.4578 1.4363-7.4578c0.79326 0 1.4363 3.339 1.4363 7.4578z" transform="matrix(1.7453 -.29012 .20892 1.2568 -235.11 62.751)" sodipodi:cy="161.35086" sodipodi:cx="307.15002"/>
        <path id="path775" sodipodi:rx="1.4363101" sodipodi:ry="7.4577708" style="fill-rule:evenodd;stroke:#e65900;stroke-width:.41628;fill:#feb400" sodipodi:type="arc" d="m308.59 161.35c0 4.1188-0.64305 7.4578-1.4363 7.4578s-1.4363-3.339-1.4363-7.4578 0.64306-7.4578 1.4363-7.4578c0.79326 0 1.4363 3.339 1.4363 7.4578z" transform="matrix(1.3532 -1.1398 .82079 .97446 -218.37 377.02)" sodipodi:cy="161.35086" sodipodi:cx="307.15002"/>
        <path id="path776" sodipodi:rx="1.4363101" sodipodi:ry="7.4577708" style="fill-rule:evenodd;stroke:#e65900;stroke-width:.41628;fill:#feb400" sodipodi:type="arc" d="m308.59 161.35c0 4.1188-0.64305 7.4578-1.4363 7.4578s-1.4363-3.339-1.4363-7.4578 0.64306-7.4578 1.4363-7.4578c0.79326 0 1.4363 3.339 1.4363 7.4578z" transform="matrix(1.6867 -.53411 .38463 1.2146 -246.46 150.91)" sodipodi:cy="161.35086" sodipodi:cx="307.15002"/>
        <path id="path777" sodipodi:rx="1.4363101" sodipodi:ry="7.4577708" style="fill-rule:evenodd;stroke:#e65900;stroke-width:.41628;fill:#feb400" sodipodi:type="arc" d="m308.59 161.35c0 4.1188-0.64305 7.4578-1.4363 7.4578s-1.4363-3.339-1.4363-7.4578 0.64306-7.4578 1.4363-7.4578c0.79326 0 1.4363 3.339 1.4363 7.4578z" transform="matrix(1.6673 .59172 -.42611 1.2007 -104.07 -192.75)" sodipodi:cy="161.35086" sodipodi:cx="307.15002"/>
        <path id="path778" sodipodi:rx="1.4363101" sodipodi:ry="7.4577708" style="fill-rule:evenodd;stroke:#e65900;stroke-width:.41628;fill:#feb400" sodipodi:type="arc" d="m308.59 161.35c0 4.1188-0.64305 7.4578-1.4363 7.4578s-1.4363-3.339-1.4363-7.4578 0.64306-7.4578 1.4363-7.4578c0.79326 0 1.4363 3.339 1.4363 7.4578z" transform="matrix(1.2254 1.2762 -.919 .88245 114.74 -349.3)" sodipodi:cy="161.35086" sodipodi:cx="307.15002"/>
      </g>
      <g id="g779" style="stroke:#e65900;fill:#feb400" transform="matrix(.41032 0 0 1 -8.5398 12.706)">
        <path id="path780" sodipodi:rx="1.4363101" sodipodi:ry="7.4577708" style="fill-rule:evenodd;stroke:#e65900;stroke-width:.41628;fill:#feb400" sodipodi:type="arc" d="m308.59 161.35c0 4.1188-0.64305 7.4578-1.4363 7.4578s-1.4363-3.339-1.4363-7.4578 0.64306-7.4578 1.4363-7.4578c0.79326 0 1.4363 3.339 1.4363 7.4578z" transform="matrix(1.3532 -1.1398 .82079 .97446 -217.93 371.38)" sodipodi:cy="161.35086" sodipodi:cx="307.15002"/>
        <path id="path781" sodipodi:rx="1.4363101" sodipodi:ry="7.4577708" style="fill-rule:evenodd;stroke:#e65900;stroke-width:.41628;fill:#feb400" sodipodi:type="arc" d="m308.59 161.35c0 4.1188-0.64305 7.4578-1.4363 7.4578s-1.4363-3.339-1.4363-7.4578 0.64306-7.4578 1.4363-7.4578c0.79326 0 1.4363 3.339 1.4363 7.4578z" transform="matrix(1.2875 1.2135 -.87386 .92716 88.16 -343.68)" sodipodi:cy="161.35086" sodipodi:cx="307.15002"/>
        <path id="path782" sodipodi:rx="1.4363101" sodipodi:ry="7.4577708" style="fill-rule:evenodd;stroke:#e65900;stroke-width:.41628;fill:#feb400" sodipodi:type="arc" d="m308.59 161.35c0 4.1188-0.64305 7.4578-1.4363 7.4578s-1.4363-3.339-1.4363-7.4578 0.64306-7.4578 1.4363-7.4578c0.79326 0 1.4363 3.339 1.4363 7.4578z" transform="matrix(1.7363 .33986 -.24474 1.2503 -155.39 -130.14)" sodipodi:cy="161.35086" sodipodi:cx="307.15002"/>
        <path id="path783" sodipodi:rx="1.4363101" sodipodi:ry="7.4577708" style="fill-rule:evenodd;stroke:#e65900;stroke-width:.41628;fill:#feb400" sodipodi:type="arc" d="m308.59 161.35c0 4.1188-0.64305 7.4578-1.4363 7.4578s-1.4363-3.339-1.4363-7.4578 0.64306-7.4578 1.4363-7.4578c0.79326 0 1.4363 3.339 1.4363 7.4578z" transform="matrix(1.7453 -.29012 .20892 1.2568 -235.11 62.751)" sodipodi:cy="161.35086" sodipodi:cx="307.15002"/>
        <path id="path784" sodipodi:rx="1.4363101" sodipodi:ry="7.4577708" style="fill-rule:evenodd;stroke:#e65900;stroke-width:.41628;fill:#feb400" sodipodi:type="arc" d="m308.59 161.35c0 4.1188-0.64305 7.4578-1.4363 7.4578s-1.4363-3.339-1.4363-7.4578 0.64306-7.4578 1.4363-7.4578c0.79326 0 1.4363 3.339 1.4363 7.4578z" transform="matrix(1.3532 -1.1398 .82079 .97446 -218.37 377.02)" sodipodi:cy="161.35086" sodipodi:cx="307.15002"/>
        <path id="path785" sodipodi:rx="1.4363101" sodipodi:ry="7.4577708" style="fill-rule:evenodd;stroke:#e65900;stroke-width:.41628;fill:#feb400" sodipodi:type="arc" d="m308.59 161.35c0 4.1188-0.64305 7.4578-1.4363 7.4578s-1.4363-3.339-1.4363-7.4578 0.64306-7.4578 1.4363-7.4578c0.79326 0 1.4363 3.339 1.4363 7.4578z" transform="matrix(1.6867 -.53411 .38463 1.2146 -246.46 150.91)" sodipodi:cy="161.35086" sodipodi:cx="307.15002"/>
        <path id="path786" sodipodi:rx="1.4363101" sodipodi:ry="7.4577708" style="fill-rule:evenodd;stroke:#e65900;stroke-width:.41628;fill:#feb400" sodipodi:type="arc" d="m308.59 161.35c0 4.1188-0.64305 7.4578-1.4363 7.4578s-1.4363-3.339-1.4363-7.4578 0.64306-7.4578 1.4363-7.4578c0.79326 0 1.4363 3.339 1.4363 7.4578z" transform="matrix(1.6673 .59172 -.42611 1.2007 -104.07 -192.75)" sodipodi:cy="161.35086" sodipodi:cx="307.15002"/>
        <path id="path787" sodipodi:rx="1.4363101" sodipodi:ry="7.4577708" style="fill-rule:evenodd;stroke:#e65900;stroke-width:.41628;fill:#feb400" sodipodi:type="arc" d="m308.59 161.35c0 4.1188-0.64305 7.4578-1.4363 7.4578s-1.4363-3.339-1.4363-7.4578 0.64306-7.4578 1.4363-7.4578c0.79326 0 1.4363 3.339 1.4363 7.4578z" transform="matrix(1.2254 1.2762 -.919 .88245 114.74 -349.3)" sodipodi:cy="161.35086" sodipodi:cx="307.15002"/>
      </g>
      <g id="g725" style="stroke:#e65900;fill:#feb400" transform="matrix(.41032 0 0 1 -8.5852 24.86)">
        <path id="path726" sodipodi:rx="1.4363101" sodipodi:ry="7.4577708" style="fill-rule:evenodd;stroke:#e65900;stroke-width:.41628;fill:#feb400" sodipodi:type="arc" d="m308.59 161.35c0 4.1188-0.64305 7.4578-1.4363 7.4578s-1.4363-3.339-1.4363-7.4578 0.64306-7.4578 1.4363-7.4578c0.79326 0 1.4363 3.339 1.4363 7.4578z" transform="matrix(1.3532 -1.1398 .82079 .97446 -217.93 371.38)" sodipodi:cy="161.35086" sodipodi:cx="307.15002"/>
        <path id="path727" sodipodi:rx="1.4363101" sodipodi:ry="7.4577708" style="fill-rule:evenodd;stroke:#e65900;stroke-width:.41628;fill:#feb400" sodipodi:type="arc" d="m308.59 161.35c0 4.1188-0.64305 7.4578-1.4363 7.4578s-1.4363-3.339-1.4363-7.4578 0.64306-7.4578 1.4363-7.4578c0.79326 0 1.4363 3.339 1.4363 7.4578z" transform="matrix(1.2875 1.2135 -.87386 .92716 88.16 -343.68)" sodipodi:cy="161.35086" sodipodi:cx="307.15002"/>
        <path id="path728" sodipodi:rx="1.4363101" sodipodi:ry="7.4577708" style="fill-rule:evenodd;stroke:#e65900;stroke-width:.41628;fill:#feb400" sodipodi:type="arc" d="m308.59 161.35c0 4.1188-0.64305 7.4578-1.4363 7.4578s-1.4363-3.339-1.4363-7.4578 0.64306-7.4578 1.4363-7.4578c0.79326 0 1.4363 3.339 1.4363 7.4578z" transform="matrix(1.7363 .33986 -.24474 1.2503 -155.39 -130.14)" sodipodi:cy="161.35086" sodipodi:cx="307.15002"/>
        <path id="path729" sodipodi:rx="1.4363101" sodipodi:ry="7.4577708" style="fill-rule:evenodd;stroke:#e65900;stroke-width:.41628;fill:#feb400" sodipodi:type="arc" d="m308.59 161.35c0 4.1188-0.64305 7.4578-1.4363 7.4578s-1.4363-3.339-1.4363-7.4578 0.64306-7.4578 1.4363-7.4578c0.79326 0 1.4363 3.339 1.4363 7.4578z" transform="matrix(1.7453 -.29012 .20892 1.2568 -235.11 62.751)" sodipodi:cy="161.35086" sodipodi:cx="307.15002"/>
        <path id="path730" sodipodi:rx="1.4363101" sodipodi:ry="7.4577708" style="fill-rule:evenodd;stroke:#e65900;stroke-width:.41628;fill:#feb400" sodipodi:type="arc" d="m308.59 161.35c0 4.1188-0.64305 7.4578-1.4363 7.4578s-1.4363-3.339-1.4363-7.4578 0.64306-7.4578 1.4363-7.4578c0.79326 0 1.4363 3.339 1.4363 7.4578z" transform="matrix(1.3532 -1.1398 .82079 .97446 -218.37 377.02)" sodipodi:cy="161.35086" sodipodi:cx="307.15002"/>
        <path id="path731" sodipodi:rx="1.4363101" sodipodi:ry="7.4577708" style="fill-rule:evenodd;stroke:#e65900;stroke-width:.41628;fill:#feb400" sodipodi:type="arc" d="m308.59 161.35c0 4.1188-0.64305 7.4578-1.4363 7.4578s-1.4363-3.339-1.4363-7.4578 0.64306-7.4578 1.4363-7.4578c0.79326 0 1.4363 3.339 1.4363 7.4578z" transform="matrix(1.6867 -.53411 .38463 1.2146 -246.46 150.91)" sodipodi:cy="161.35086" sodipodi:cx="307.15002"/>
        <path id="path732" sodipodi:rx="1.4363101" sodipodi:ry="7.4577708" style="fill-rule:evenodd;stroke:#e65900;stroke-width:.41628;fill:#feb400" sodipodi:type="arc" d="m308.59 161.35c0 4.1188-0.64305 7.4578-1.4363 7.4578s-1.4363-3.339-1.4363-7.4578 0.64306-7.4578 1.4363-7.4578c0.79326 0 1.4363 3.339 1.4363 7.4578z" transform="matrix(1.6673 .59172 -.42611 1.2007 -104.07 -192.75)" sodipodi:cy="161.35086" sodipodi:cx="307.15002"/>
        <path id="path733" sodipodi:rx="1.4363101" sodipodi:ry="7.4577708" style="fill-rule:evenodd;stroke:#e65900;stroke-width:.41628;fill:#feb400" sodipodi:type="arc" d="m308.59 161.35c0 4.1188-0.64305 7.4578-1.4363 7.4578s-1.4363-3.339-1.4363-7.4578 0.64306-7.4578 1.4363-7.4578c0.79326 0 1.4363 3.339 1.4363 7.4578z" transform="matrix(1.2254 1.2762 -.919 .88245 114.74 -349.3)" sodipodi:cy="161.35086" sodipodi:cx="307.15002"/>
      </g>
      <g id="g716" style="stroke:#e65900;fill:#feb400" transform="matrix(.41032 0 0 1 -8.4492 37.786)">
        <path id="path717" sodipodi:rx="1.4363101" sodipodi:ry="7.4577708" style="fill-rule:evenodd;stroke:#e65900;stroke-width:.41628;fill:#feb400" sodipodi:type="arc" d="m308.59 161.35c0 4.1188-0.64305 7.4578-1.4363 7.4578s-1.4363-3.339-1.4363-7.4578 0.64306-7.4578 1.4363-7.4578c0.79326 0 1.4363 3.339 1.4363 7.4578z" transform="matrix(1.3532 -1.1398 .82079 .97446 -217.93 371.38)" sodipodi:cy="161.35086" sodipodi:cx="307.15002"/>
        <path id="path718" sodipodi:rx="1.4363101" sodipodi:ry="7.4577708" style="fill-rule:evenodd;stroke:#e65900;stroke-width:.41628;fill:#feb400" sodipodi:type="arc" d="m308.59 161.35c0 4.1188-0.64305 7.4578-1.4363 7.4578s-1.4363-3.339-1.4363-7.4578 0.64306-7.4578 1.4363-7.4578c0.79326 0 1.4363 3.339 1.4363 7.4578z" transform="matrix(1.2875 1.2135 -.87386 .92716 88.16 -343.68)" sodipodi:cy="161.35086" sodipodi:cx="307.15002"/>
        <path id="path719" sodipodi:rx="1.4363101" sodipodi:ry="7.4577708" style="fill-rule:evenodd;stroke:#e65900;stroke-width:.41628;fill:#feb400" sodipodi:type="arc" d="m308.59 161.35c0 4.1188-0.64305 7.4578-1.4363 7.4578s-1.4363-3.339-1.4363-7.4578 0.64306-7.4578 1.4363-7.4578c0.79326 0 1.4363 3.339 1.4363 7.4578z" transform="matrix(1.7363 .33986 -.24474 1.2503 -155.39 -130.14)" sodipodi:cy="161.35086" sodipodi:cx="307.15002"/>
        <path id="path720" sodipodi:rx="1.4363101" sodipodi:ry="7.4577708" style="fill-rule:evenodd;stroke:#e65900;stroke-width:.41628;fill:#feb400" sodipodi:type="arc" d="m308.59 161.35c0 4.1188-0.64305 7.4578-1.4363 7.4578s-1.4363-3.339-1.4363-7.4578 0.64306-7.4578 1.4363-7.4578c0.79326 0 1.4363 3.339 1.4363 7.4578z" transform="matrix(1.7453 -.29012 .20892 1.2568 -235.11 62.751)" sodipodi:cy="161.35086" sodipodi:cx="307.15002"/>
        <path id="path721" sodipodi:rx="1.4363101" sodipodi:ry="7.4577708" style="fill-rule:evenodd;stroke:#e65900;stroke-width:.41628;fill:#feb400" sodipodi:type="arc" d="m308.59 161.35c0 4.1188-0.64305 7.4578-1.4363 7.4578s-1.4363-3.339-1.4363-7.4578 0.64306-7.4578 1.4363-7.4578c0.79326 0 1.4363 3.339 1.4363 7.4578z" transform="matrix(1.3532 -1.1398 .82079 .97446 -218.37 377.02)" sodipodi:cy="161.35086" sodipodi:cx="307.15002"/>
        <path id="path722" sodipodi:rx="1.4363101" sodipodi:ry="7.4577708" style="fill-rule:evenodd;stroke:#e65900;stroke-width:.41628;fill:#feb400" sodipodi:type="arc" d="m308.59 161.35c0 4.1188-0.64305 7.4578-1.4363 7.4578s-1.4363-3.339-1.4363-7.4578 0.64306-7.4578 1.4363-7.4578c0.79326 0 1.4363 3.339 1.4363 7.4578z" transform="matrix(1.6867 -.53411 .38463 1.2146 -246.46 150.91)" sodipodi:cy="161.35086" sodipodi:cx="307.15002"/>
        <path id="path723" sodipodi:rx="1.4363101" sodipodi:ry="7.4577708" style="fill-rule:evenodd;stroke:#e65900;stroke-width:.41628;fill:#feb400" sodipodi:type="arc" d="m308.59 161.35c0 4.1188-0.64305 7.4578-1.4363 7.4578s-1.4363-3.339-1.4363-7.4578 0.64306-7.4578 1.4363-7.4578c0.79326 0 1.4363 3.339 1.4363 7.4578z" transform="matrix(1.6673 .59172 -.42611 1.2007 -104.07 -192.75)" sodipodi:cy="161.35086" sodipodi:cx="307.15002"/>
        <path id="path724" sodipodi:rx="1.4363101" sodipodi:ry="7.4577708" style="fill-rule:evenodd;stroke:#e65900;stroke-width:.41628;fill:#feb400" sodipodi:type="arc" d="m308.59 161.35c0 4.1188-0.64305 7.4578-1.4363 7.4578s-1.4363-3.339-1.4363-7.4578 0.64306-7.4578 1.4363-7.4578c0.79326 0 1.4363 3.339 1.4363 7.4578z" transform="matrix(1.2254 1.2762 -.919 .88245 114.74 -349.3)" sodipodi:cy="161.35086" sodipodi:cx="307.15002"/>
      </g>
      <g id="g707" style="stroke:#e65900;fill:#feb400" transform="matrix(.41032 0 0 1 -8.4492 50.824)">
        <path id="path703" sodipodi:rx="1.4363101" sodipodi:ry="7.4577708" style="fill-rule:evenodd;stroke:#e65900;stroke-width:.41628;fill:#feb400" sodipodi:type="arc" d="m308.59 161.35c0 4.1188-0.64305 7.4578-1.4363 7.4578s-1.4363-3.339-1.4363-7.4578 0.64306-7.4578 1.4363-7.4578c0.79326 0 1.4363 3.339 1.4363 7.4578z" transform="matrix(1.3532 -1.1398 .82079 .97446 -217.93 371.38)" sodipodi:cy="161.35086" sodipodi:cx="307.15002"/>
        <path id="path704" sodipodi:rx="1.4363101" sodipodi:ry="7.4577708" style="fill-rule:evenodd;stroke:#e65900;stroke-width:.41628;fill:#feb400" sodipodi:type="arc" d="m308.59 161.35c0 4.1188-0.64305 7.4578-1.4363 7.4578s-1.4363-3.339-1.4363-7.4578 0.64306-7.4578 1.4363-7.4578c0.79326 0 1.4363 3.339 1.4363 7.4578z" transform="matrix(1.2875 1.2135 -.87386 .92716 88.16 -343.68)" sodipodi:cy="161.35086" sodipodi:cx="307.15002"/>
        <path id="path705" sodipodi:rx="1.4363101" sodipodi:ry="7.4577708" style="fill-rule:evenodd;stroke:#e65900;stroke-width:.41628;fill:#feb400" sodipodi:type="arc" d="m308.59 161.35c0 4.1188-0.64305 7.4578-1.4363 7.4578s-1.4363-3.339-1.4363-7.4578 0.64306-7.4578 1.4363-7.4578c0.79326 0 1.4363 3.339 1.4363 7.4578z" transform="matrix(1.7363 .33986 -.24474 1.2503 -155.39 -130.14)" sodipodi:cy="161.35086" sodipodi:cx="307.15002"/>
        <path id="path706" sodipodi:rx="1.4363101" sodipodi:ry="7.4577708" style="fill-rule:evenodd;stroke:#e65900;stroke-width:.41628;fill:#feb400" sodipodi:type="arc" d="m308.59 161.35c0 4.1188-0.64305 7.4578-1.4363 7.4578s-1.4363-3.339-1.4363-7.4578 0.64306-7.4578 1.4363-7.4578c0.79326 0 1.4363 3.339 1.4363 7.4578z" transform="matrix(1.7453 -.29012 .20892 1.2568 -235.11 62.751)" sodipodi:cy="161.35086" sodipodi:cx="307.15002"/>
        <path id="path699" sodipodi:rx="1.4363101" sodipodi:ry="7.4577708" style="fill-rule:evenodd;stroke:#e65900;stroke-width:.41628;fill:#feb400" sodipodi:type="arc" d="m308.59 161.35c0 4.1188-0.64305 7.4578-1.4363 7.4578s-1.4363-3.339-1.4363-7.4578 0.64306-7.4578 1.4363-7.4578c0.79326 0 1.4363 3.339 1.4363 7.4578z" transform="matrix(1.3532 -1.1398 .82079 .97446 -218.37 377.02)" sodipodi:cy="161.35086" sodipodi:cx="307.15002"/>
        <path id="path700" sodipodi:rx="1.4363101" sodipodi:ry="7.4577708" style="fill-rule:evenodd;stroke:#e65900;stroke-width:.41628;fill:#feb400" sodipodi:type="arc" d="m308.59 161.35c0 4.1188-0.64305 7.4578-1.4363 7.4578s-1.4363-3.339-1.4363-7.4578 0.64306-7.4578 1.4363-7.4578c0.79326 0 1.4363 3.339 1.4363 7.4578z" transform="matrix(1.6867 -.53411 .38463 1.2146 -246.46 150.91)" sodipodi:cy="161.35086" sodipodi:cx="307.15002"/>
        <path id="path701" sodipodi:rx="1.4363101" sodipodi:ry="7.4577708" style="fill-rule:evenodd;stroke:#e65900;stroke-width:.41628;fill:#feb400" sodipodi:type="arc" d="m308.59 161.35c0 4.1188-0.64305 7.4578-1.4363 7.4578s-1.4363-3.339-1.4363-7.4578 0.64306-7.4578 1.4363-7.4578c0.79326 0 1.4363 3.339 1.4363 7.4578z" transform="matrix(1.6673 .59172 -.42611 1.2007 -104.07 -192.75)" sodipodi:cy="161.35086" sodipodi:cx="307.15002"/>
        <path id="path702" sodipodi:rx="1.4363101" sodipodi:ry="7.4577708" style="fill-rule:evenodd;stroke:#e65900;stroke-width:.41628;fill:#feb400" sodipodi:type="arc" d="m308.59 161.35c0 4.1188-0.64305 7.4578-1.4363 7.4578s-1.4363-3.339-1.4363-7.4578 0.64306-7.4578 1.4363-7.4578c0.79326 0 1.4363 3.339 1.4363 7.4578z" transform="matrix(1.2254 1.2762 -.919 .88245 114.74 -349.3)" sodipodi:cy="161.35086" sodipodi:cx="307.15002"/>
      </g>
    </g>
    <g id="g2365" style="stroke:#e65900;stroke-width:.5">
      <path id="path2183" inkscape:connector-curvature="0" style="stroke:#e65900;stroke-width:.5;fill:none" transform="matrix(1.5385,0,0,1.5385,309.44,50.423)" d="m57.895 173.33 7.071-0.44"/>
      <path id="path2184" inkscape:connector-curvature="0" style="stroke:#e65900;stroke-width:.5;fill:none" transform="matrix(1.5385,0,0,1.5385,309.44,50.423)" d="m71.595 176.43 5.303-0.45"/>
      <path id="path2185" inkscape:connector-curvature="0" style="stroke:#e65900;stroke-width:.5;fill:none" transform="matrix(1.5385,0,0,1.5385,309.44,50.423)" d="m75.131 172.89 4.861 0.44"/>
      <path id="path2187" inkscape:connector-curvature="0" style="stroke:#e65900;stroke-width:.5;fill:none" transform="matrix(1.5385,0,0,1.5385,309.44,50.423)" d="m83.086 173.33v0.45-0.45z"/>
      <path id="path2188" inkscape:connector-curvature="0" style="stroke:#e65900;stroke-width:.5;fill:none" transform="matrix(1.5385,0,0,1.5385,309.44,50.423)" d="m87.063 172.89c0.484 0 0 1.14 0 2.65v0.89"/>
      <path id="path2189" inkscape:connector-curvature="0" style="stroke:#e65900;stroke-width:.5;fill:none" transform="matrix(1.5385,0,0,1.5385,309.44,50.423)" d="m89.273 173.78h0.442c-1.235 0-0.496-0.14 0.442 2.2l-0.442-2.2c-1.235 0-0.496-0.14 0.442 2.2"/>
      <path id="path2190" inkscape:connector-curvature="0" style="stroke:#e65900;stroke-width:.5;fill:none" transform="matrix(1.5385,0,0,1.5385,309.44,50.423)" d="m95.902 174.66h2.21c1.874 0.25 3.388 0.73 4.858 1.32h0.89"/>
      <path id="path2191" inkscape:connector-curvature="0" style="stroke:#e65900;stroke-width:.5;fill:none" transform="matrix(1.5385,0,0,1.5385,309.44,50.423)" d="m109.16 173.78c0.15 0.14 0.3 0.29 0.44 0.44-1.11-1.11-0.6-0.57 1.77 1.32 1.38 1.04 2.3 0.26 3.09-1.32 1.18-0.74 1.83-1.29 3.98-1.33"/>
      <path id="path2192" inkscape:connector-curvature="0" style="stroke:#e65900;stroke-width:.5;fill:none" transform="matrix(1.5385,0,0,1.5385,309.44,50.423)" d="m126.4 175.98c0.86 0.24 4.14 1.34 5.3 0.89 0.62-0.8 1.29-1.2 0.44-1.77"/>
      <path id="path2193" inkscape:connector-curvature="0" style="stroke:#e65900;stroke-width:.5;fill:none" transform="matrix(1.5385,0,0,1.5385,309.44,50.423)" d="m137.44 173.33c-1.04 0 1.8-0.33 2.66-0.44 1.65 0 1.69 0.37 2.65 0.89"/>
      <path id="path2194" inkscape:connector-curvature="0" style="stroke:#e65900;stroke-width:.5;fill:none" transform="matrix(1.5385,0,0,1.5385,309.44,50.423)" d="m148.49 173.33h0.45c-1.24 0-0.58-0.05 1.76 0.89 1.02 0.6 1.06 1.36 1.77 2.21 2.08 0.34 3.67 0.13 5.3-0.45"/>
      <path id="path2195" inkscape:connector-curvature="0" style="stroke:#e65900;stroke-width:.5;fill:none" transform="matrix(1.5385,0,0,1.5385,309.44,50.423)" d="m164.85 182.61v2.21c0.75 1.25 0.3 3.18 0 4.86v1.33"/>
      <path id="path2196" inkscape:connector-curvature="0" style="stroke:#e65900;stroke-width:.5;fill:none" transform="matrix(1.5385,0,0,1.5385,309.44,50.423)" d="m167.94 182.61v0.45c0-1.2-0.03-0.59 0.44 1.76-0.05 1.78-0.53 2.43-1.32 3.98"/>
      <path id="path2197" inkscape:connector-curvature="0" style="stroke:#e65900;stroke-width:.5;fill:none" transform="matrix(1.5385,0,0,1.5385,309.44,50.423)" d="m165.29 194.99c0.01 0.03 0.69 1.75 0.88 3.09 0.63 1.25 0.44 3.82 0.44 5.75v0.88"/>
      <path id="path2198" inkscape:connector-curvature="0" style="stroke:#e65900;stroke-width:.5;fill:none" transform="matrix(1.5385,0,0,1.5385,309.44,50.423)" d="m164.4 206.04v1.76c-0.46 1.4-0.44 3.71-0.44 5.75l0.44-5.75c-0.46 1.4-0.44 3.71-0.44 5.75"/>
      <path id="path2199" inkscape:connector-curvature="0" style="stroke:#e65900;stroke-width:.5;fill:none" transform="matrix(1.5385,0,0,1.5385,309.44,50.423)" d="m85.295 206.04v0.44c0-1.05-0.035-0.59 0.442 1.32 0 2.27-0.415 3.96-0.442 6.19-0.2 1.34-0.905 2.25-1.325 3.09"/>
      <path id="path2200" inkscape:connector-curvature="0" style="stroke:#e65900;stroke-width:.5;fill:none" transform="matrix(1.5385,0,0,1.5385,309.44,50.423)" d="m98.996 183.5h-0.442c0.172 0.34 0 1.61 0 2.65 0 2.39-0.243 4.4-0.442 6.63-0.844 3.14-1.326 5.91-1.326 9.28 0 2.26 0.079 4.52 0.442 6.19 0 2.25-0.291 4.07-0.442 6.18l0.442-6.18c0 2.25-0.291 4.07-0.442 6.18v0.45-0.89"/>
      <path id="path2201" inkscape:connector-curvature="0" style="stroke:#e65900;stroke-width:.5;fill:none" transform="matrix(1.5385,0,0,1.5385,309.44,50.423)" d="m100.32 185.71c0.12 0.8 0.44 4.03 0.44 6.19-0.51 2.32-1.407 5.4-2.206 7.95-0.164 2.13-0.573 3.45 0 5.75 0.395 2.21 0.804 4.24 0.884 6.62 0.222 0.67 0.442 0.38 0.442 1.33"/>
      <path id="path2202" inkscape:connector-curvature="0" style="stroke:#e65900;stroke-width:.5;fill:none" transform="matrix(1.5385,0,0,1.5385,309.44,50.423)" d="m71.595 181.29v2.21c-0.584 2.25-0.789 4.48-1.326 6.63-0.501 2-0.652 4.45-0.884 6.63 0.392 1.69 0.884 3.43 0.884 5.74 0 1.02-0.191 1.79 0.442 2.21"/>
      <path id="path2203" inkscape:connector-curvature="0" style="stroke:#e65900;stroke-width:.5;fill:none" transform="matrix(1.5385,0,0,1.5385,309.44,50.423)" d="m72.921 181.73c-0.57 0 0.016 1.51 0.442 2.65-0.031 2.56-0.741 3.41-1.326 5.75-1.042 2.21-1.624 3.49-1.768 6.18 0 2.27 0.298 4.21 0.884 5.75 0.307 2.32 1.278 3.42 1.768 5.3"/>
      <path id="path2204" inkscape:connector-curvature="0" style="stroke:#e65900;stroke-width:.5;fill:none" transform="matrix(1.5385,0,0,1.5385,309.44,50.423)" d="m53.033 182.17v0.44c0-1.05-0.035-0.58 0.442 1.33 0 2.58 0.355 4.64 0.442 7.07 0.761 2.34-0.263 3.25-0.442 5.75 0 1.13-0.219 1.2 0.884 1.32"/>
      <path id="path2205" inkscape:connector-curvature="0" style="stroke:#e65900;stroke-width:.5;fill:none" transform="matrix(1.5385,0,0,1.5385,309.44,50.423)" d="m47.288 181.29c-0.376 0-0.201 1.35-0.884 2.21 0 2.04 0.208 1.88 1.326 3.09 0.646 1.51 1.172 3.59 1.326 5.75 0 1.57 0.047 2.99 0.442 3.97"/>
      <path id="path2206" inkscape:connector-curvature="0" style="stroke:#e65900;stroke-width:.5;fill:none" transform="matrix(1.5385,0,0,1.5385,309.44,50.423)" d="m62.314 181.29h-0.442c0.13 0.32 0 2.36 0 3.53v6.19c0 2.2-0.089 4.21-0.442 6.19 0.431 1.29 0.442 3.38 0.442 5.3v-1.32"/>
      <path id="path2207" inkscape:connector-curvature="0" style="stroke:#e65900;stroke-width:.5;fill:none" transform="matrix(1.5385,0,0,1.5385,309.44,50.423)" d="m64.524 180.4h-0.442c0.139 0.35 0 2.35 0 3.54v6.63c0 2.25 0.291 4.08 0.442 6.19 0.256 1.49 0.628 2.92 0.884 4.42"/>
      <path id="path2208" inkscape:connector-curvature="0" style="stroke:#e65900;stroke-width:.5;fill:none" transform="matrix(1.5385,0,0,1.5385,309.44,50.423)" d="m136.12 184.38v7.52c-0.02 3.19-0.62 5.85-0.88 8.83 0 2.26-0.3 4.08-0.45 6.19v6.63c0.12 1.31 0.34 3.25 0.89 3.98"/>
      <path id="path2209" inkscape:connector-curvature="0" style="stroke:#e65900;stroke-width:.5;fill:none" transform="matrix(1.5385,0,0,1.5385,309.44,50.423)" d="m139.21 189.24v0.89c0-1.78 0.05-1.18-0.44 1.77-0.64 2.94-0.86 6.08-0.88 9.28 0 2.72-0.08 5.16-0.89 7.51-0.08 2.17-0.44 3.92-0.44 6.19 0 1.09-0.08 1.77 0.44 2.65"/>
      <path id="path2210" inkscape:connector-curvature="0" style="stroke:#e65900;stroke-width:.5;fill:none" transform="matrix(1.5385,0,0,1.5385,309.44,50.423)" d="m114.46 203.83v2.21c0 2.24 0.22 4.66-0.44 6.63v6.63c-0.08 2.3-0.72 3.93-0.88 6.18v3.1-1.33"/>
      <path id="path2211" inkscape:connector-curvature="0" style="stroke:#e65900;stroke-width:.5;fill:none" transform="matrix(1.5385,0,0,1.5385,309.44,50.423)" d="m118 198.08v0.44c0-1.19 0.03-0.58-0.44 1.77-0.26 2.13-0.73 4.01-0.89 6.19-0.81 2.21-0.88 4.48-0.88 7.07v6.19c0.03 2.32 0.44 3.34 0.44 5.74 0.38 2.11 0.86 3.89 0.89 6.19 0.28 2.59 0.44-1.53 0.44-2.21"/>
      <path id="path2212" inkscape:connector-curvature="0" style="stroke:#e65900;stroke-width:.5;fill:none" transform="matrix(1.5385,0,0,1.5385,309.44,50.423)" d="m117.12 182.17v1.77c0.62 1.26 0.31 4.05 0.88 5.74 0 1.27-0.12 1.91-0.44 2.66"/>
      <path id="path2213" inkscape:connector-curvature="0" style="stroke:#e65900;stroke-width:.5;fill:none" transform="matrix(1.5385,0,0,1.5385,309.44,50.423)" d="m119.77 185.26v2.22c0.16 2.13 0.42 3.36 0 5.3-0.32 0.75-0.45 1.39-0.45 2.65"/>
      <path id="path2214" inkscape:connector-curvature="0" style="stroke:#e65900;stroke-width:.5;fill:none" transform="matrix(1.5385,0,0,1.5385,309.44,50.423)" d="m107.39 198.97c-0.15 1.02-0.51 4.93-0.88 7.07-0.3 2.28-0.44 4.58-0.44 7.07v13.7"/>
      <path id="path2215" inkscape:connector-curvature="0" style="stroke:#e65900;stroke-width:.5;fill:none" transform="matrix(1.5385,0,0,1.5385,309.44,50.423)" d="m97.228 215.76v2.21c0.193 2.15 0.998 3.42 2.21 4.42l-2.21-4.42c0.193 2.15 0.998 3.42 2.21 4.42"/>
      <path id="path2216" inkscape:connector-curvature="0" style="stroke:#e65900;stroke-width:.5;fill:none" transform="matrix(1.5385,0,0,1.5385,309.44,50.423)" d="m93.692 219.74c0.306 0 0.784 1.2 1.326 2.65l-1.326-2.65c0.306 0 0.784 1.2 1.326 2.65"/>
      <path id="path2217" inkscape:connector-curvature="0" style="stroke:#e65900;stroke-width:.5;fill:none" transform="matrix(1.5385,0,0,1.5385,309.44,50.423)" d="m177.66 179.08c-0.16 0.95-0.85 3.96-0.88 6.18 0 2.41-0.31 4.34-0.44 6.64-0.76 1.82-1.26 4.22-1.77 5.74v0.88"/>
      <path id="path2218" inkscape:connector-curvature="0" style="stroke:#e65900;stroke-width:.5;fill:none" transform="matrix(1.5385,0,0,1.5385,309.44,50.423)" d="m181.64 183.5h-0.44c1.1 0 0.5-0.13-0.44 1.76v6.64c0 2.47-0.06 3.84-0.89 5.74-0.67 1.56-1.17 3.33-1.32 5.3 0.32 0.82 0.54 2.36 0.88 3.54"/>
      <path id="path2219" inkscape:connector-curvature="0" style="stroke:#e65900;stroke-width:.5;fill:none" transform="matrix(1.5385,0,0,1.5385,309.44,50.423)" d="m175.45 177.31c0.64 0 2.96 0.31 4.42 0.44 1.03 0.12 0.74 0.33 1.77 0.44"/>
      <path id="path2220" inkscape:connector-curvature="0" style="stroke:#e65900;stroke-width:.5;fill:none" transform="matrix(1.5385,0,0,1.5385,309.44,50.423)" d="m161.31 175.98h1.77c0.54 0.55 0.23 0.45 0.88 0.45"/>
      <path id="path2221" inkscape:connector-curvature="0" style="stroke:#e65900;stroke-width:.5;fill:none" transform="matrix(1.5385,0,0,1.5385,309.44,50.423)" d="m166.17 175.98c0.04 0.01 1.77 0.35 3.09 0.45 0.28 0.63 0.74 1.32 0.89 0.88"/>
      <path id="path2222" inkscape:connector-curvature="0" style="stroke:#e65900;stroke-width:.5;fill:none" transform="matrix(1.5385,0,0,1.5385,309.44,50.423)" d="m184.73 174.22c0.8 0.14 3.07 1.04 4.42 1.32 0.59 0 0.45-0.14 0.45 0.44"/>
      <path id="path2223" inkscape:connector-curvature="0" style="stroke:#e65900;stroke-width:.5;fill:none" transform="matrix(1.5385,0,0,1.5385,309.44,50.423)" d="m190.48 179.96v0.44c0-1.19-0.03-0.58 0.44 1.77 0.48 1.9 0.41 4.29 0.88 6.19-0.08 2.4-0.72 3.64-0.88 5.74-0.63 0.42-0.63 0.91 0 1.33"/>
      <path id="path2224" inkscape:connector-curvature="0" style="stroke:#e65900;stroke-width:.5;fill:none" transform="matrix(1.5385,0,0,1.5385,309.44,50.423)" d="m187.38 193.66c0.08 0.48 0.45 3.46 0.45 5.31-0.53 1.57-0.61 4.79-0.45 5.3 0 0.59-0.14 0.44 0.45 0.44"/>
      <path id="path2225" inkscape:connector-curvature="0" style="stroke:#e65900;stroke-width:.5;fill:none" transform="matrix(1.5385,0,0,1.5385,309.44,50.423)" d="m192.25 203.83v0.44c0-1.19 0.03-0.59-0.45 1.77v2.21"/>
      <path id="path2226" inkscape:connector-curvature="0" style="stroke:#e65900;stroke-width:.5;fill:none" transform="matrix(1.5385,0,0,1.5385,309.44,50.423)" d="m171.92 202.94c0.22 0.74 0.88 3.22 0.88 5.31 0.08 2.17 0.44 3.34 0.44 5.74"/>
      <path id="path2227" inkscape:connector-curvature="0" style="stroke:#e65900;stroke-width:.5;fill:none" transform="matrix(1.5385,0,0,1.5385,309.44,50.423)" d="m154.24 216.64v4.42"/>
      <path id="path2228" inkscape:connector-curvature="0" style="stroke:#e65900;stroke-width:.5;fill:none" transform="matrix(1.5385,0,0,1.5385,309.44,50.423)" d="m155.56 196.76v1.76c-0.02 2.6-0.44 4.45-1.32 6.63-0.55 2.2-0.08 3.08 0 5.31v-5.31c-0.55 2.2-0.08 3.08 0 5.31"/>
      <path id="path2229" inkscape:connector-curvature="0" style="stroke:#e65900;stroke-width:.5;fill:none" transform="matrix(1.5385,0,0,1.5385,309.44,50.423)" d="m155.56 182.61c0.37 0.84 0.89 3.54 0.89 5.75-0.26 1.94-0.4 4.72-0.89 6.19l0.89-6.19c-0.26 1.94-0.4 4.72-0.89 6.19"/>
      <path id="path2230" inkscape:connector-curvature="0" style="stroke:#e65900;stroke-width:.5;fill:none" transform="matrix(1.5385,0,0,1.5385,309.44,50.423)" d="m144.07 185.71c0.32 0.31 1.77 2.05 1.77 3.97v6.19c0 1.24-0.27 1.97-0.44 3.1"/>
      <path id="path2231" inkscape:connector-curvature="0" style="stroke:#e65900;stroke-width:.5;fill:none" transform="matrix(1.5385,0,0,1.5385,309.44,50.423)" d="m147.61 200.29c-0.16 0.81-0.88 3.63-0.88 5.75-0.2 1.15-0.41 2.89-0.89 3.53-0.7 0.24-0.18 0.21-0.88 0.44"/>
      <path id="path2232" inkscape:connector-curvature="0" style="stroke:#e65900;stroke-width:.5;fill:none" transform="matrix(1.5385,0,0,1.5385,309.44,50.423)" d="m139.66 221.06v0.44c0-1.19 0.02-0.58-0.45 1.77-0.53 2.05-0.88 3.87-0.88 6.19-0.24 0.71-0.21 0.18-0.44 0.88"/>
      <path id="path2233" inkscape:connector-curvature="0" style="stroke:#e65900;stroke-width:.5;fill:none" transform="matrix(1.5385,0,0,1.5385,309.44,50.423)" d="m133.47 219.3h0.44c-1.1 0-0.51-0.14 0.44 1.76v6.63c-0.28 0.94-0.44 1.55-0.44 2.65"/>
      <path id="path2234" inkscape:connector-curvature="0" style="stroke:#e65900;stroke-width:.5;fill:none" transform="matrix(1.5385,0,0,1.5385,309.44,50.423)" d="m130.37 226.81c0.12 0.75 0.51 3.09 0 4.86 0 1.37 0.12 2.79-0.44 3.53"/>
      <path id="path2235" inkscape:connector-curvature="0" style="stroke:#e65900;stroke-width:.5;fill:none" transform="matrix(1.5385,0,0,1.5385,309.44,50.423)" d="m55.685 199.41v0.44c0-1.05 0.036-0.59-0.442 1.33v3.53"/>
      <path id="path2236" inkscape:connector-curvature="0" style="stroke:#e65900;stroke-width:.5;fill:none" transform="matrix(1.5385,0,0,1.5385,309.44,50.423)" d="m197.55 175.1h2.21c1.91 1.11 2.25 1.67 4.86 1.77l-4.86-1.77c1.91 1.11 2.25 1.67 4.86 1.77"/>
      <path id="path2237" inkscape:connector-curvature="0" style="stroke:#e65900;stroke-width:.5;fill:none" transform="matrix(1.5385,0,0,1.5385,309.44,50.423)" d="m197.11 180.4c0.37 0.5 3.49 3.75 3.97 5.31-0.24 2.04-0.44 3.95-0.44 6.19v2.2"/>
      <path id="path2238" inkscape:connector-curvature="0" style="stroke:#e65900;stroke-width:.5;fill:none" transform="matrix(1.5385,0,0,1.5385,309.44,50.423)" d="m203.3 180.85v0.44c0-1.05-0.04-0.59 0.44 1.32v6.19c-0.08 2.17-0.44 3.34-0.44 5.75v1.32"/>
      <path id="path2239" inkscape:connector-curvature="0" style="stroke:#e65900;stroke-width:.5;fill:none" transform="matrix(1.5385,0,0,1.5385,309.44,50.423)" d="m194.46 194.55v2.21c0 2.37 0.43 3.21 0.88 4.86"/>
    </g>
    <use id="use2419" xlink:href="#g851" transform="matrix(.62548 -.029234 .05072 .56736 60.747 150.4)" height="496.06299" width="992.12598" y="0" x="0"/>
    <use id="use2420" xlink:href="#g851" transform="matrix(.73124 .025224 -.0301 .61278 49.414 106.36)" height="496.06299" width="992.12598" y="0" x="0"/>
    <use id="use2490" xlink:href="#g851" transform="matrix(.62137 -.161 .19426 .51498 222.67 235.87)" height="496.06299" width="992.12598" y="0" x="0"/>
    <use id="use2432" xlink:href="#g851" transform="matrix(.48591 -.075817 .099928 .64043 307.01 149.89)" height="496.06299" width="992.12598" y="0" x="0"/>
    <use id="use2431" xlink:href="#g851" transform="matrix(.40462 -.24819 .17822 .56346 305.01 272.81)" height="496.06299" width="992.12598" y="0" x="0"/>
    <use id="use2430" xlink:href="#g851" transform="matrix(.48444 .11563 -.11875 .62537 367.98 71.859)" height="496.06299" width="992.12598" y="0" x="0"/>
    <use id="use2429" xlink:href="#g851" transform="matrix(.80454 0 0 .71456 143.75 96.479)" height="496.06299" width="992.12598" y="0" x="0"/>
    <use id="use2428" xlink:href="#g851" transform="matrix(.88272 0 0 .90707 90.748 28.534)" height="496.06299" width="992.12598" y="0" x="0"/>
    <use id="use2427" xlink:href="#g851" transform="matrix(.952 -.051152 .051135 .95231 22.261 35.802)" height="496.06299" width="992.12598" y="0" x="0"/>
    <use id="use2426" xlink:href="#g851" transform="matrix(.64682 .041762 -.056733 .87868 173.16 20.168)" height="496.06299" width="992.12598" y="0" x="0"/>
    <use id="use2425" xlink:href="#g851" transform="matrix(.92181 0 0 .94026 27.374 21.647)" height="496.06299" width="992.12598" y="0" x="0"/>
    <use id="use2424" xlink:href="#g851" transform="matrix(.72635 0 0 .84732 99.246 48.93)" height="496.06299" width="992.12598" y="0" x="0"/>
    <use id="use2423" xlink:href="#g851" transform="matrix(.76544 0 0 .74775 60.871 83.341)" height="496.06299" width="992.12598" y="0" x="0"/>
    <use id="use2422" xlink:href="#g851" transform="matrix(.61696 .26861 -.23312 .71089 210.54 -48.516)" height="496.06299" width="992.12598" y="0" x="0"/>
    <use id="use2418" xlink:href="#g851" transform="matrix(.40595 -.079181 .077069 .39513 151.19 233.33)" height="496.06299" width="992.12598" y="0" x="0"/>
    <use id="use2421" xlink:href="#g851" transform="matrix(.59428 .092838 -.092115 .59895 157.05 83.214)" height="496.06299" width="992.12598" y="0" x="0"/>
  </g>
  <path id="path2247" inkscape:connector-curvature="0" sodipodi:nodetypes="ccccccccccc" style="fill-rule:evenodd;stroke-width:1pt;fill:#0038ac" d="m0 0v496.06h992.13v-496.06h-992.13zm620.93 88.583v245.31c0 40.89-81.77 54.52-122.65 81.77-40.89-27.25-122.66-40.88-122.66-81.77v-245.31l245.31 0.003z"/>
  <metadata id="metadata273">
    <rdf:RDF>
      <cc:Work>
        <dc:format>image/svg+xml</dc:format>
        <dc:type rdf:resource="http://purl.org/dc/dcmitype/StillImage"/>
        <cc:license rdf:resource="http://creativecommons.org/licenses/publicdomain/"/>
        <dc:publisher>
          <cc:Agent rdf:about="http://openclipart.org/">
            <dc:title>Openclipart</dc:title>
          </cc:Agent>
        </dc:publisher>
      </cc:Work>
      <cc:License rdf:about="http://creativecommons.org/licenses/publicdomain/">
        <cc:permits rdf:resource="http://creativecommons.org/ns#Reproduction"/>
        <cc:permits rdf:resource="http://creativecommons.org/ns#Distribution"/>
        <cc:permits rdf:resource="http://creativecommons.org/ns#DerivativeWorks"/>
      </cc:License>
    </rdf:RDF>
  </metadata>
</svg>
