<?xml version="1.0"?>
<svg xmlns:rdf="http://www.w3.org/1999/02/22-rdf-syntax-ns#" xmlns="http://www.w3.org/2000/svg" xmlns:cc="http://creativecommons.org/ns#" xmlns:dc="http://purl.org/dc/elements/1.1/" xmlns:svg="http://www.w3.org/2000/svg" id="svg589" height="140mm" width="280mm">
  <rect id="rect603" fill-rule="evenodd" height="496" width="280mm" y="0" x="0" stroke-width="1pt" fill="#c00"/>
  <path id="path604" d="m664.21 208.22l158.59-0.02 0.03 44.72c-3.23 48.49-40.83 87.99-79.51 105.57-35.33-17.24-74.22-53.98-79.08-103.6l-0.03-46.67z" fill-rule="evenodd" stroke="#fedd00" stroke-width="3.5433" fill="#016a28"/>
  <path id="path626" d="m796.94 259.17c0.12 0.74 0.1-8.72 1.41-12.64 1.13-3.39 6.06-8.24 5.9-9.28-0.12-0.74-6.01 1.73-6.74 3.94-1.7 5.09-0.73 16.94-0.57 17.98z" fill="#4a0f00" fill-rule="evenodd"/>
  <path id="path625" d="m774.74 273.78c0 0.28 11.81 12.65 11.81 12.65 1.5 3.09 3.11 5.73 4.23 8.49 0.44 0.14 5.32 0.22 5.32-0.06s-7.87-14.05-7.87-14.05c-0.65-9.18 0.66-19.23-1.96-27.54-1.4-4.43-10.71-12.54-11.94-10.35-2.61 4.65 0.6 20.74 0.41 30.86z" fill-rule="evenodd" stroke="#4a0f00" stroke-width=".70866" fill="#febb30"/>
  <g id="g593" transform="matrix(.49606 0 0 .49606 0 -.000015259)">
    <g id="g578" stroke-width="1pt" transform="scale(16.667)">
      <rect id="rect124" height="30" width="60" y="0" x="0" fill="#006"/>
      <g id="g584">
        <path id="path146" fill="#fff" d="m0 0v3.3541l53.292 26.646h6.708v-3.354l-53.292-26.646h-6.708zm60 0v3.354l-53.292 26.646h-6.708v-3.354l53.292-26.646h6.708z"/>
        <path id="path136" fill="#fff" d="m25 0v30h10v-30h-10zm-25 10v10h60v-10h-60z"/>
        <path id="path141" fill="#c00" d="m0 12v6h60v-6h-60zm27-12v30h6v-30h-6z"/>
        <path id="path150" fill="#c00" d="m0 30l20-10h4.472l-20 10h-4.472zm0-30l20 10h-4.472l-15.528-7.7639v-2.2361zm35.528 10l20-10h4.472l-20 10h-4.472zm24.472 20l-20-10h4.472l15.528 7.764v2.236z"/>
      </g>
    </g>
  </g>
  <rect id="rect608" fill-rule="evenodd" height="20.921" width="66.016" y="142.72" x="755.03" stroke-width="1pt" fill="#fff"/>
  <rect id="rect607" fill-rule="evenodd" height="21.077" width="66.805" y="142.72" x="665.95" stroke-width="1pt" fill="#fff"/>
  <rect id="rect606" fill-rule="evenodd" height="20.843" width="66.493" y="185.56" x="665.96" stroke-width="1pt" fill="#fff"/>
  <rect id="rect609" fill-rule="evenodd" height="20.218" width="66.033" y="186.22" x="755.03" stroke-width="1pt" fill="#fff"/>
  <rect id="rect613" height="67.191" width="158.6" stroke="#fedd00" y="140.97" x="664.2" stroke-width="3.5372" fill="none"/>
  <path id="path656" d="m702.45 286.76c5.75-0.27 28.2 5.31 45.96 8.12 10.48-0.07 23.27 2.38 34.35 1.92 8.06-0.14 15.78 0.45 23.28 2.62-18.21 28.08-33.34 42.01-62.72 57.26-42.56-24.98-53.55-42.61-64.61-61.5 7.74-2.98 11.35-7.83 23.74-8.42z" fill="#01289a" fill-rule="evenodd"/>
  <path id="path657" d="m748.88 301.54c0.49-1.15 32.62 2.94 44.18 3.94 2 0.27-4.35 3.26-3.36 6.78-4.56-2.92-41.28-9.61-40.82-10.72zm-47.53 9.82c-1.56 4.21 37.07 17.81 53.86 22.22 3.59-5.29 14.57-7.77 19.69-9.61 1.26-2.43-6.39-8.15-9.86-9.38-1.82-0.63-3.84 3.85-6 3.8-4.07-0.09-5.76-3.39-12.45-3.69-0.59-0.03 8 3.8 8.48 4.83 0.3 0.65-5.31-1.03-6.4-0.31-0.68 0.45 2.16 3.99 1.09 3.83-7.74-1.18-27.51-8.89-27.53-7.85 0.2 3.39 24.21 7.86 22.07 10.5-3.31 3.68-42.28-16.25-42.95-14.34zm36.68 23.77c-6.99-1.45-20.71-7.89-24.28-8.01-1.68-0.06 7.27 5.04 8.53 7.49 0.38 0.74-2.66 1.26-3.62 0.77-1.62-0.8-2.76-3.1-4.13-4.64 0 0 0 2.58-0.26 2.58s-4.65-1.04-7.75-2.33c-8.87-6.63-18.87-21.82-24.28-29.96-0.7-2.89 14.75 0.51 17.56 2.32 10.54 0.94 21.35-0.35 31.78 1.29 16.35 2.58 44.7 9.02 48.3 11.11 2.32 1.41-8.56-0.97-8.52 0 0.05 1.27 7.04 6.92 9.04 6.98 1.18 0.03 0.21-4.39 1.55-5.17 1.76-1.03 8.66 1.66 7.75-0.26-1.52-3.73-28.92-8.28-47.27-13.95-10.99-3.44-28.56-1.95-38.49-3.87-1.17-0.23 0.06-3.8 1.29-3.88 7.81-0.52 23.4 0.36 25.83 2.07 6.61-2.31 43.84 0.94 65.61 2.32 2.69 0.17 8.89 0.51 7.75 2.33-7.13 12.56-19.94 25.58-28.67 33.32-2.81 2.16-10.66-1.61-12.92-1.29-0.76 0.11 1.55 2.84 2.33 3.88 0 0-15.24-3.36-15.24-3.1 0 0.25 9.81 5.16 9.81 5.16-1.89 0.17-5.48-0.94-6.45-0.25-0.5 0.34 1.63 2.23 1.29 2.58-0.43 0.43-4.03-0.67-3.62-0.26 1.05 1.05 8.88 3.11 8.01 4.65-1.71 3.02-12.83 8.09-15.5 9.3-2.04-0.84-23.77-13.69-23.51-13.69 7.23-0.52 20.15-0.52 20.15-0.52 1.81-1.55 5.7-3.08 5.43-4.65-0.38-2.17-5.62-6.05-7.37-6.59-0.75-0.23 1.02 4.5-0.13 4.27z" fill="#536383" fill-rule="evenodd"/>
  <path id="path658" d="m690.17 257.82c0 5.64 3.06 6.38 4.47 7.82 2.89 2.95 6.66 4.45 8.78 8 2.98 5.32 6.7 3.62 7.49 6.46 1.16-1.53 0.97-4.09-3.1-7.49 3.23-0.18 7.39 4.27 7.23 6.46 2.37-1.95 0.39-7.89 0-11.11-0.14-1.06 2.06 2.65 4.65 2.59 0.59 5.89 5.13 9.02 10.34 10.07 2.65 4.26 9.49 9.01 11.36 7.23 0.65-0.43-4.74-1.79-3.76-3.21 1.25-1.18 2.94 1.37 5.76 0.06-3.2-2-2.84-3.78-2.77-6.15 1.13 1.7 4.8 1.78 5.42 1.29-1.87-0.51-2.61-2.15-2.06-3.87 5.42-0.49 7.93-3.55 11.1-7.49 1.84 0.26 18.04 3.03 18.98 4.46 0.51 1.37 8.25 6.11 9.04 6.57-0.29-0.91-1.63-3.03-1.23-3.34 0.38-0.3 1.55 1.41 3.16 2.72-1.03-2.82-1.5-6.89-0.97-7.05 0.39 1.23 2.66 3.47 3.81 5.56 0-4.27 0.47-16.84-1.21-21.12-0.74-2.38-27.87-16.69-42.43-23.97-5.94-2.97-11.39-5.83-17.56-6.2-4.75-0.02-9.7 1.97-13.69 4.14-6.17 3.34-12.21 7.19-17.83 11.36-2.04 1.52-4.78 3.34-5.43 5.62-0.9 3.15-1.25 7.39 0.45 10.59z" fill="#4a0f00" fill-rule="evenodd"/>
  <path id="path647" d="m698.5 271.53c-1.24-1.28 3.87-3.34 6.6-8.74 4.39 5.21-4.5 10.65-6.6 8.74z" fill-rule="evenodd" stroke="#000" stroke-width=".35433" fill="#dc6207"/>
  <path id="path638" d="m692.97 258.61s0.56 6.74 3.09 7.87c0 2.53 0 3.37 0.28 3.37 5.34 0.28 8.71-6.18 8.71-6.18 2.25 5.52-5.27 7.17-5.05 8.15 5.49 4.36 4.12-2.06 6.18-3.09 6.74 0.56 2.38-5.84 3.32-5.51 2.1-0.16 6.21-3.17 4.26-9.39-1.68-2.04-7.86 3.09-8.71 5.34 1.39-2.87-2.53-5.34-1.68-5.34 1.97 0.85-2.53-0.28-3.37 0.57-2.35 1.4-4.69 2.8-7.03 4.21z" fill-rule="evenodd" stroke="#4a0f00" stroke-width=".70866" fill="#febb30"/>
  <path id="path659" d="m711.75 230.59c-0.54 0.03-8.29 5.22-9.47 5.91-2.49 1.2-12.36 5.66-13.8 8.29-1.86 3.09-2.39 8.22-1.06 10.78 1.73 2.94 5.7 1.52 7.1 2.76 2.79 2.59 5.26-1.79 5.66-3.68-0.13-3.12-1.9-8.88-2.9-12.36 1.96 0.67 4.86 2.56 6.97 1.97 0.61-0.06-1-2.8-0.39-2.63 2.63 0.75 7.31 4.77 10.12 5.39 1.43 0.18-0.38-2.92 0.14-2.63 1.94 1.11 5.29 4.23 7.23 6.84-4.44 0.68 3.44 5.56 3.02 6.97-0.28 0.95-3.91-4.02-5.13 0.13-2.09 4.35 3.12 7.14 2.76 8.29-0.21 0.69-4.34-4.44-4.47-2.77 0 4.68 9.72 15.44 16.97 14.73 1.28-0.06-1.83-5.66-0.92-5.92 1.28-0.36 7.37 10.64 8.28 4.08 0.62-2.42-3.07-7.79-2.89-11.18 0.96-0.29 12.06 4.42 14.59-5.39-0.52 5.78 2.68 12.4 6.31 13.94-0.04 3.94 3.49 5.85 3.29 8.81-0.15 2.34-3.23 4.26-4.21 6.57-0.42 1.02 0.41 2.41 0 3.42-0.64 1.62-3.87 2.64-3.94 4.47-0.03 0.77 4.33 1.95 5.39 1.45 1.35-0.72-0.53-2.06 0.13-2.63 1.6-1.47 8.03-7.44 9.86-10.78 0.71-1.3-1.67-2.21-1.57-4.74 0.16-4.12 8.63-7.36 10.25-15.38 0.64-3.08 1.01-6.7 0.27-9.73-0.88-3.55-5.39-10.14-5.13-9.99 5.47 3.04 5.67 24.08 14.72 23.66 8.11-0.37 8.26-10.9 7.76-16.96-0.64-8.59 1.8-5.3 1.32-10.52 0 0-7.63 1.58-7.5 7.76 0.08 3.68 2.37 5.52 2.63 9.07-0.39 5.29-2.92 6.95-4.21 6.45-1.95-0.77-3.67-6.84-5.52-10.26-2.01-3.73-2.99-8.66-6.05-11.18-3.39-2.78-8.58-4.84-13.28-4.73-6.04 0.53-9.93-0.92-15.12-4.21-1.33-0.82-4.64-1.38-4.6-0.92 0.05 0.64 5.75 4.37 4.86 4.21-2.05-0.37-9.49-4.81-13.67-5.79-0.73-0.16-0.52 2.5-1.05 2.37-1.05-0.26-2.46-2.37-3.68-3.55 0 0-0.66 5.66-0.66 5.39 0-0.26-3.68-5.26-3.68-5.26-0.49 1.27-0.61 3.61-1.45 3.82-0.96 0.23-2.99-2.91-3.95-2.5-0.73 0.39 1.53 3.73 0.79 3.55-2.49-0.86-8.54-5.5-10.12-5.39z" fill-rule="evenodd" stroke="#3a1400" stroke-width=".70866" fill="#febb30"/>
  <path id="path661" d="m729.76 280.82c-0.4 4.43 0.57 7.57-1.31 9.59-0.6 0.7 0.83 2.17 0.13 2.77-1.22 0.92-4 3.52 0.92 3.41 4.68-0.1 4-2.74 3.55-4.07-0.65-2.07 0.83-5.92 0.13-8.42-0.39-1.4-3.34-4.14-3.42-3.28z" fill-rule="evenodd" transform="translate(0 -.000015259)" stroke="#4a0f00" stroke-width=".70866" fill="#febb30"/>
  <path id="path660" d="m737.92 287.52c0.77 1.36 0.43 3.33 0.65 5 0 0-0.65 0.52-0.65 0.79 0 0.26 0.52 0.26 0.78 1.84 0.18 1.91-2.1 3.42-4.6 2.89-0.92-0.15-2.76 0.51-2.76-0.52 0-2.24 2.71-3.7 2.63-5-0.11-1.66-1.45-1.45-1.45-3.02 0-1.95 0.22-5.17 1.19-5.53 0.91-0.34 3.36 2.07 4.21 3.55z" fill-rule="evenodd" stroke="#4a0f00" stroke-width=".70866" fill="#febb30"/>
  <path id="path627" d="m726.13 238.1c0.84 0.84 10.68 16.01 10.68 16.01-0.85-0.28-1.69-0.56-2.53-0.84 1.59 2.34 3.18 4.68 4.78 7.03-1.6 0.56-6-5.62-9-8.44 0.66 4.03-5.43-4.3-8.15-6.46 1.78 0.56 3.56 1.13 5.34 1.69-2.06-1.97-4.12-3.94-6.18-5.9 2.16 0.75 4.31 1.5 6.47 2.25l-1.41-5.34z" fill="#4a0f00" fill-rule="evenodd"/>
  <path id="path628" d="m753.67 253.55c-0.85-7.31 3.93-10.68 5.62-10.96 0.55-0.08 2.53 3.37 2.53 3.37-5.81-0.56-7.71 11.28-8.15 7.59z" fill="#4a0f00" fill-rule="evenodd"/>
  <path id="path629" d="m693.81 242.59c-3.58 3.03-5.52 7.21-4.49 12.37 0 0 2.81-0.56 3.09-0.56s3.37 2.52 3.37 2.52 1.06-5.79 0.84-5.62c-1.4 1.41-7.75-1.43-2.81-8.71z" fill="#4a0f00" fill-rule="evenodd"/>
  <path id="path630" d="m708.99 235c4.87 1.22 6.65 3 8.71 5.34" stroke="#480f00" stroke-width="1.2402" fill="none"/>
  <path id="path631" d="m711.52 232.2c3.84 1.31 6.27 3.18 8.71 5.9" transform="translate(0 -.000015259)" stroke="#4a0f00" stroke-width="1.2402" fill="none"/>
  <path id="path632" d="m771.37 258.61c0.28 3.61-4.83 13.78-5.93 15.91-0.46 0.76-0.95-0.55-1.66-2.98" stroke="#4a0f00" stroke-width="1pt" fill="none"/>
  <path id="path633" d="m775.59 261.42c-2.81 4.87-3.37 8.62-7.59 11.24" stroke="#4a0f00" stroke-width="1.2402" fill="none"/>
  <path id="path634" d="m766.03 282.21v0.29" stroke="#000" stroke-width="1pt" fill="none"/>
  <path id="path635" d="m760.69 292.89c0-3.46 5.91-4.12 5.06-10.39" stroke="#4a0f00" stroke-width="1.2402" fill="none"/>
  <path id="path636" d="m728.1 235.29c-1.26 3.92 8.99 20.79 14.33 23.32 1.28 0.57-0.84-6.7 0.84-6.75 1.99-0.06 3.93 6.47 5.62 4.5 1.71-1.71 3.37-5.06 3.93-5.62 0.57-0.56 2.25-7.3 2.25-7.3s-5.62-0.29-5.9-0.29-6.46-5.9-6.46-5.9c0.37 1.78 1.79 4.9 1.12 5.34-2.58 1.51-6.21-6.12-7.87-6.18-0.97-0.03 0.95 6.03 0 5.9-1.68-0.24-7.47-8.6-7.86-7.02z" fill="#fee5a3" fill-rule="evenodd"/>
  <path id="path637" d="m757.32 248.49c-3.55 4.79 0.44 16.26 3.09 18.55 2.67 2.83-3.37-13.68-0.84-12.08 3.65 2.2 2.75 3.87 4.78 6.18 3.46 4.58 7.56-0.28 7.02-7.31-0.27-3.41-10.93-7.42-10.68-7.3 2.81 1.12-1.43-0.27-3.37 1.96z" fill="#fee5a3" fill-rule="evenodd"/>
  <path id="path639" d="m703.09 253.55c0.77-1.68 1.84-9.67-6.47-11.52 5.5 8.78 1.42 8.26 3.1 11.24 0.48 0.86 3.02 1.03 3.37 0.28z" fill-rule="evenodd" stroke="#4a0f00" stroke-width=".70866" fill="#feffff"/>
  <path id="path640" d="m695.5 260.02v-0.29" stroke="#000" stroke-width="1pt" fill="none"/>
  <path id="path641" d="m703.37 258.61c-1.69 3.37-4.78 2.81-8.43 1.69" stroke="#4a0f00" stroke-width=".70866" fill="none"/>
  <path id="path642" d="m695.22 261.14h0.28" stroke="#000" stroke-width="1pt" fill="none"/>
  <path id="path643" d="m696.62 266.48c-0.56-0.8 2.53-0.75 1.97-1.55-1.69-0.79-1.41-3.28-4.21-4.35" stroke="#4a0f00" stroke-width=".70866" fill="none"/>
  <path id="path644" d="m791.02 295.14h4.8s0.28 5.06 0 5.06-7.31-0.28-7.31-0.28 2.23-4.78 2.51-4.78z" fill-rule="evenodd"/>
  <path id="path645" d="m775.72 252.88c5.26 3.74 3.52 17.14-6.08 23.5-1.36 1.02-1.28 7.01-1.87 6.78-0.78-0.26-1.39-4.37 0.35-9.12 4.57-4.37 10.24-10.16 7.6-21.16z" fill="#fee5a3" fill-rule="evenodd"/>
  <path id="path646" d="m706.92 259.98c-0.3-0.82 3.32-4.86 4.62-4.28 1.82 0.88 0.51 3.75-0.33 4.45-0.76 0.62-3.92 1.35-4.29-0.17z" fill="#490f00" fill-rule="evenodd"/>
  <metadata>
    <rdf:RDF>
      <cc:Work>
        <dc:format>image/svg+xml</dc:format>
        <dc:type rdf:resource="http://purl.org/dc/dcmitype/StillImage"/>
        <cc:license rdf:resource="http://creativecommons.org/licenses/publicdomain/"/>
        <dc:publisher>
          <cc:Agent rdf:about="http://openclipart.org/">
            <dc:title>Openclipart</dc:title>
          </cc:Agent>
        </dc:publisher>
        <dc:title>Flag of Manitoba, Canada</dc:title>
        <dc:date>2009-04-10T09:16:29</dc:date>
        <dc:description>america, america, canada, canada, clip art, clipart, externalsource, flag, flag, image, manitoba, manitoba, media, north america, north america, png, probince, probince, public domain, region, region, sign, sign, svg, symbol, symbol, wikimedia commons, wikimedia commons, </dc:description>
        <dc:source>http://openclipart.org/detail/24399/flag-of-manitoba-canada-by-anonymous</dc:source>
        <dc:creator>
          <cc:Agent>
            <dc:title>Anonymous</dc:title>
          </cc:Agent>
        </dc:creator>
        <dc:subject>
          <rdf:Bag>
            <rdf:li>america</rdf:li>
            <rdf:li>canada</rdf:li>
            <rdf:li>clip art</rdf:li>
            <rdf:li>clipart</rdf:li>
            <rdf:li>externalsource</rdf:li>
            <rdf:li>flag</rdf:li>
            <rdf:li>image</rdf:li>
            <rdf:li>manitoba</rdf:li>
            <rdf:li>media</rdf:li>
            <rdf:li>north america</rdf:li>
            <rdf:li>png</rdf:li>
            <rdf:li>probince</rdf:li>
            <rdf:li>public domain</rdf:li>
            <rdf:li>region</rdf:li>
            <rdf:li>sign</rdf:li>
            <rdf:li>svg</rdf:li>
            <rdf:li>symbol</rdf:li>
            <rdf:li>wikimedia commons</rdf:li>
          </rdf:Bag>
        </dc:subject>
      </cc:Work>
      <cc:License rdf:about="http://creativecommons.org/licenses/publicdomain/">
        <cc:permits rdf:resource="http://creativecommons.org/ns#Reproduction"/>
        <cc:permits rdf:resource="http://creativecommons.org/ns#Distribution"/>
        <cc:permits rdf:resource="http://creativecommons.org/ns#DerivativeWorks"/>
      </cc:License>
    </rdf:RDF>
  </metadata>
</svg>
