<?xml version="1.0"?>
<svg xmlns:rdf="http://www.w3.org/1999/02/22-rdf-syntax-ns#" xmlns="http://www.w3.org/2000/svg" xmlns:cc="http://web.resource.org/cc/" xmlns:xlink="http://www.w3.org/1999/xlink" xmlns:dc="http://purl.org/dc/elements/1.1/" xmlns:svg="http://www.w3.org/2000/svg" id="svg562" viewBox="0 0 793.7 496.06" version="1.0" y="0" x="0">
  <rect id="rect624" fill-rule="evenodd" height="496.06" width="793.7" y=".00010049" x="0" fill="#ffd100"/>
  <path id="path829" d="m0 425.2c33.071 0 66.142 17.71 99.212 17.71 33.068 0 66.138-17.71 99.218-17.71 33.07 0 66.14 17.71 99.21 17.71s66.14-17.71 99.21-17.71 66.14 17.71 99.21 17.71 66.15-17.71 99.22-17.71 66.14 17.71 99.21 17.71 66.14-17.71 99.21-17.71v70.86h-793.7v-70.86z" stroke-width="1.677" fill="#fff" fill-rule="evenodd"/>
  <g id="g738" transform="matrix(1.1739 0 0 1.1001 -63.763 -22.12)">
    <path id="path667" d="m178.3 210.11c23.41-6.4 38.08-6.95 53.69-7.41 15.6-0.47 25.6 3.7 40.67 2.69 15.08-1.01-25.77-22.57 3.26-22.9 29.03-0.34 36.81 14.32 55.86 13.47s-4.79-10.11-4.34-15.16 17.36-6.4 35.79-6.06c18.44 0.34 25.41 4.38 26.58 4.38s1.08 7.74 1.08 7.74-17.42-6.73-28.74-7.07-21.68 0-22.24 1.35c-0.55 1.35 10.78 4.98 10.85 14.82 0.07 9.83-16.64 8.55-25.49 7.41s-45.37-15.83-47.18-14.48c-1.82 1.34 18.71 15.03 2.71 19.53s-34.68-2.96-50.41-2.63c-34.41 0-52.09 4.65-52.09 4.32z" fill="#dc0000" transform="translate(11.846 -.000015259)" fill-rule="evenodd"/>
    <rect id="rect603" fill-rule="evenodd" transform="matrix(.99126 -.13194 .12781 .99180 11.846 -.000015259)" height="3.8079" width="194.94" y="249.53" x="263.11"/>
    <rect id="rect607" fill-rule="evenodd" transform="translate(11.846 -.000015259)" height="186.63" width="7.4955" y="174.69" x="387.15"/>
    <rect id="rect609" fill-rule="evenodd" ry="1.9044" transform="translate(11.846 -.000015259)" width="14.991" y="174.69" x="383.4" height="3.8089"/>
    <path id="path577" d="m293.45 338.47v10.22c0 6.35 7.03 12.7 14.06 12.7h163.02c7.03 0 14.06-5.14 14.06-11.49 0-3.81-1.74-7.62-3.75-11.43h89.95l-3.75 3.81h-78.7v7.68c0 7.62-7.5 15.24-14.99 15.24h-168.65c-7.5 0-14.99-7.62-14.99-15.24v-11.49h3.74z" stroke-width=".88388" transform="translate(11.846 -.000015259)" fill-rule="evenodd"/>
    <path id="path581" d="m499.58 346.09v7.68c0 11.43-8.9 22.86-17.8 22.86h-185.51c-8.91 0-17.81-11.43-17.81-22.86v-15.3h7.5v12.76c0 8.89 7.96 17.78 15.93 17.78h174.27c7.96 0 15.92-8.89 15.92-17.78v-5.14h7.5z" stroke-width="1.3346" transform="translate(11.846 -.000015259)" fill-rule="evenodd"/>
    <path id="path584" d="m503.33 346.09v8.95c0 12.7-9.37 25.39-18.74 25.39h-191.14c-9.36 0-18.73-12.69-18.73-25.39v-16.57h-7.5v19.11c0 15.24 10.31 30.47 20.61 30.47h202.38c10.31 0 20.61-15.23 20.61-30.47v-11.49h-7.49z" stroke-width="1.4434" transform="translate(11.846 -.000015259)" fill-rule="evenodd"/>
    <path id="path588" d="m255.98 338.47v22.92c0 19.04 11.71 38.09 23.42 38.09h219.24c11.71 0 23.43-19.05 23.43-38.09v-15.3h-7.5v12.76c0 16.51-10.77 33.01-21.55 33.01h-208c-10.77 0-21.55-16.5-21.55-33.01v-20.38h-7.49z" stroke-width="1.9764" transform="translate(11.846 -.000015259)" fill-rule="evenodd"/>
    <path id="path589" d="m244.73 338.47v30.54c0 24.12 16.63 41.89 29.99 41.89h228.61c13.35 0 29.98-21.58 29.98-45.7v-19.11h-7.5v15.3c0 20.91-13.95 41.9-26.23 41.9h-221.12c-12.28 0-26.23-17.19-26.23-38.09v-26.73h-7.5z" stroke-width="2.375" transform="translate(11.846 -.000015259)" fill-rule="evenodd"/>
    <path id="path570" fill-rule="evenodd" transform="translate(11.846 -.000015259)" d="m240.99 338.47c0 7.56 0.62 16.08 0.31 34.73-0.31 14.79 17.98 42.43 29.44 41.97 11.47-0.46 226.15-0.55 228.84-0.46 11.24 0 14.99-3.81 18.74-7.61-3.75 7.61-22.49 15.23-29.98 15.23-20.11 0.03-224.87 0-232.36 0l-37.48-83.86h22.49z"/>
    <path id="path571" fill-rule="evenodd" transform="translate(11.846 -.000015259)" d="m537.06 346.09v22.85c0 2.2-0.53 4.78-1.48 7.69 5.73-7.62 8.97-19.11 8.97-30.54h-7.49z"/>
    <path id="path580" fill-rule="evenodd" transform="translate(11.846 -.000015259)" d="m238 391.8l14.23 30.47h-18.98l4.75-30.47z"/>
    <path id="path582" fill-rule="evenodd" transform="translate(11.846 -.000015259)" d="m228.51 422.27s7.4-24.5 7.01-39.12c0-11.33-23.73-14.21-31.4-29.44 9.49 1.82 16.26-0.22 18.52-0.37l-2.26-4.13c-0.96 0-18.08 4.5-22.83-3.12 1.82 22.85 32.25 25.66 33.23 36.99 0.97 11.33-7.02 39.19-7.02 39.19h4.75z"/>
    <path id="path587" fill-rule="evenodd" transform="translate(11.846 -.000015259)" d="m201.31 315.62l8.62 15.23h-4.31v3.81h99.08v-3.81h-8.62v-15.23h-94.77zm17.23 15.23c0-5.41 5.43-9.87 10.25-9.87 5.22 0 10.26 4.63 10.26 9.87h-6.84c0-1.73-1.39-3.29-3.42-3.29-2.02 0-3.41 1.79-3.41 3.29h-6.84zm26.37 0c0-5.41 5.42-9.87 10.25-9.87 5.21 0 10.25 4.63 10.25 9.87h-6.83c0-1.73-1.39-3.29-3.42-3.29s-3.42 1.79-3.42 3.29h-6.83zm26.36 0c0-5.41 5.43-9.87 10.25-9.87 5.22 0 10.25 4.63 10.25 9.87h-6.83c0-1.73-1.39-3.29-3.42-3.29s-3.42 1.79-3.42 3.29h-6.83z"/>
    <path id="path590" fill-rule="evenodd" transform="translate(11.846 -.000015259)" d="m507.57 330.85c0-5.41-6.17-9.87-11.65-9.87-5.92 0-11.64 4.63-11.64 9.87h7.76c0-1.73 1.58-3.29 3.88-3.29 2.31 0 3.89 1.79 3.89 3.29h7.76zm29.95 0c0-5.41-6.17-9.87-11.65-9.87-5.92 0-11.64 4.63-11.64 9.87h7.76c0-1.73 1.58-3.29 3.88-3.29 2.31 0 3.88 1.79 3.88 3.29h7.77zm29.95 0c0-5.41-6.17-9.87-11.65-9.87-5.92 0-11.65 4.63-11.65 9.87h7.77c0-1.73 1.58-3.29 3.88-3.29s3.88 1.79 3.88 3.29h7.77zm14.68-15.23l-9.79 15.23h4.89v3.81h-107.65v-3.81h9.78v-15.23h102.77z"/>
    <rect id="rect600" transform="translate(11.846 -.000015259)" height="3.8089" width="101.21" stroke="#000" y="311.81" x="479.74" stroke-width=".6046" fill="none"/>
    <rect id="rect601" transform="translate(11.846 -.000015259)" height="3.8089" width="101.21" stroke="#000" y="304.19" x="479.74" stroke-width=".6046" fill="none"/>
    <rect id="rect602" fill-rule="evenodd" transform="translate(11.846 -.000015259)" height="3.8089" width="110.85" y="308" x="474.92"/>
    <rect id="rect604" transform="translate(11.846 -.000015259)" height="3.8089" width="95.737" stroke="#000" y="311.81" x="200.57" stroke-width=".58802" fill="none"/>
    <rect id="rect605" transform="translate(11.846 -.000015259)" height="3.8089" width="95.737" stroke="#000" y="304.19" x="200.57" stroke-width=".58802" fill="none"/>
    <rect id="rect606" fill-rule="evenodd" transform="translate(11.846 -.000015259)" height="3.8089" width="104.85" y="308" x="196.01"/>
    <path id="path607" d="m222.35 357.52c-4.43 1.25-6.35 1.45-11.01 0.31 5.76 7.13 11.06 6.33 18.7 13.46l-7.69-13.77z" stroke-width=".91002" transform="translate(11.846 -.000015259)" fill-rule="evenodd"/>
    <rect id="rect608" fill-rule="evenodd" transform="translate(11.846 -.000015259)" height="68.56" width="7.4955" y="235.63" x="255.98"/>
    <path id="path610" fill-rule="evenodd" transform="translate(11.846 -.000015259)" d="m255.98 269.91l-7.5 34.28h3.75l7.49-34.28h-3.74z"/>
    <path id="path611" fill-rule="evenodd" transform="translate(11.846 -.000015259)" d="m263.47 269.91l7.5 34.28h-3.75l-7.5-34.28h3.75z"/>
    <path id="path604" d="m293.45 216.59c29.99 57.13 71.21 118.07 133.31 146.92" transform="translate(11.846 -.000015259)" stroke="#000" stroke-width="1.875" fill="none"/>
    <path id="path605" d="m394.64 193.73l123.68 106.65" transform="translate(11.846 -.000015259)" stroke="#000" stroke-width="1.875" fill="none"/>
    <rect id="rect614" fill-rule="evenodd" transform="translate(11.846 -.000015259)" height="68.56" width="7.4955" y="235.63" x="525.81"/>
    <path id="path615" fill-rule="evenodd" transform="translate(11.846 -.000015259)" d="m525.81 269.91l-7.49 34.28h3.75l7.49-34.28h-3.75z"/>
    <path id="path616" fill-rule="evenodd" transform="translate(11.846 -.000015259)" d="m533.31 269.91l7.49 34.28h-3.74l-7.5-34.28h3.75z"/>
    <path id="path618" d="m484.59 242.4v23.7c3.43 0 6.87-2.96 10.31-2.96 3.43 0 6.87 2.96 10.3 2.96 3.44 0 6.87-2.96 10.31-2.96 3.43 0 6.87 2.96 10.3 2.96v-23.7c-3.43 0-6.87-2.96-10.3-2.96-3.44 0-6.87 2.96-10.31 2.96-3.43 0-6.87-2.96-10.3-2.96-3.44 0-6.88 2.96-10.31 2.96z" fill="#dc0000" transform="translate(11.846 -.000015259)" fill-rule="evenodd"/>
    <path id="path619" d="m214.75 242.4v23.7c3.44 0 6.87-2.96 10.31-2.96 3.43 0 6.87 2.96 10.3 2.96 3.44 0 6.88-2.96 10.31-2.96 3.44 0 6.87 2.96 10.31 2.96v-23.7c-3.44 0-6.87-2.96-10.31-2.96-3.43 0-6.87 2.96-10.31 2.96-3.43 0-6.87-2.96-10.3-2.96-3.44 0-6.87 2.96-10.31 2.96z" fill="#dc0000" transform="translate(11.846 -.000015259)" fill-rule="evenodd"/>
    <rect id="rect620" fill-rule="evenodd" transform="translate(11.846 -.000015259)" height="3.8089" width="14.991" y="231.82" x="252.23"/>
    <rect id="rect621" fill-rule="evenodd" transform="translate(11.846 -.000015259)" height="3.8089" width="14.991" y="231.82" x="522.07"/>
    <path id="path622" d="m548.3 346.09h11.24v19.04h-3.74c-3.57-0.3-3.75 3.81-3.75 7.62v19.05c0 3.81-3.75 7.61-7.5 7.61s-7.49-3.8-7.49-7.61 3.8-7.52 7.49-7.62c-1.66-3.81-5.19-3.81-7.49-3.81 7.49-7.62 8.96-21.37 11.24-34.28z" fill-rule="evenodd" transform="translate(11.846 -.000015259)" stroke="#000" stroke-width=".21326"/>
    <rect id="rect623" fill-rule="evenodd" transform="translate(11.846 -.000015259)" height="19.044" width="3.7477" y="346.09" x="563.29"/>
    <path id="path624" d="m499.82 422.72s22.25-6.25 25.99-23.31v3.81c0 11.43 7.5 7.62 7.5 19.05l-33.49 0.45z" fill-rule="evenodd" transform="translate(11.846 -.000015259)" stroke="#000" stroke-width=".21326"/>
    <path id="path625" d="m529.56 393.8l3.75-7.62c0 3.87-0.25 12.61 0 17.04 0.25 8.25 7.49 3.81 7.49 19.05h-3.74c0-11.43-7.5-11.43-7.5-19.05v-9.42z" fill-rule="evenodd" transform="translate(11.846 -.000015259)" stroke="#000" stroke-width=".21326"/>
    <path id="path614" d="m387.15 193.73l-116.18 110.46" transform="translate(11.846 -.000015259)" stroke="#000" stroke-width="1.875" fill="none"/>
    <g id="g635" stroke="#000" stroke-width="3.5179" transform="matrix(.39233 0 -.074199 .26862 315.81 95.531)" fill="none">
      <path id="path626" d="m318.9 850.39v141.74"/>
      <path id="path627" d="m336.61 850.39v141.74"/>
      <path id="path628" d="m354.33 850.39v141.74"/>
      <path id="path620" d="m318.9 974.41h35.43"/>
      <path id="path621" d="m318.9 956.69h35.43"/>
      <path id="path629" d="m318.9 938.98h35.43"/>
      <path id="path630" d="m318.9 921.26h35.43"/>
      <path id="path631" d="m318.9 903.54h35.43"/>
      <path id="path632" d="m318.9 885.83h35.43"/>
      <path id="path633" d="m318.9 868.11h35.43"/>
      <path id="path634" d="m354.33 850.39h-35.43"/>
    </g>
    <g id="g707" stroke="#000" stroke-width="3.5179" transform="matrix(-.39233 0 .074199 .26862 489.67 95.531)" fill="none">
      <path id="path656" d="m318.9 850.39v141.74"/>
      <path id="path657" d="m336.61 850.39v141.74"/>
      <path id="path658" d="m354.33 850.39v141.74"/>
      <path id="path659" d="m318.9 974.41h35.43"/>
      <path id="path660" d="m318.9 956.69h35.43"/>
      <path id="path661" d="m318.9 938.98h35.43"/>
      <path id="path662" d="m318.9 921.26h35.43"/>
      <path id="path663" d="m318.9 903.54h35.43"/>
      <path id="path664" d="m318.9 885.83h35.43"/>
      <path id="path665" d="m318.9 868.11h35.43"/>
      <path id="path666" d="m354.33 850.39h-35.43"/>
    </g>
    <path id="path600" d="m322 212.78c-13.55 15.23-17.3 32.14-17.3 57.13 0 24.76 11.24 53.33 37.48 91.42 3.74-19.05 29.85-30.48 48.72-30.48 19.85 0 48.72 15.24 67.45 30.48-14.99-25.02-20.33-63.49-20.33-91.42s3.1-53.32 20.33-76.18c-5.68 0.8-13.05 8.73-18.73 9.53-5.69 0.79-11.25-1.91-15.35-4.76-3.39 2.85-13.06 8.72-18.74 9.52-5.68 0.79-12.32-2.86-15.35-4.76-4.47 1.9-12.34 7.77-18.02 8.57-5.68 0.79-11.25-2.86-16.07-3.81-4.25 2.98-12.34 7.77-18.02 8.57-5.68 0.79-10.89-1.69-16.07-3.81z" fill-rule="evenodd" transform="translate(11.846 -.000015259)" stroke="#000" stroke-width="1.875" fill="#fff"/>
    <path id="path608" d="m484.59 189.93c-3.75 72.36-71.21 144.73-142.41 171.4" transform="translate(11.846 -.000015259)" stroke="#000" stroke-width="1.875" fill="none"/>
    <path id="path623" d="m390.9 196.56c6.91 0 12.68 0.98 12.68 0.98l2.31-8.85c-1.16-0.44-3.46-0.98-4.62-0.98l-1.15 4.42-4.61-0.49-0.17-4.89c0.17-0.03-2.14-0.63-4.44-0.63-2.31 0-4.62 0.6-4.45 0.63l-0.17 4.89-4.61 0.49-1.15-4.42c-1.16 0-3.46 0.54-4.62 0.98l2.31 8.85s5.77-0.98 12.69-0.98z" fill-rule="evenodd" transform="translate(11.846 -.000015259)" stroke="#000" stroke-width="1.3059" fill="#ffd100"/>
    <ellipse id="path668" fill-rule="evenodd" rx="39.433" ry="35.433" transform="matrix(.29301 0 0 .28961 263.69 194.33)" cy="673.23" cx="332.61" fill="#ffd100"/>
    <ellipse id="path669" fill-rule="evenodd" rx="39.433" ry="35.433" transform="matrix(.17581 0 0 .17377 302.67 272.33)" cy="673.23" cx="332.61"/>
    <ellipse id="path641" fill-rule="evenodd" rx="39.433" ry="35.433" transform="matrix(.29301 0 0 .28961 291.42 194.33)" cy="673.23" cx="332.61" fill="#ffd100"/>
    <ellipse id="path642" fill-rule="evenodd" rx="39.433" ry="35.433" transform="matrix(.17581 0 0 .17377 330.4 272.33)" cy="673.23" cx="332.61"/>
    <ellipse id="path643" fill-rule="evenodd" rx="39.433" ry="35.433" transform="matrix(.29301 0 0 .28961 319.15 194.33)" cy="673.23" cx="332.61" fill="#ffd100"/>
    <ellipse id="path644" fill-rule="evenodd" rx="39.433" ry="35.433" transform="matrix(.17581 0 0 .17377 358.13 272.33)" cy="673.23" cx="332.61"/>
    <ellipse id="path645" fill-rule="evenodd" rx="39.433" ry="35.433" transform="matrix(.29301 0 0 .28961 346.88 194.33)" cy="673.23" cx="332.61" fill="#ffd100"/>
    <ellipse id="path646" fill-rule="evenodd" rx="39.433" ry="35.433" transform="matrix(.17581 0 0 .17377 385.86 272.33)" cy="673.23" cx="332.61"/>
  </g>
  <path id="path902" d="m0 425.2c33.071 0 66.142 17.71 99.212 17.71 33.068 0 66.138-17.71 99.218-17.71 33.07 0 66.14 17.71 99.21 17.71s66.14-17.71 99.21-17.71 66.14 17.71 99.21 17.71 66.15-17.71 99.22-17.71 66.14 17.71 99.21 17.71 66.14-17.71 99.21-17.71v17.71c-33.07 0-66.14 17.72-99.21 17.72s-66.14-17.72-99.21-17.72-66.15 17.72-99.22 17.72-66.14-17.72-99.21-17.72-66.14 17.72-99.21 17.72-66.14-17.72-99.21-17.72c-33.08 0-66.15 17.72-99.218 17.72-33.07 0-66.141-17.72-99.212-17.72v-17.71z" stroke-width="1.677" fill="#2640a4" fill-rule="evenodd"/>
  <g id="g821" fill-rule="evenodd" transform="matrix(1.162 0 0 .82778 -56.137 86.816)" stroke="#000" stroke-width="1.5535" fill="#ffd100">
    <path id="path647" d="m401.58 390.27s13.2 61.12 22.31 95.97c1.3 4.98 5.02 8.58 7.45 7.2 2.42-1.37 3.54-7.73 2.24-12.71-9.11-34.85-27.15-93.21-27.15-93.21l-4.85 2.75z" transform="translate(11.846 -.000015259)"/>
    <path id="path648" d="m373.94 390.92s13.19 61.12 22.3 95.97c1.31 4.98 5.03 8.58 7.45 7.2 2.43-1.38 3.55-7.73 2.25-12.71-9.11-34.85-27.16-93.22-27.16-93.22l-4.84 2.76z" transform="translate(11.846 -.000015259)"/>
    <path id="path649" d="m346.3 390.92s13.19 61.12 22.3 95.97c1.3 4.98 5.03 8.58 7.45 7.2s3.55-7.73 2.25-12.71c-9.12-34.85-27.16-93.22-27.16-93.22l-4.84 2.76z" transform="translate(11.846 -.000015259)"/>
    <path id="path650" d="m429.64 389.62s13.2 61.13 22.31 95.98c1.3 4.97 5.03 8.58 7.45 7.2s3.54-7.74 2.24-12.72c-9.11-34.85-27.15-93.21-27.15-93.21l-4.85 2.75z" transform="translate(11.846 -.000015259)"/>
  </g>
  <path id="path903" d="m0 460.63c33.071 0 66.142 17.72 99.212 17.72 33.068 0 66.138-17.72 99.218-17.72 33.07 0 66.14 17.72 99.21 17.72s66.14-17.72 99.21-17.72 66.14 17.72 99.21 17.72 66.15-17.72 99.22-17.72 66.14 17.72 99.21 17.72 66.14-17.72 99.21-17.72v35.43h-793.7v-35.43z" stroke-width="1.677" fill="#2640a4" fill-rule="evenodd"/>
  <path id="path773" fill-rule="evenodd" fill="#dc0000" d="m0-0.00008v157.64h793.7v-157.64l-793.7-0.00008zm180.32 33.408c-1.33-0.394-5.36-2.239-8.94-2.33-2.28 2.083-3.22 3.846-3.57 7.768 0.88 3.97 2.13 5.894 3.57 8.545 1.98 2.29 0.56 3.726-1.78 4.66-1.79 2.281-4.44 3.223-6.26 5.438-3.2 0-4.84 0.361-7.15 0.777 2.96 1.029 5.98 2.078 8.94 3.107 2.16 0 6.18-0.715 4.47 0.777-0.69 1.623-1.11 5.368-1.79 6.991-3.84 0.955 1.11 1.491 3.57 1.554 2.61-2.41 1.79-0.08 1.79 3.107 0 2.4 0.23 4.913-0.89 6.214 2.76 0 4.09 0.189 6.25 0.194 1.78-2.522 4.03-6.672 4.03-9.904-0.85-3.963-1.9-13.601-2.24-17.478 3.66 0.737 6.98 1.819 8.94 3.884 0.74 1.424-0.42 4.683-1.79 6.991 1.35 3.233 3.18 4.806 7.15 5.438 4.87 0.846 4.47-0.311 4.47-4.661-0.83-2.897-2.55-1.647-2.68-5.437 2.76-1.353 5.15-1.649 7.69-0.54 2.24 1.37 3.31 2.508 4.23 4.377-1.56 1.26-3.63 1.944-5.44 2.183-1.31 0.929-1 4.849-0.23 5.632 2.99 0.865 7.74 0.865 10.73 0 1.29-2.881 0.78-4.359 1.57-6.125 2.12-0.113 8.82-1.075 10.47 0.001-2.68 1.567-5.04 3.871-7.63 6.167-2.17 2.121-4.23 3.653-6.57 5.986-1.79 1.881-2.47 6.764-2.78 10.331 1.99 0.915 5.03 1.24 8.46 0.91 0.59-1.836 0.79-2.477 0.95-4.065 2.36-0.82 4.46 0.375 6.25-0.777 0-2.4-1.02-4.638 0.11-5.939 2.56 1.368 5.18 1.804 7.3 3.562 3.42 0.318 5.41 0.03 7.84-0.549-0.73-3.326-2.39-5.89-3.63-7.172-2.07-2.528-3.8-3.756-0.89-6.214 5.38 0 6.82-0.723 9.83-2.331 1.87-3.176 2.97-5.073 3.57-8.544 0-3.128 0.03-3.108-3.57-3.108 0-3.449-0.38-5.471 1.79-6.991 0.85-3.145 2.14-5.079 2.68-8.545 0-3.162-0.02-6.467-0.9-8.544-3.54 1.025-4.62 2.542-8.93 3.107 1.32-3.33 0.51-4.661 2.23-6.797 0.83-2.933 3.95-4.561 2.68-7.574-3.94 1.5-7.14 2.4-10.95 3.301-2.33 1.937-4.85 3.893-8.04 5.826-0.91-2.628-0.62-7.148-2.07-8.876-3.49 1.526-6.4 1.137-8.3 2.099-2.77 1.142-3.96 4.085-5.94 5.806 0-3.646-0.39-7.752-1.79-10.098-4.03 0.13-7.6 0.65-10.72 1.554-2.64 0.918-4.89 0.588-5.36 3.884-1.13 1.301-1.59 0.388-5.37-0.777-2.25 2.05-3.48 3.904-4.46 7.768 0 2.066-0.36 2.961-0.9 5.437zm-21.89 32.236c0.13 0 1.3 0.717 2.68 1.165 0.33 1.227 0.7 3.16 1.34 4.272 0.49 1.199 1.99 1.509 3.13 1.942 2.37 0.061 1.68 0.506 1.34 1.942-1.21 1.328-1.86 1.623-4.03 2.331 0.62 1.971 1.37 1.824 3.13 2.718 1.79 0.552 2.1 1.577 3.13 2.719 0.1 2.296 0.71 2.537 2.68 3.107 2.23-0.109 2.48-1.391 3.13 0.389 1.19 0.858 1.61 2.142 2.23 3.495 1.43 0.979 2.33 1.73 3.58 0.389 0.48-1.259 1.06-3.268 1.34-4.661 0.81-1.073 1.96-3.505 2.68-4.661 1.27-1.58 1.6-2.169 3.13-3.495 0.28-1.129 0.49-3.223 0.89-4.273 1.57-0.51 1.45 0.207 1.79 1.942-0.16 1.894-0.82 3.841-1.79 5.049-0.67 1.825-1.25 3.359-1.34 5.438-0.08 2.012-0.72 2.943-0.89 5.049-0.24 1.55-0.45 3.07-0.45 5.049 0.15 1.737 0.45 2.986 0.45 5.05 0.07 2.17 0.96 1.62 2.23 0.39 1.38-1.359 1.27-2.297 1.79-3.886 0.93-1.774 1.71-2.217 2.23-3.884 1.44-1.383 2.11-1.843 2.24-3.884 1.13-1.056 1.14-2.064 2.46-3.204 1.4-1.733 2.23-3.243 2.45-4.952 0.3-2.165 0.74-3.603 2.68-4.273 1.33 0.289 0.9 1.037 0.9 2.331-0.25 1.588-0.39 3.089-0.78 4.563 0 1.98-0.77 3.597-1.01 5.147v5.437c0 1.2-0.11 2.457 0.45 3.107 2.26-0.482 2.01-1.288 3.13-2.33 2.58-0.541 3.09 0.03 4.46 1.165 2.1 0.13 3.77 0.462 5.37 0 0-1.019 0.12-1.835-0.45-2.33 1.41-0.41 3.75-0.389 5.81-0.389 1.6 0 3.52 0.107 4.47-0.388-0.34-1.243-1.25-0.83-1.34-2.33-0.94-2.438-0.31-3.28 2.68-3.496 2.17 0.472 3.47 0.752 5.81 0.777 1.94 0 4.05 0.01 5.36 0.388-0.09 1.401 1.54 1.416 2.23 3.107-1.48 0.752-2.38 1.139-4.91 1.166-2.58 0.027-3.01 0.258-4.02 1.553 1.87 0.355 2.19 0.294 2.23 2.331-1.72 0.599-2.97 1.073-4.47 0-2.46 0-4.18 0.014-5.36 1.165-0.82 1.008 0.65 1.509 1.79 1.942 1.2 0.637 2.57 2.217 4.02 2.717 2.81 0 3.77-0.47 4.02 1.94-0.41 1.95-1.31 2.12-3.13 3.5-1.48 0.61-2.9 0.78-5.36 0.78h-4.47c1.96 0 4.55-0.16 5.81 0.38 2.13 0.34 2.47 0.71 2.68 2.72-1.27 1.16-1.45 1.77-4.02 1.95-2.11 0.45-4.06 0.33-5.81 0-2.06 0-3.55 0.21-4.47-0.78-1.37-0.43-3.06-1.34-4.02-2.33-0.97-0.5-2.81-2.78-3.13-3.89-0.35 1.74 0.9 5.45 0.9 7.38-1.02 1.96-1.26 2.47-3.13 4.28-1.88 0.23-2.49-0.17-3.58-1.56-1.27-1.28-2.87-1.7-4.46-2.72-1.95-0.65-2.19-2.17-3.58-3.49-0.66-1.22-0.89-2.24-0.89-4.27-0.52 1.68-1.19 3.09-2.24 4.27-0.5 1.31-1.37 2.44-2.23 3.49-0.68 1.83-1 2.25-3.58 2.33-1.4-1.13-2.83-1.82-3.57-3.1-1.27-1.65-1.24-2.74-3.58-3.11-1.05-0.87-1.94-1.98-3.12-2.72-1.96-1.13-2.24-1.79-2.24-4.27 0.04-2.08 0.34-2.83-0.45-4.662-1.27-1.409-1.42 0.433-2.68 1.552-0.64 1.58-1.41 2.05-3.57 2.33-0.91-1.16-1.73-1.88-2.24-3.494-1.23-1.328-2.19-1.91-3.12-3.107-1.19-1.645-1.74-2.691-2.24-4.273v-10.875c0-1.791 0.03-3.82-0.44-5.049-0.4-1.485-0.9-3.018-0.9-5.049v-3.884 3.884c0-1.295 0-2.59 2.24-5.049zm35.3 7.865c0.13 2.621-0.68 7.247-0.67 9.71 1.82-1.917 5.04-6.484 6.48-9.419-1.49-0.288-4.32-0.291-5.81-0.291zm-57.76 22.33c-1.6-0.887-4.32 0.485-6.59 0.485-4.7-1.084-6.41-3.225-10.72-3.884-4.72-0.152-6.5-1.171-9.83-2.33-2.63-1.081-6.32-2.027-8.942-3.108-3.241-0.768-6.284-2.303-9.83-3.107-3.99-0.804-6.937-2.078-8.938-4.661 0.629-2.85 2.216-3.393 4.469-4.66 0-2.356 0.242-5.913 1.787-2.331 2.323 2.452 1.924 4.123 6.256 4.661 2.387-2.64 2.319 0.504 5.363 2.33 3.185 3.334 1.545 1.107 5.365 0 0.83 2.405 2.67 3.875 4.47 5.438 3.67 0.3 3.44 1.439 3.57-2.33 2.62-0.569 2.93 0.415 3.58 3.107 2.64 1.637 4.35 2.982 7.14 1.553-1.26-2.71-2.35-2.445-2.68-5.437 2.83 3.051 4.19 3.268 8.05 5.437 2.08 0.796 5.14 2.175 6.25 1.554-0.84-2.672-1.95-4.848-2.68-7.768 0.87 4.284 3.14 5.264 8.05 6.991 2.97 2.403 2.03 0.151 4.46-1.553 2.73 0.118 4.71 1.35 6.26 0 1.86-2.997 2.68-5.62 2.68-10.099-0.45-4.294-2.21-4.53-5.36-6.214-3.61-0.682-6.45-1.614-10.73-2.331-2.83-1.905-6.4-1.063-11.17-1.359-4.17 0-8.56-1.165-12.73-1.165-3.9-0.261-6.63-1.489-10.06-2.136-2.7-0.918-4.516-0.409-7.37-1.748 4.55 0.146 5.39-0.289 10.05 0.194 4.64 0.149 13.12 0.971 17.66 0.971 2.48 0 8.37 0.293 12.73-0.389-3.11-1.279-6.9-1.789-11.62-1.941-3.36-1.502-6.89-0.4-9.83-1.748-4.51-0.047-7.94-0.777-12.51-0.777-4.851 0-7.599-1.408-10.948-2.136-2.957-1.22-4.498-1.516-8.714-2.525-2.622-1.55-4.697-2.162-6.703-4.272-3.612-1.047-4.257-3.06-7.373-5.244-2.49-2.683-4.804-3.872-6.256-7.185-0.54-3.475-1.937-5.721-1.117-9.71 0.723-2.893 2.179-6.176 0.893-8.545-2.384 2.073-2.075 3.027-7.149 3.107-2.727 1.422-5.516 0.102-8.044-0.777-4.107 1.191-2.607 3.195 0 4.661 0.389 2.816 0.894 4.988 0.894 8.545-4.057-0.862-3.575-1.953-3.575-6.214-0.91-2.287-2.99-2.283-5.362-3.108 0-2.4-0.229-4.913 0.894-6.214 3.106-0.675 2.124-2.192-0.894-2.33-2.956-0.514-4.36 0.224-5.362 3.107-2.388 1.331-6.416 3.445-8.937 5.437 0.822 3.574 2.567 3.787 6.256 4.661 2.274 1.633 6.368 3.157 10.277 4.467 0 2.4-0.217 4.33-1.34 5.632-3.229-0.702-3.141-2.283-6.033-4.078-2.771-0.524-6.861-1.748-10.724-1.748 0.065 3.069-0.253 9.059-2.905 13.205 3.221-0.663 5.773-1.038 7.15-1.942 4.015-1.717 5.416-2.026 9.831-1.553 3.062 0.944 5.42 2.556 7.149 4.661 0.749 3.706 1.828 4.442 2.011 8.739 0 3.625-1.34 7.055-1.34 10.681-1.067 2.611-0.172 4.977-0.224 8.739 1.94-1.36 2.543-3.141 4.022-4.855 3.994 0 4.349-0.411 4.468 3.107 1.657 2.057 3.84 5.433 4.469 8.545 2.659-0.578 1.787-2.073 1.787-4.661 1.293-5.616 3.196-1.658 5.363 0.777 0.647 2.718 1.675 4.099 3.574 5.243 0-1.876 0.072-5.959 1.788-4.467 2.315 1.662 5.987 6.206 7.596 9.128 0.748-1.468 0.671-2.411 0.447-5.244 1.509-3.496 2.342 0.246 3.575 2.331 1.67 2.135 4.263 4.049 6.256 6.214 1.939 2.866 0.894-1.426 0.894-3.884 1.685 2.73 3.32 5.055 7.15 6.991 0.798 1.909 0.142-2.374 0.893-4.66 3.273 1.01 4.513 3.203 6.253 5.437 0.63 1.268 1.39 1.661 2.68 3.107 0-3.474-0.25-5.133 3.58-3.884 1.58 2.751 4.08 3.486 7.15 5.44 1.66-1.811 2.23-4.374 3.57-5.44 2.27 2.277 2.5 4.277 6.26 5.44 2.55-0.556 6.81-2.494 9.27-4.371zm6.82 3.397c2.49 0 2.51-1.844-2.24-0.195-4.48 0.3-5.54 1.929-9.38 2.719-2.37 1.4-5.93 2.39-8.94 3.11-2.86 1.82-6.49 3.39-9.83 4.66-2.87 1.22-5.54 1.98-7.93 3.4-3.21 0.99-6.476 1.16-11.173 1.16h-25.024c-3.969 0-5.959 0.14-7.708-1.75-1.942-1.89-3.859-3.48-6.256-5.14-1.729-2.11-4.087-3.72-7.149-4.66-3.031-2.27-2.807 0.55-6.256 1.55-1.892 2.42-4.525 3.2-5.363 6.99 2.366 1.33 3.166 3.79 6.256 4.66 4.191 0.11 4.186 1.34 0.894 2.33-4.895 0-7.72-0.24-10.725-2.33-2.496-1.7-2.359-3.44-4.468-4.66-4.041 0.7-4.4 2.59-6.256 5.44-2.726 1.38-2.681 2.74-2.681 6.21 2.827 0.82 7.497 0.78 11.618 0.78 2.499-1.09 7.811-1.43 11.618-1.55 0.545 3.67-0.488 3.82-6.256 3.88-4.559 0-8.748-0.36-11.618 1.55-1.371 0.98-1.95 2.55-2.681 4.67 2.383 1.22 2.207 2.22 6.256 2.33 0.235 3.61 0.854 5.46 4.468 4.66 3.105-1.28 5.298-2.3 7.15-4.66 2.356-0.43 4.236-1.32 6.256 0-2.596 1.33-3.725 2.21 0.894 2.33 2.528 1.1 7.711 0.77 11.618 0.77 3.16 1.1 5.094 1.92 7.15 3.89 3.682-1.33 2.604-3.59 3.686-6.41-0.505-1.95-2.937-3.24-3.686-6.8-2.21-1.92-0.227-2.33 2.681-2.33 2.114 1.75 3.023 4.93 3.575 8.55 1.699 3.39 1.686 5.26 4.468 6.99 1.322 0.76 0.894-1.34 0.894-3.11 0.206-1.79 0.894-2.75 0.894-4.66 1.756 3.11 3.072 4.69 7.149 6.99 2.82-0.74 3.735-2.07 6.256-3.11 0.802 3.81 2.987 4.5 7.15 5.44 2.489 2.16 1.86-1.43 0.894-3.11-2.21-2.44-3.442-2.33 0.894-2.33 3.411 1.8 6.231 1.95 8.941 4.66 2.65 0.48 3.55 1.89 5.36 0.78-1.43-3.56-2.89-3.9 2.68-3.11 3.49 2.23 4.63 2.9 8.94 3.11-0.59-2.95-1.19-4.7-3.58-6.21 4.46 0.29 6.41 1.57 9.83 3.1 3.75 1 6.03 2.57 10.73 3.11 2.48-0.54 2.37-2.6 0.89-3.88-2.01-2.11-5.42-2.34-8.04-3.89-4.61-0.05-6.39-0.85-9.83-1.55 3.12-0.91 7.28-1.3 10.72-2.33 1.47-1.16 1.02-2.59 3.58-3.11 4.45-1.29 7.42-1.39 11.61-3.11 2.91-1.19 5.36-2.37 8.94-3.1 3.05-1.37 6.2-2.76 8.94-3.89 2.71-1.11 5.88-2.25 8.04-3.88-4.05-0.53-5.51-1.55-10.72-1.55-2.49 0-5.03 0.29-6.26-0.78 0.16-3.73 1.12-5.62 0-8.55-2.54-1.32-4.11-1.71-7.15 0-3.98 0.53-6.28 1.87-10.72 3.11-4.21 0.5-6.38 1.65-10.73 3.11-4.08 2.01-6.37 2.94-11.62 3.11-2.33 2.02-3.11 0.07-0.89-2.33 1.97-1.99 3.33-2.34 7.15-2.34 2.39-1.41 6.54-2.64 9.83-3.88 1.2-1.56 3.06-1.81 4.47-3.11 0 0 2.08-0.68 1.79-1.744zm3.12 33.794c1.53 0 9.38 0.94 12.29 0.39 4.07-1.49 7-1.42 9.61-3.69 2.79-1.42 5.45-2.27 8.94-3.89 4.01-1.2 6.7-2.24 8.94-4.66 3.73-1.3 4.59-2.26 8.93-2.33 2.52 1.28 6.39 2.06 8.94 3.11 1.91 2.38 5.02 4.01 9.83 4.66 2.38 2.06 3.67 2.24-1.79 2.33-3.42 0.4-7.51 0.95-10.72 1.55-3.98 0-5.36-0.6-8.94-0.77 2.28 1.81 5.5 3.42 7.15 5.43-2.5 1.63-4.35 0.2-6.26-0.77-1.32-1.95-2.82-2.29-5.36-3.89 0 3.46 0.49 4.3 1.79 6.22-3.75 0.89-4.83 1.55-8.94 0.77-3.88-0.36-5.87-1.19-8.04-2.33 0 2.16-0.34 4.37 0.89 5.44h-12.51c-1.96-1.2-2.14-2.4-6.7-3.3 1.28 2.15 0.66 3.37 1.34 4.85-2.53 0.9-7.3-3.05-9.39-9.12zm70.81-15.57c-1.02 0-1.45 2.87-2.52 6.59 5.29 0.93 10.38-1.01 15.16 0 0.68-1.12 4.05-1.36 6.32-2.2 2.41-0.83 6.45-2.46 8.85-3.29 1.06-3.77 3.12-5.51 6-8.52-5.96-1.79-3.03-1.73-7.26-3.57-3.48 2.06-6.49 4.67-8.85 7.69-5.24 1.82-9.59 3.05-17.7 3.3zm-164.64 22.75h-0.447c1.249 0 0.502-0.12-0.447 1.94-0.632 1.1-0.447 3.36-0.447 5.05-0.634 2.17 0.041 2.21 2.682 2.33 2.204-1.07 2.626-1.84 4.021-3.49 0.488-1.56 1.3-2.33 1.788-3.89-0.631-1.54-1.725-1.89-3.575-2.33-1.332 0-2.112 0.15-3.575 0.39zm132.1-105.41h0.31c-0.85 0-0.42 0.018 1.27-0.274 1.32-0.383 2.91-0.275 4.42-0.275 1.53 0.049 2.63 0.214 3.48 0.824 1.3 0.412 2.17 1.566 3.16 2.472 0.45 0.997 0.93 1.889 1.89 2.471 0.66 0.762 1.27 0.824 2.85 0.824 0.33-1.12 0.68-2.189 1.58-2.746 0.96-0.279 2.83-0.414 3.79 0 0.76 0.537 0.63 1.252 0.63 2.472-0.87 0.787-1.14 1.287-1.58 2.746-0.22 1.246-0.63 1.694-0.63 3.296-0.53 1.059-0.93 1.805-0.95 3.295-0.39 1.538-0.7 1.905-1.9 2.747-1.28 0.53-1.71 0.867-2.52-0.549-0.43-0.367-0.22-1.282-0.64-1.648-0.84-0.632-0.87-0.99-2.21-1.099-1.32-0.383-2.91-0.275-4.42-0.275-1.35-0.176-2.32-0.472-3.48-1.098-1.52-0.459-2.13-0.742-2.84-1.648-0.52-0.955-0.89-1.57-0.95-3.021 0.62-1.319 1.3-1.354 3.16-1.373 0.42-0.366 1.47-0.183 1.9-0.549-0.28-1.471-0.69-2.21-2.22-2.472-1.79-0.058-2.38-0.371-3.47-1.373-1.35-0.405-0.89-1.241-0.63-2.747zm31.59 3.296c-0.1 0.092-0.21 0.183-0.31 0.275 0.79-0.69 0.43-0.353-1.27 0.824-0.49 0.855-1.03 1.708-1.89 2.471-0.44 1.17-1.06 1.815-1.9 2.747-0.62 0.879-1.32 1.251-1.58 2.471-0.35 0.932-0.69 2.068-0.95 3.021-0.01 1.386-0.31 2.44-0.31 3.845 0.35 0.506 0.28 1.966 0.63 2.472 0.69-0.88 0.93-2.173 0.95-3.57 0.81-0.452 1.04-0.824 2.53-0.824 0.65 0.715 1.74 1.458 2.52 1.922 0.72 0.871 1.68 1.043 3.48 1.099 1.12 0.211 2.58 0.275 4.11 0.275 1.79 0.018 2.85 0.482 4.42 0.823 1.34 0.39 3.05 0.308 4.11 0 0.72-0.622 1.39-0.892 0.31-1.647-0.38-1.01-0.01-2.185 0-3.571 1.21-0.644 1.56-0.709 1.58-2.471-0.66-0.553-0.61-1.348-1.58-1.648-1.34-0.32-1.69-0.767-3.47-0.824h-4.42c-1.36 0.159-2.42 0.532-4.11 0.549-1.7-0.053-2.77-0.401-3.79-0.824 0-1.344-0.03-2.654 0.31-3.845 0.96-0.521 1.5-0.872 1.58-2.197l-1.58 2.197c0.96-0.521 1.5-0.872 0.63-3.57zm-135.23 85.065c0.247 1.22 1.008 1.22 1.487 2.42 0.679 0.69 2.647 2.82 3.067 1.69 0.336-1.34 0.165-3.3-0.204-4.75-0.363-0.79-2.585-2.37-2.863-2.97 0 0-1.824 2.14-1.487 3.61zm8.924-3.01c0 0.09-0.238 2.37 0.035 3.6 0.889 1.29 2.248 2.15 4.181 2.09 0-1.69 0.363-2.9-0.501-3.98-1.138-0.8-2.356-1.27-3.715-1.71zm7.19-1.04c-0.111 1.97 0.054 2.63 0.409 3.86 0.074 0.62 2.142 2.06 2.751 2.77 0.908-1.2 1.818-2.42 1.038-3.71-0.72-1.23-2.172-1.7-4.198-2.92zm-68.819-23.461c0 0.12 0.046 0.697 0.111 0.971 0.19 0.431 0.31 0.786 0.447 1.263 0.25 0.325 0.393 0.828 0.559 1.165 0.162 0.297 0.363 0.678 0.67 0.972 0.246 0.47 0.536 0.74 0.782 1.07 0.211 0.26 0.579 0.51 0.782 0.77 0.431 0.25 0.716 0.63 1.229 0.88 0.373 0.37 0.542 0.56 0.782 0.87 0.434 0.1 0.704 0.2 1.34 0.2 0.52-0.12 1.065-0.23 1.564-0.39 0.566-0.19 0.952-0.32 1.341-0.59 0.362-0.25 0.734-0.6 1.117-0.97 0.353-0.35 0.598-0.72 0.894-1.06 0-0.48 0.075-0.7-0.335-0.975-0.234-0.308-0.613-0.669-1.006-0.971-0.448-0.423-0.566-0.586-1.005-0.777-0.348-0.149-0.838-0.406-1.341-0.583-0.353-0.224-0.832-0.465-1.34-0.582-0.614-0.178-1.302-0.27-2.011-0.292-0.582-0.096-1.058-0.228-1.564-0.485-0.503-0.13-0.905-0.172-1.452-0.291-0.56 0-0.989-0.11-1.564-0.195zm-12.289 18.931h-1.675c-0.706 0.08-1.471 0.11-2.123 0.3-0.679 0.1-1.238 0.35-1.8991 0.48-0.4769 0.2-1.0654 0.4-1.4523 0.58-0.3164 0.39-0.4241 0.63-0.4469 1.17 0.1753 0.35 0.3207 0.56 0.782 0.68 0.3443 0.21 0.905 0.35 1.3403 0.48 0.342 0.28 0.899 0.52 1.229 0.78 0.409 0.1 0.725 0.27 1.006 0.49 0.534 0.11 0.945 0.19 1.564 0.19 0.683-0.08 1.088-0.35 1.675-0.68 0.499-0.39 0.807-0.59 1.229-1.07v-1.36c-0.118-0.51-0.438-0.78-0.558-1.16-0.167-0.1-0.19-0.77-0.671-0.88zm5.698 20.2h-0.559c-0.614 0.04-1.057 0.13-1.564 0.39-0.497 0.12-0.892 0.39-1.229 0.58-0.443 0.35-0.698 0.64-1.117 0.97-0.187 0.3-0.53 0.89-0.782 1.17-0.116 0.37-0.415 0.76-0.558 1.16-0.395 0.4-0.644 0.91-1.118 1.36-0.285 0.5-0.621 0.88-0.893 1.36-0.379 0.48-0.671 0.97-1.006 1.46-0.198 0.45-0.335 0.88-0.558 1.26-0.049 0.4-0.269 0.8-0.112 1.07 0.591 0 1.166-0.03 1.564-0.2 0.636-0.05 1.103-0.37 1.676-0.58 0.573-0.2 1.062-0.41 1.564-0.78 0.604-0.35 1.245-0.63 1.899-0.97 0.644-0.35 1.275-0.69 1.899-0.97 0.524-0.31 1.055-0.54 1.564-0.87 0.342-0.2 0.873-0.56 1.229-0.87 0.446-0.22 0.898-0.66 1.229-1.07 0.39-0.34 0.535-0.7 0.558-1.27-0.023-0.56-0.246-0.9-0.558-1.35-0.236-0.31-0.547-0.58-0.894-0.78-0.419-0.28-0.813-0.6-1.341-0.68-0.489 0-0.311-0.01-0.893-0.39zm10.054-87.195c-0.502 0.244-0.777 0.431-1.117 0.777-0.564 0.321-0.949 0.657-1.453 1.068-0.111 0.243-0.16 0.549 0 0.874 0.366 0.15 0.653 0.332 1.006 0.485 0.28 0.386 0.589 0.637 0.894 0.971 0.397 0.512 0.763 0.639 1.228 0.971 0.502 0.209 0.699 0.467 1.118 0.874 0.484 0.407 0.935 0.731 1.34 0.971 0.373 0.343 0.727 0.546 1.229 0.971 0.292 0.351 0.638 0.681 0.782 1.068 0.294 0.261 0.474 0.768 0.782 1.069 0.098 0.327 0.321 0.853 0.447 1.165 0.161 0.503 0.297 0.575 1.005 0.582 0.714-0.007 0.991-0.218 1.564-0.485 0.291-0.268 0.807-0.748 1.117-1.068 0.34-0.329 0.794-0.79 1.006-1.068 0.118-0.308 0.111-0.815 0.111-1.263-0.256-0.625-0.446-1.07-0.446-1.747-0.072-0.463-0.317-0.797-0.559-1.263-0.365-0.481-0.81-0.968-1.117-1.456-0.377-0.271-0.634-0.558-1.006-0.777-0.501-0.425-0.845-0.76-1.34-1.068-0.453-0.464-0.948-0.849-1.341-1.068-0.466-0.241-1.051-0.433-1.452-0.583-0.455 0-3.253-0.192-3.798 0zm-2.011 9.419c-0.374 0.531-0.569 1.038-0.894 1.553-0.111 0.516-0.332 0.984-0.558 1.457-0.113 0.513-0.335 0.755-0.447 1.262-0.109 0.441-0.208 0.917-0.335 1.36-0.169 0.456-0.373 0.865-0.447 1.359-0.175 0.293-0.224 0.807-0.224 1.262 0.078 0.74 0.326 0.396 0.894 0.097 0.517-0.344 0.788-0.486 1.341-0.776 0.5-0.29 1.032-0.512 1.452-0.777 0.552-0.286 1.122-0.5 1.676-0.777 0.417-0.196 0.773-0.45 1.117-0.68 0.203-0.228 0.854-0.794 1.117-0.971 0.241-0.307 0.471-0.457 0.67-0.971 0.211-0.339 0.307-0.604 0.335-1.068-0.479-0.183-0.752-0.345-1.117-0.68-0.53-0.301-0.854-0.64-1.34-0.776-0.336-0.271-0.878-0.517-1.117-0.777-0.456-0.132-0.331-0.479-1.006-0.486-0.329 0-0.88-0.127-1.117 0.389zm-11.842-21.265h-0.223 0.223-0.223 0.223c-0.774 0-1.477-0.059-2.122 0.194-0.741 0.156-1.472 0.397-2.123 0.68-0.641 0.161-1.212 0.382-1.787 0.68-0.566 0.222-1.037 0.502-1.4524 0.873-0.5379 0.279-1.0628 0.629-1.564 0.971-0.4789 0.438-0.7489 0.728-1.0054 1.263-0.127 0.331-0.1117 0.885-0.1117 1.359 0 0.533 0.7599 2.862 1.2288 4.078 0.3719-0.809 0.8375-2.578 1.4523-2.718 0.6884-0.354 1.1894-0.497 2.0104-0.583 0.711-0.219 1.503-0.433 2.235-0.583 0.667-0.129 1.259-0.314 1.675-0.485 0.404-0.199 0.766-0.422 1.229-0.68 0.388-0.191 0.697-0.406 1.006-0.68 0.358-0.311 0.563-0.763 0.67-1.165v-1.359c-0.021-0.515-0.184-0.9-0.335-1.36-0.634 0-0.45 0.032-1.006-0.485zm10.613-21.653c-0.71-0.244-1.486-0.556-2.122-0.874-0.865-0.148-1.727-0.194-2.682-0.194-0.891-0.214-1.365-0.292-2.234-0.292-0.683-0.124-1.403-0.097-2.122-0.097-0.642 0-1.145-0.014-1.676 0.195-0.381 0.178-0.966 0.458-1.341 0.679-0.311 0.174-0.706 0.423-1.005 0.583-0.15 0.056-0.359 0.169-0.559 0.291 0.803 0 1.573-0.032 2.346-0.097 0.525 0.098 1.073 0.215 1.564 0.388 0.596 0.155 1.218 0.35 1.788 0.583 0.611 0.177 1.13 0.501 1.675 0.874 0.557 0.245 0.714 0.686 1.006 0.971 0.2 0.283 0.489 0.632 0.782 1.068 0.335 0.235 0.775 0.737 1.005 1.068 0.174 0.326 0.296 0.523 0.782 0.583 0.398-0.352 0.732-0.549 1.229-0.777 0.524-0.244 1.018-0.488 1.564-0.68 0.322-0.172 0.724-0.444 1.229-0.68 0.379-0.177 0.823-0.425 1.117-0.582 0.208-0.302 0.211-0.38 0.112-0.777-0.088-0.229-1.753-1.823-2.458-2.233zm17.316-4.1755c0 0.0522 0.281 0.1815 0.558 0.3885 0.53 0.318 0.781 0.47 1.229 0.874 0.627 0.302 0.669 0.534 1.005 1.068 0.233 0.5 0.54 0.931 0.782 1.456 0.185 0.609 0.422 0.956 0.447 1.554 0.198 0.465 0.326 0.966 0.447 1.456 0.271 0.318 0.38 0.955 0.67 1.263 0.554-0.063 0.957-0.194 1.564-0.194 0.613 0 1.067-0.047 1.453-0.292 0.505-0.052 1.079-0.089 1.564-0.194 0.656 0 0.978 0.018 1.34-0.291 0.542-0.278 0.791-0.587 0.894-1.165-0.206-0.416-0.554-0.688-0.782-0.972-0.364-0.23-0.967-0.689-1.229-0.97-0.28-0.351-0.619-0.637-0.894-0.971-0.472-0.382-1.08-0.739-1.452-1.069-0.394-0.194-0.78-0.346-1.34-0.485-0.551-0.177-0.986-0.493-1.453-0.68-0.413-0.256-0.727-0.413-1.229-0.485-0.45-0.182-1.107-0.3196-1.452-0.4858h-1.564c-0.278 0-0.077-0.0149-0.558 0.1943zm-18.866 28.32c-0.673 0.43-0.976 0.491-1.106 1.236 0.084 0.8 0.491 0.805 1.264 0.961 0.644 0.19 0.932 0.275 1.738 0.275 0.389-0.315 0.696-0.361 0.948-0.824 0.427-0.299 0.426-0.8 0-1.099-0.144-0.188-2.427-0.638-2.844-0.549zm34.592 5.94c-0.336 0.372-0.562 0.777-0.916 1.159-0.299 0.331-0.513 0.589-0.751 0.87-0.229 0.386-0.534 0.776-0.75 1.159-0.271 0.353-0.501 0.711-0.75 1.087-0.195 0.445-0.455 0.877-0.667 1.231-0.24 0.427-0.327 0.799-0.333 1.304 0.068 0.383 0.314 0.674 0.5 0.942 0.223 0.124 0.591 0.332 0.833 0.435 0.491-0.015 0.666-0.15 1.084-0.29 0.36-0.273 0.555-0.372 0.834-0.797 0.421-0.324 0.707-0.621 1.166-0.942 0.378-0.324 0.728-0.522 1.001-0.797 0.407-0.341 0.645-0.526 1-0.869 0.19-0.36 0.464-0.61 0.75-0.942 0.2-0.384 0.481-0.66 0.584-1.086 0.171-0.445 0.347-0.846 0.416-1.305 0-0.354 0.007-0.7-0.083-1.014-0.137-0.401-0.193-0.536-0.667-0.652-0.349-0.159-0.791-0.322-1.083-0.435-0.329 0-1.93 0.625-2.168 0.942zm7.502 6.158c-0.336 0.372-0.563 0.777-0.917 1.16-0.298 0.33-0.513 0.589-0.75 0.869-0.23 0.386-0.535 0.776-0.75 1.159-0.271 0.353-0.501 0.711-0.75 1.087-0.195 0.445-0.455 0.877-0.667 1.231-0.24 0.427-0.327 0.799-0.333 1.305 0.068 0.382 0.314 0.674 0.5 0.941 0.222 0.125 0.591 0.332 0.833 0.435 0.491-0.015 0.665-0.15 1.084-0.29 0.36-0.273 0.555-0.372 0.833-0.797 0.422-0.324 0.708-0.621 1.167-0.941 0.377-0.325 0.727-0.523 1-0.797 0.408-0.342 0.645-0.527 1.001-0.87 0.189-0.36 0.464-0.61 0.75-0.942 0.2-0.384 0.48-0.66 0.583-1.086 0.172-0.445 0.348-0.846 0.417-1.304 0-0.355 0.007-0.701-0.083-1.015-0.137-0.401-0.194-0.536-0.667-0.652-0.349-0.159-0.791-0.322-1.084-0.434-0.328 0-1.929 0.625-2.167 0.941zm8.502 5.289c-0.336 0.372-0.563 0.777-0.917 1.159-0.298 0.331-0.513 0.589-0.75 0.87-0.23 0.386-0.535 0.776-0.75 1.159-0.271 0.353-0.501 0.71-0.75 1.087-0.195 0.445-0.455 0.877-0.667 1.231-0.24 0.426-0.327 0.799-0.334 1.304 0.069 0.383 0.315 0.674 0.501 0.942 0.222 0.124 0.591 0.332 0.833 0.435 0.491-0.015 0.665-0.15 1.084-0.29 0.36-0.273 0.555-0.372 0.833-0.797 0.422-0.324 0.708-0.621 1.167-0.942 0.377-0.324 0.727-0.522 1-0.797 0.408-0.341 0.645-0.526 1.001-0.869 0.189-0.36 0.464-0.61 0.75-0.942 0.2-0.384 0.48-0.66 0.583-1.087 0.172-0.444 0.348-0.845 0.417-1.304 0-0.354 0.007-0.7-0.083-1.014-0.137-0.401-0.194-0.536-0.667-0.652-0.349-0.159-0.792-0.322-1.084-0.435-0.328 0-1.929 0.625-2.167 0.942zm586.55 39.081h-0.47m-0.8-0.579c2.7 2.008 1.1 2.466 2.22 3.038 1.53-0.412 2.42-1.292 1.41-2.459 0-2.048-0.34-3.467 1.42-2.049 2.94 0.215 3.52 1.068 4.24 3.279 0.22-0.434 0-2.043 0-3.279 0-1.429-0.42-2.594 0.94-1.23 1.19 1.837 2.22 3.974 3.78 5.328 0.71-1.771 1.12-3.019 1.41-4.918 2.01 0.7 1.89 1.695 1.89 4.099 1.18 1.227 3.42 1.128 5.18 1.639 2.11 0.141 3.63 0.41 6.13 0.41 2.06 0 4.8-0.17 6.13 0.41 2.26 0 4.63-0.162 6.6 0.409 2.8 0.541 2.94 1.101 4.72 2.873 0.89 1.57 1.38 2.67 1.41 4.91 0.09 2.04 0.67 3.4 1.42 4.92 0.15 1.93 0.42 3.93 0.94 5.74-0.1 2.45-0.59 2.75-2.83 3.28-2.23 0-3.01-0.18-4.24-0.82 0-2.04 0.05-3.38 0.94-4.51 0.42-1.68 0.91-2.76 0.94-4.92-0.09-2.3-0.84-2.61-0.94-4.92-1.1-1.15-2.71-1.26-4.24-2.04-2.5-0.29-3.44-1.03-5.19-1.64-2.17-0.61-4.34-1.22-6.6-1.64-2.25-0.143-4.2-0.413-6.6-0.413h-6.6c-2.29 0-4.46 0.095-6.13 0.413h-6.6c-2.11 0.32-4.26 0.41-6.61 0.41-2.1 0.32-4.25 0.41-6.6 0.41-1.67 0.48-3.7 0.72-5.65 1.23-2.1 0.32-4.51 0.49-6.61 0.82-2.1 0.74-4.46 0.95-6.6 1.64h-13.2c-2.71 0-3.68 0.53-6.13 0.81-1.4 0.74-4.18 1.49-6.13 2.05-2.13 0.34-4.42 0.6-6.6 0.82h-13.2c-2.42 0-4.28 0.34-6.6 0.41h-6.6c-1.96 0.57-4.53 0.61-6.61 0.82-2.41 0-4.22-0.38-6.6-0.41h-6.6c-2.41 0-4.22-0.38-6.6-0.41-1.95-0.23-3.78-0.67-6.13-0.82-2.29-0.49-3.9-0.71-6.13-1.23-1.72-0.32-4.12-1.04-5.66-1.64-1.54-0.69-3.77-1.38-5.18-2.45-1.53-1-3.37-2.587-4.72-3.693-1.33-1.708-2.84-2.862-4.24-3.688-2.49-1.362-3.74-2.291-5.66-4.098-1.41-1.223-2.35-2.07-3.3-3.279-1.29-0.88-2.85-2.783-3.77-4.098-1.27-0.907-2.2-1.972-3.3-3.689-0.51-2.182-0.64-1.478-0.79-2.241 1.86-0.247 3.64 0.211 5.03 1.422 2.73 0.169 3.87 0.765 5.66 2.049 0.1 2.304 0.86 2.758 1.41 4.508 2.16-0.344 2.33-1.193 3.77-2.049 2.82 0.222 2.8 0.701 2.83 3.278 0.22 2.083 1.72 3.159 2.36 4.918 2.02 0.722 2.19-0.01 2.83-1.229 2.47-1.252 3.93-1.097 4.72 0.819 0.79 1.861 1.42 3.454 1.88 4.918 2.94-0.03 3.19 0.087 3.3-2.459 0-0.989-0.43-2.836 0.47-2.049 1.46 1.083 3.38 2.598 3.78 4.508 0.43 2.072 1.57 2.025 3.3 3.692 1.59-0.676 2.89-2.055 4.24-1.233 1.83 0 2.57-0.131 3.3 0.82 2.35 0 4.49 0.083 6.6 0.413 0.5-0.834-0.08-2.065-0.94-2.872-0.52-1.636-1.86-3.31-2.36-5.328 1.26 0.702 3.28 1.821 4.24 2.869 1.36 0.841 1.93 2.376 3.31 3.689 1.39 1.276 4.01 1.438 5.65 2.052-0.04-2.08-0.44-2.532-1.41-4.102-0.12-0.587-1.04-2.538 0-1.639 1.68 1.073 2.41 2.512 3.3 4.508 0.79 0.515 2.32 0.41 3.77 0.41 2.02 0.583 4.59 0.583 6.6 0 0.66-0.955 0.74-2.775 1.42-3.688 0.08-2.302 0.16-1.658 1.88-1.23 1.18 1.292 3.61 2.215 5.66 3.279 2.39 0.866 3.8 2.512 6.13 2.872 2.23 0 3.01-0.18 4.24-0.82 0.7-1.749 1-3.266 1.42-5.331 0.69 0.567 1.39 1.325 1.89 2.049 1.96 0.922 3.59 1.655 4.71 2.869 2.38 0 4.43-0.185 6.6-0.41 2.57 0 4.27-0.553 6.6-0.819h6.6c2.29 0 4.47 0.094 6.13 0.409 3.14-0.248 1.99-0.826 1.89-3.278 0.35-0.195 1.93 0.101 3.3-0.41 0.27-0.528-0.69-1.165-1.89-1.639-0.69-1.21-1.69-2.659-2.82-3.689 1.49 0.526 1.86 0.971 3.3 1.23 1.69-0.368 0.79-1.381-0.48-1.64-2.29-1.011-3.56-1.105-4.71-2.869-2.1-1.169-2.18-2.144-2.83-3.688 1.5 0.629 3.53 0.851 4.72 1.23 1.64 0.634 3.54 1.66 5.18 2.049 1.15 0.891 3.15 1.635 4.25 2.459 1.16 0.22 4.46 1.014 2.35-0.41-1.17-1.141-3.05-1.484-4.24-2.869-1.16-1.304-1.07-2.305 0-3.688 2.21 0.918 2.53 1.573 4.24 3.278 0.87 1.392 2.69 2.613 4.25 3.279 1.72 0 3.31-0.046 2.83-0.82 0.14-2.267 0.66-2.049 3.3-2.049 2.36 0.037 3.24 0.038 4.24 1.639 1.15 1.405 2.14 1.276 2.36 3.689 0 2.319 2.14-2.046 3.11-3.453 1.08 1.739 0.03 2.756-0.28 4.272-1.31 1.14 0.86 2.514 1.08 2.7zm-306.15 47.71c-0.28 0-1.16 1.19-1.89 2.46-1.04 0.95-2 2.49-3.3 3.28-0.51 1.15 0.09 0.82 1.89 0.82 2.04-0.59 4.16-0.69 6.13-0.82 1.26-0.86 1.41-2.12 1.41-4.1-1.02-0.38-2.65-1.03-4.24-1.64zm-18.39-11.48c-0.16 0.14-0.32 0.28-0.47 0.41 1.18-1.02 0.61-0.56-1.42 1.64-0.77 1.43-1.32 2.35-1.41 4.51 0.72 0.52 1.28 1.35 2.36 0.41 1.68-1.01 2.32-2.01 3.77-2.87 0.09-1.55 1.09-1.95-0.94-2.05-1.28 1.67-1.65-1.06-1.89-2.05zm26.88-34.421c-0.16 0.136-0.32 0.273-0.48 0.409 1.07-0.93 0.68-0.481-1.88 0.41-0.73 1.96 0.11 2.563 1.41 4.102 1.39 0.74 2.79 1.69 4.72 2.46 2.46-0.53 2.35-0.98 2.35-3.28-1.41-0.76-2.71-1.518-3.77-2.872 0-1.145 0.15-0.359-2.35-1.229zm-28.77 13.931c-0.15 0-1.56 0.82-2.83 1.64-1.82 0.72-3.08 1.45-4.24 2.46 0 1.92-0.16 2.68 1.42 3.28 2.54-0.34 3.79-1.19 6.12-1.64 1.71-1.01 2.94-0.83 3.78-3.28 0-1.94 0.44-2.4-1.89-2.46l1.89 2.46c0-1.94 0.44-2.4-4.25-2.46zm40.08-2.87c0 0.73-0.63 3.18 0 4.51 2.2 0.62 2.86 0.36 3.3-2.05-0.19-1.48-1.24-1.43-3.3-2.46zm-9.9 26.23v1.64c0.2 2.32 1.18 2.27 1.41 4.51 0.88 0.91 0.87 1.97 1.89 0 0.88-1.76 0.94-3.01 0.94-5.33-1.84 0-2.18-0.19-4.24-0.82zm37.25-9.01c-0.45 0-0.27 1.04-0.47 2.46-0.52 1.66-1.14 3.29-1.89 4.5 2.62-0.2 3.08-1.14 3.77-3.27 1.4-1.22-0.19-2.37-1.41-3.69zm-9.9-0.82c0 0.56 0.02 3.73-0.47 4.92-1.13 1.7-2.39 2.07-2.83 4.09 0.42 1.48 1.31 0.7 2.35 0 2.2-0.83 2.52-1.16 3.31-2.87 1.09-1.15 1.38-2.33 1.41-4.5-1.54-1.1-0.37-0.97-3.77-1.64zm-9.43-2.46v6.56c-1.43 0.88-2.03 1.8-2.36 3.68 2.11-0.69 4.26-1.89 5.19-2.86 1.46-0.87 2.05-1.42 2.83-3.28-2.49-0.56-3.62-2.39-5.66-4.1zm111.27-12.3h-0.47c1.39 0 0.56-0.11-0.94 2.05-1.29 1.61-1.72 2.3-2.83 4.1-0.77 1.41-1.39 2.53 0 4.1 2.44-0.6 3.35-1.78 4.72-3.28 0.39-1.46 0.91-2.92 0.94-4.92l-0.94 4.92c0.39-1.46 0.91-2.92-0.48-6.97zm-50.45 19.27c-0.88 0.08-4.14 0.38-5.66-0.41h-6.6c-2.85 0-3.62 0.28-5.65 1.23-1.72 0.82-2.1 1.24-1.42 2.86 1.12 1.18 2.56 1.56 5.19 1.64 2.47 0 4.46-0.19 6.13-0.82 1.94-0.23 3.71-0.59 5.65-0.82 2.24-0.62 3.91-1.08 6.13-1.23h6.61c2.27-0.37 4.57-0.73 6.6-1.63 2.6-0.17 3.93-0.75 6.13-1.64 1.72-0.41 3.22-1.03 4.71-1.64 1.89-0.95 2.78-1.6 4.25-2.46 1.71-0.77 4.1-1.04 5.18-2.05 1.66-0.36 1.83-0.71 1.89-2.46-1.56-0.64-3.06-0.82-5.66-0.82-2.23-0.35-3.55-0.99-4.24 0.82-0.53 2.54-0.19 3.18-3.3 3.28-2.42 0-4.23 0.38-6.61 0.41-2.56 0-2.78-0.22-2.82 2.05-1.41 0.75-2.72 1.26-4.72 1.64h-6.6c-2.93 0.09-2.79 0.31-2.83 2.87l2.83-2.87c-2.93 0.09-2.79 0.31-5.19 2.05zm-35.36-26.23h-0.47c1.36 1.67 3.28 3.81 5.18 4.91 1.26 0.71 3.35 1.88 4.72 2.46 1.63 0.8 3.34 1.57 5.19 2.46 2.09 0.39 4.37 0.9 6.13 1.23 2 0.3 3.38 1.01 1.88-0.82-1.17-1.53-2.32-2.41-4.24-2.87-1.43-1.1-4.24-2.04-5.66-3.28-1.72-0.39-3.94-1.25-5.66-1.64-2.07-1.25-3.82-1.75-7.07-2.45zm23.1-20.905c0 0.214-1.54 1.074-2.83 2.049-1.64 0.637-3.76 1.456-4.71 2.459-0.29 0.371 0.37 0.719 1.41 0.819 1.61 0.6 4.08 1.455 6.13 2.05 1.95 0.323 1.94 1.027 2.36 2.868-0.11 2.699-0.92 2.388-3.3 3.689-1.53 0.237-4.21 0.31-5.19 0.819 1.41 0.892 2.68 1.814 4.25 2.46 2.6 0.08 4.13 0.612 5.66 1.639 2.07 0.523 2.74 1.513 3.3 3.283 1.51 1.05 2.04 2.42 3.77 4.09 1.65 1.63 3 2.01 5.66 0.82 1.88-0.22 3.72-0.41 6.13-0.41 2.3 0 4.55 0.04 6.6-0.41 1.87-1.38 3.04-2.52 5.18-2.87 2.53-0.92 3.31-0.74 3.78-3.27-1.84-0.15-1.97-0.42-2.36-2.053 2.77-0.464 3.63-0.98 4.71-2.869-1.56-0.751-3.73-1.308-5.18-2.459-1.02-0.573-2.04-1.444-3.3-2.049 1.89-0.547 3.91-0.241 5.65 0.41 2.27 0.416 2.22 0.053 2.36-2.049-1.18-1.03-0.09-1.207 0.94-0.82 1.82 1.014 3.39 0.82 5.66 0.82 1.5-1.49 2.7-2.567 3.3-4.508 1.23-1.419-0.36-1.811-1.88-2.869-1.87-0.424-3.48-1.234-5.19-1.639-2.33 0.265-4.53 0.825-6.6 1.639-2.38 0.025-4.19 0.41-6.6 0.41h-6.6c-2.79-0.287-5.15-0.575-7.08-1.64-2.4-0.372-3.59-0.793-6.13-0.819h-6.6c-1.25 0-1.79 0.165-3.3 0.41zm-184.36-14.754c1.05-0.041 4.58-0.41 7.07-0.41h34.42c2.31 0 4.56 0.035 6.61-0.41 1.7-0.635 4.18-1.081 6.6-1.229 2.1-0.544 4.86-0.591 7.07-0.82h30.18c3.15-0.572 6.16-0.794 9.43-0.819 3.42 0 6.03-0.266 8.96-0.41h8.01c2.78-0.228 5.5-0.41 8.49-0.41 3.7-0.205 7.68-0.293 11.31-0.82 2.87-0.073 5.54-0.486 8.02-1.229 2.88 0 5.14-0.388 8.02-0.41 3.49 0 7.04 0.142 10.37-0.41h11.32c3.19 0 5.85-0.342 8.95-0.41 2.44-0.61 5.37-0.743 8.02-0.819 2.64-0.705 6-0.41 8.96-0.41h7.54c2.23-0.877 4.38-0.82 7.08-0.82h10.37c2.83-0.065 5.9-0.171 8.49-0.82 2.17-0.225 4.22-0.409 6.6-0.409 2.64-0.205 4.85-0.686 7.54-0.82 2.79 0 5.24-0.354 8.02-0.41 3.35 0 6.2-0.329 9.43-0.41 2.54 0 5.27-0.283 7.07-0.819h7.07c3.29 0.029 6.08 0.41 9.43 0.41h7.08c2.87-0.09 5.21-0.555 8.01 0h8.49c2.74 0.497 5.6 0.409 8.49 0.409 2.51 0.155 4.85 0.41 7.54 0.41 2.79 0.446 5.58 1.056 8.49 1.23 3.18 0 5.92 0.238 8.96 0.409 2.17 0.723 4.1 0.823 6.6 1.23 2.68 0.134 5.33 0.378 8.01 0.82h7.08c2.39 0.372 5.1 0.543 7.54 0.819 3.28 0.072 6.86 0.141 9.9 0.82h7.55c3.06 0.266 6.15 0.41 9.43 0.41h7.54c2.57 0 4.62-0.296 7.07-0.41h8.02c2.11-0.141 3.62-0.41 6.13-0.41 1.79-0.338 4.17-0.41 6.6-0.41h6.6c2.31 0 4.56-0.034 6.6 0.41 2.11 0.141 3.63 0.41 6.13 0.41 2-0.305 3.85-1.345 5.19-2.049 2-0.868 2.43-1.826 2.83-3.689 0.95-1.213 1.22-2.96 0.47-4.918-1.78-1.028-4.05-1.337-6.13-2.459-2.01-0.81-4.48-1.822-6.13-2.459-2.53 0-4.34-0.445-6.6-0.819-2.57-0.159-3.93-0.662-6.13-1.23-1.67-0.196-4.19-0.394-5.66-0.819h-6.6c-2.06 0-4.8-0.17-6.13 0.409-2.49 0.078-4.11 0.743-6.6 0.82-2.31 0.502-5.1 0.351-7.55 0.82-2.15 0.197-3.99 0.41-6.6 0.41h-27.82c-2.07-0.215-4.65-0.255-6.6-0.82h-48.09c-1.41-0.613-4.28-0.537-6.13 0h-28.76c-2.05 0.444-4.3 0.41-6.6 0.41-2.05 0.444-4.3 0.41-6.61 0.41h-6.6c-1.42 0.641-3.91 0.819-6.13 0.819-2.25 0.14-4.19 0.41-6.6 0.41h-6.6c-2.31 0-4.56-0.034-6.6 0.41h-6.6c-2.31 0-4.56-0.034-6.6 0.41h-6.6c-1.5 0.432-3.96 0.41-6.13 0.41h-13.68c-1.33 0.579-4.07 0.409-6.13 0.409-2.4 0-4.35 0.271-6.6 0.41-2.82 0.029-4.73 0.692-7.54 0.82h-20.28c-1.73-0.268-4.08-0.573-5.18-1.23 0.24-2.401 1.27-2.777 3.77-3.688 2.25-0.14 4.19-0.41 6.6-0.41h34.42c2.38-0.025 4.19-0.41 6.6-0.41 3.05 0 6.06 0.064 8.96-0.41h52.34c1.88-0.22 3.72-0.409 6.13-0.409 2.34-0.27 3.15-0.794 5.66-0.82 1.33-0.58 4.06-0.41 6.13-0.41h32.06c2.37 0.148 4.53 0.41 7.07 0.41h15.09c3.25 0 4.73-0.213 7.54-1.639 2.24-0.365 4.59-0.41 7.08-0.41h6.6c2.42 0 4.28 0.338 6.6 0.41h21.69c2.25 0 4.63 0.161 6.6-0.41 2.21-0.229 4.54-0.613 6.6-1.23h7.07c2.4 0 4.97-0.192 7.08 0.41h6.6c2.51 0.026 4.49 0.41 7.07 0.41 2.4 0 4.97-0.199 7.07 0.41 2.56 0.159 3.69 0.741 6.13 0.819 1.27 0.553 4.22 0.702 6.13 0.82 2.4 0 4.25 0.189 6.13 0.41 2.47 0 4.46 0.198 6.13 0.82 2.02 0.9 3.42 0.977 5.19 2.049 1.88 0.446 2.79 1.274 4.24 2.049 0.21 1.016 0.73 1.234 0.94 2.459-0.36-1.802-1.46-3.151-2.83-4.098-1.54-1.045-2.95-2.003-4.71-2.869-1.53-0.534-3.29-1.054-4.72-1.64-2.23-0.514-3.94-1.5-5.18-2.459-2-0.235-3.61-0.681-5.19-1.229-2.34-0.509-3.93-1.202-6.6-1.23h-6.6c-2.26-0.489-3.99-0.819-6.6-0.819h-7.07c-2.18 0-4.64-0.023-6.13 0.41-2.18 0.496-4.13 0.819-6.61 0.819-2.37 0.025-4.18 0.41-6.6 0.41-2.57 0-4.62 0.296-7.07 0.41-2.74 0-4.9 0.34-7.54 0.41-2.54 0.152-4.83 0.41-7.55 0.41-2.6 0-5.23-0.094-7.54 0.409h-15.09c-2.8 0-5.23-0.385-8.02-0.409h-21.21c-2.55 0-4.7-0.263-7.08-0.41h-35.36c-2.38 0-4.43 0.184-6.6 0.41-2.42 0-4.94-0.116-7.07 0.409h-48.57c-2.17 0-4.64 0.023-6.13-0.409 0.38-2.192 1.53-2.279 2.83-3.689 1.58-0.478 3.54-1.303 5.66-2.049h6.6c1.24 0.541 4.3 0.63 6.13 0.819h6.6c2.17 0 4.64 0.023 6.13-0.41 2.37-0.687 0.81-1.669 0-3.278-1.18-1.178-1.42-2.185-1.42-4.508 0.83-1.787 0.61-1.632 2.83-0.82 1.7 1.497 3.06 2.176 3.78 4.098 0.87 0.722 1.17 1.913 1.88 1.64v-5.738c-0.4-1.166-0.93-2.062-0.47-2.459 1.19 0.737 2.57 2.354 4.24 3.279 0.84 0.951 1.38 1.219 1.89 2.049-0.23-1.667-0.7-4.287-0.47-4.918 1.78 1.597 3.33 2.505 5.18 3.688 1.89 1.49 3.63 2.135 4.72 3.279 1.54 0.867 1.83 1.912 1.89-0.82v-4.098c1.15 1.696 1.95 2.349 4.24 2.869 1.43 1.215 3.02 1.434 4.72 2.459 1.79 0.885 2.44 1.752 4.71 2.049h6.6c1.69 0 3.72 0.112 4.72-0.41-1.96-0.619-2.97-1.491-4.25-2.869-0.96-1.043-1.51-1.961-1.41-2.049 2.33 0.238 5.04 0.793 6.6 1.639 1.4 0.061 2.1 0.454 3.3 0.82-1.18-2.018-1.54-2.924-3.3-4.098v-3.688c2.17 1.005 4.61 2.318 6.6 2.868 2.22 1.162 3.37 1.925 5.66 2.459 1.13 0.85 2.7 1.602 4.24 2.049 0.42-0.832-0.67-2.098-1.41-3.278-0.38-1.087-0.47-2.008-0.47-3.279 1.44 1.166 3.35 2.368 4.71 3.279 2.16 1.216 3.16 1.802 5.19 3.278 1.64 1.614 2.74 2.495 5.18 2.869h6.61c2.41 0 4.28 0.338 6.6 0.41 2.56-0.222 0.28-1.014-0.95-1.639-0.78-1.005-2.45-2.57-3.3-3.689-0.98-0.506-1.83-1.048-1.41-1.639 2.39 0.39 4.87 0.933 7.07 1.639 0.45 0.722 1.3 1.151 2.36 1.639-0.86-1.092-1.61-2.867-1.89-4.508-0.83-1.243-1.02-2.656-0.47-4.098h6.6c1.51 0.959 3.12 1.597 4.25 2.869 1.93 1.591 3.39 3.174 5.18 4.508 1.44 1.871-0.54-2.01-0.94-2.459-0.25-1.227-1.09-1.546 0.94-1.639 1.4 0.942 3.43 1.746 4.72 2.869 2.04 0.777 3.1 1.626 5.18 2.458 0.95 0.994 2.82 1.851 4.25 2.46h6.6c1.49 0.432 3.96 0.409 6.13 0.409 2.89-0.045 1.99 0.014 1.41-1.639-1.25-1.07-2.65-2.48-3.3-4.098-0.93-0.983-2.39-2.648 0-1.23 1.69 0.673 4.19 1.486 5.19 2.459 1.71 0.307 2.56 1.233 3.3 0.82-0.03-2.146-0.37-3.334-0.94-5.328-0.19-1.113-0.75-1.755-0.95-2.869 1.13 0.876 3.54 2.321 5.66 2.869 0.97 0.653 1.31 0.817 2.36 1.639-0.71-1.294-1.42-2.598-1.89-4.098-0.94-1.739-1.14-1.627 1.42-0.819 1.88 0.907 3.71 1.628 4.71 2.868 1.8 1.693 2.55 2.888 4.25 4.099 0.58 0.856 1.2 1.593 1.88 1.229v-5.328c1.16 1.506 2.86 2.563 4.72 3.279 2.16 0.674 3.27 1.594 5.19 2.049 1.22 1.535 2.48 2.284 4.71 3.689 1.88 0.22 3.73 0.409 6.13 0.409 2.42 0 4.28 0.338 6.6 0.41 1.65 0.477 3.53 0.751 5.66 0.82h6.6c2.4 0.077 3.67 0.565 6.13 0.819 2.44 0.079 3.57 0.661 6.13 0.82 1.36 0.656 4.15 0.923 6.13 1.23 1.42 1.069 3.34 1.618 5.66 2.049 1.64 0.572 3.12 1.263 4.71 2.049 1.41 1.292 3.1 2.075 4.72 2.869 1.11 1.421 2.18 2.164 3.77 3.279 1.7 0.7 2.48 1.201 5.19 1.229 2.16-0.469 4.08-0.683 6.13-0.819 1.88-0.221 3.72-0.41 6.13-0.41 1.79 0 4.1-0.157 5.18 0.41 1.46 0.598 2.22 0.819 3.77 0.819 3.07 1.556 4.61 2.285 7.08 2.869h6.6c1.55 0.48 3.46 0.904 5.18 1.23 2.59 0.865 3.75 0.814 4.25 3.278-0.25 2.444-1.34 2.565-2.83 3.689-1.61 0.794-3.51 1.914-5.66 2.869-1.46 0.861-2.65 1.203-5.19 1.229-2.28 0-4.46-0.095-6.13-0.41-1.37-0.456-4.39-0.975-5.65-1.639-2.67-0.308-3.37-1.152-5.19-2.049-1.16-1.275-3.32-2.241-5.19-3.279-2.56 0-3.81-0.335-6.13-0.41-1.42-0.465-3.74-0.312-4.71-0.819 1.61-1.229 3.49-1.612 6.13-1.64 2.38 0.37 3.92 0.684 5.19 1.64 1.53 0.16 3.43 0.413 4.71 0.819 0.86 1.161 2.15 1.465 4.24 2.049 1.4 0.738 4.19 1.486 6.13 2.05 1.93 0.364 3.18 0.793 5.66 0.819 1.99-0.873 3.73-1.126 5.19-2.459-1.75-0.189-2.18-1.093-2.83-2.049-1.54-0.907-1.86-1.737-4.24-2.049-2.71-0.028-3.49-0.529-5.19-1.23-1.9-0.359-3.94-0.137-6.13-0.409-2.19-0.545-4.07-0.82-6.6-0.82-2.03-1.258-2.54-0.378-4.72 0-2.11 0.141-3.86 0.467-6.13 0.82-1.01 1.061-2.47 1.72-4.24 2.459-0.26 1.678-0.59 3.557-1.41 5.327-0.62 1.798-1.01 3.27-1.42 4.918-1.11 1.114-1.67 2.245-2.83 3.689-1.51 1.628-2.31 1.684-4.71 2.869-2.25 0.882-3.34 1.985-5.66 2.459-2.24 1.064-3.98 1.513-6.13 2.459-2.25 0.489-4.13 1.076-6.6 1.229-2.32 0.075-3.57 0.41-6.13 0.41-2.32-0.072-4.19-0.41-6.6-0.41-2.11-0.327-4.26-0.41-6.6-0.41-2.18-0.225-4.23-0.41-6.61-0.41-2.7-0.028-4.19-0.409-7.07-0.409-2.25-0.14-4.19-0.41-6.6-0.41-2.37-0.147-4.23-0.673-6.6-0.82-2.21-0.48-4.59-0.794-7.07-0.819h-26.88c-2.17 0-4.64 0.022-6.13-0.41-2.17 0-4.64 0.022-6.13-0.41-2.53-0.082-3.86-0.677-6.13-1.639-2.58-0.081-4.12-0.471-6.13-1.23-2.07-0.243-3.45-0.672-5.66-0.82h-19.8c-1.97-0.571-4.35-0.409-6.6-0.409-2.18-0.226-4.22-0.41-6.6-0.41-1.41-0.611-3.7-0.757-5.66-0.82-1.58-0.933-3.55-1-5.66-1.639h-6.6c-2.96 0 1.59 0.301 2.36 0.41 1.74 0.356 3.55 1.029 5.18 1.639 2.11 0.633 3.48 1.147 6.13 1.229 2.64 0 5.16 0.082 7.55 0.41 2.4 0 4.35 0.27 6.6 0.41 2.4 0 4.25 0.189 6.13 0.41 1.62 0.605 3.87 1.383 6.13 1.639 1.99 0.663 3.79 0.877 5.66 1.23 2.39 0.275 3.9 0.857 6.13 1.639 2.34 0.388 4.3 0.822 6.13 1.639 2.27 0.235 4.27 0.676 6.6 0.82 2.56 0.159 4.24 0.775 6.13 1.639 2.43 0.252 3.86 0.707 6.13 1.23 2.59 0 4.61 0.333 7.07 0.41 2.18 0.36 4.45 0.762 6.6 1.229 2.21 0.137 4.52 0.368 6.6 0.82 1.99 0.234 3.69 0.744 6.13 0.82 1.88 0.22 3.73 0.409 6.13 0.409 2.32 0.072 4.18 0.41 6.6 0.41 2.39 0.149 4.51 0.41 7.08 0.41 2.61 0 5.06-0.021 7.54 0.41 3.16 0.118 5.8 0.954 8.49-0.41 1.78-0.517 3.88-0.233 6.13 0 1.97 0.571 4.34 0.41 6.6 0.41 2.27-0.762 3.69-1.11 6.13-1.639 2.09-1.084 4.81-1.669 6.6-2.46 2.41-0.374 3.92-0.803 6.13-1.229 1.82-0.215 4.09-0.712 5.66-1.23 2.25-0.35 4.14-0.804 5.65-1.639 2.13-0.279 3.09-0.963 5.66-1.229 1.95 0.8 3.94 2.539 5.66 3.688 0.55 1.336 1.87 1.467 2.83 2.869 1.52 0.916 2.86 2.149 3.77 3.279 1.84 0.348 3.41 0.866 5.19 1.229 1.31 0 2.65-0.154 3.3 0.41-1.49 0.795-2.58 2.019-4.72 3.279-1.04 1.334-2 1.619-2.35 3.688 0.77 0.472 1.98-0.42 3.3-0.82 1.43-0.961 3.23-1.394 4.24-2.459 0.65 0.283-0.24 0.439-0.47 1.23-1.12 1.398-2.06 2.736-2.83 4.098-0.66 1.818-1.68 2.652 0.94 2.049 2.12-1.272 3.35-1.817 5.19-2.459 0.26 0.225-0.28 1.059-0.94 1.64-1.02 2.098-2 2.626-3.3 4.098-1.68 0.824-2.85 1.678-3.78 2.872-1.7 1.64-2.55 2.31 0.48 1.64 2.62-1.09 4.65-2.28 7.07-2.873 0.48-0.416 2.86-0.409 2.36-0.409-0.66 2.162-2.1 3.782-3.31 5.742-1.45 0.85-2.16 1.73-3.77 2.86-2.16 1.61-3.15 2.44-5.18 3.28-0.99 1.07-2.71 1.86-4.25 2.46 2.08-0.33 3.64-1.58 6.13-2.46 2.29-0.57 3.4-0.68 5.19 0 2.22 0 4.27 0.09 5.66 0.82-1.48 1.2-4.07 2.36-6.13 3.28-1.16 1.23-3.18 1.86-5.19 2.46-1.48 0.63-3.83 1.02-5.19 1.64-3.81 0 1.07-0.08 2.36-0.41 2.21-0.11 3.75-0.85 4.72 0.41 1.84 0.35 4.03 0.74 5.65 1.64-2.19 0.44-3.26 1.71-5.18 2.05-2.69 0-3.92 0.25-6.13 0.82-2.53 0.02-4.12 0.58-6.13 0.82-1.07 0.28-2.29 0.38-3.3 0.82 2.41 0 4.22 0.38 6.6 0.41 0.77 0.89 1.81 1.66 2.83 2.87 1.12 1.2 2.31 1.59 3.3 2.86-2.13 0.28-3.09 0.97-5.66 1.23-2.47 0.03-3.57 0.41-6.13 0.41h-5.66c2.16 0 2.95-0.35 3.78 1.23 1.02 1.32 1.39 2.35 0.94 3.69-2.6 0-4.1-0.18-5.66-0.82-1.42-0.06-2.3-0.41-3.77-0.41 1.79 0.88 2.66 2.36 3.3 4.1 0.64 2.24 0.67 3.37-1.42 4.1-2.39-0.65-3.77-1.63-6.13-2.46-2.15-0.06-5.15-0.19-6.6-0.82-2.4-0.59-3.39-2.03-5.18-3.28-1.12-0.23-2.97-0.93-1.42-1.23 0.58 1.96 1.09 3.54 2.36 4.92 0 1.83 0.25 1.99-1.89 2.05-1.21-1.4-3.55-3.06-5.18-4.1-2.1-1-4.4-1.68-6.6-2.46-2.29-0.69-3.48-1.28-5.19-2.46-0.4-0.6-1.51-0.97-2.36-1.64 1.46 1.29 2.16 3.18 3.77 4.51 0.44 1.96 1 3.26 1.42 4.92-0.35 1.22-1.26 0.82-2.83 0.82-2.32-0.67-3.8-1.48-6.13-1.64-1.52 1.1-1.81 2.64-4.24 3.69-1.32 0-2.66 0.15-3.3-0.41-0.03-2.15-0.48-3.1-0.48-5.33 0-1.56 0.18-3.56-0.47-4.51-1.58 0.04-2.45 0.2-3.3 0.82-0.69 1.17-0.94 2.28-0.94 4.1-1.23 0.64-2.01 0.82-4.24 0.82-1.74-0.5-3.96-0.34-6.13 0-3.18-0.13-3.22-0.78-3.78-3.28-0.96-2.07-1.82-3.22-3.3-4.1-1.66-0.94 0.15-1.15 1.42-1.64 2.03-0.77 3.36-1.07 5.66-1.23 2.56 0 3.81-0.33 6.13-0.41 1.4 0-0.33-0.38-1.42-1.22-2.08-0.46-4.39-0.69-6.6-0.82-2.25 0.51-3.24 1.04-4.24 2.86-1.27 1.21-2.07 2.76-4.25 3.69-1.33 0.7-2.91 0.51-3.77-0.41-1.86-1.3-2.05-1.82-2.83-4.1v-5.73c0-2.09 0.22-3.7 0.47-5.33 0.25-1.79 0.08-2.31 2.36-2.46 2.53 0.08 4.42 0.53 6.6 1.23 1.29 0.76 3.16 2.08 5.19 3.28 2.23 0.72 3.97 1.2 6.6 1.23 2.12 0 4.28 0.12 6.13-0.41 0.58-1.39 0.91-2.33-0.94-2.87-0.66-1.2-0.74-2.4-2.36-2.87-2.56-0.08-4.35-0.62-5.66-1.64-2.49-0.94-0.39-0.96 1.41-1.23 2.59-0.3 4.56-0.45 6.13-1.64 2.23-0.95 2.81-1.91 3.78-3.28 1.53-1.2 1.88-0.75 1.88 1.23 0 2.26 0.21 3.56 0.95 4.92 2.07 1.67 2.54 2.38 4.71 3.28 1.17 0.86 3.71 1 5.19 1.64 2.17 0 4.63 0.02 6.13-0.41 1.51-0.66 2.81-1.56 4.24-2.87 0.98-1.32 2.21-2.21 2.83-4.1 1.06-0.74 1.27-2.12 0.47-3.28-0.35-2.04-1.07-2.14-2.83-2.87-1.4-0.83-2.56-1.46-4.71-1.63-1.33-0.98-3.08-1.23-5.66-1.23-2.4-0.08-3.67-0.57-6.13-0.82h-6.6c-2.51 0-4.02-0.27-6.13-0.41h-6.6c-2.46 0.45-3.84 1.19-6.13 1.64-2.16 0.46-4.21 0.79-6.6 0.82-2.88 0-5.24-0.3-8.02-0.41-2.15 0.33-4.48 0.38-5.66 1.22-1.63 0.81-3.05 1.73-5.18 2.05-1.23 0.88-3.16 1.12-5.19 1.64-2.52 0.29-4.46 1.03-7.07 1.23-2.3 0.5-3.66 0.8-6.13 0.82-2.32 0.07-4.19 0.41-6.6 0.41-2.17 0.65-3.44 0.9-5.66 1.64-2.03 0.44-4.53 0.5-6.6 0.82-2.18 0-4.64-0.02-6.13 0.41h-6.6c-2.45-0.15-4.68-0.57-7.08-0.82-1.93-0.23-4.09-0.51-6.13-1.23-1.8-0.42-3.05-0.98-5.18-1.23h-6.6c-2.33-0.07-4.19-0.41-6.61-0.41h-13.2c-2.14-0.64-3.16-1.22-5.18-1.64-1.19-0.92-3.6-1.53-5.19-2.46-1.92-0.39-3.29-1.19-5.66-1.63-1.68-1.02-3.01-1.44-4.24-2.46-1.82-0.76-3.29-1.69-4.25-2.87-1.29-0.768-2.62-2.159-3.77-3.691-1.07-1.019-2.53-2.544-3.77-3.279-0.96-1.135-2.4-2.649-3.3-4.098-0.77-1.362-1.71-2.701-2.83-4.099-1.59-1.355-2.43-2.853-3.77-3.688-1.28-1.398-2.54-2.679-4.25-3.689-1.11-1.747-3.37-2.934-4.71-4.098-2.2-0.66-3.25-1.451-5.66-1.639h-6.6c-2.38-0.025-4.19-0.41-6.6-0.41-1.39-0.818-3.19-0.82-5.66-0.82-2.18 0.474-4.62 0.41-7.07 0.41-1.98 0.572-4.59 0.382-6.6 0.82-0.34 0.541 0.79 1.102 2.35 1.229 1.39 0.989 3.62 1.678 5.19 2.049 1.69 0.522 3.18 0.82 5.66 0.82h6.6c2.64 0.082 3.66 0.74 6.13 0.82 2.35 0.511 4.47 0.626 6.6 1.639 2.01 0.606 3.77 1.526 5.66 2.049 1.42 1.266 2.32 1.554 2.83 3.689 0.81 1.173 0.57 3.07-0.47 4.098-0.54 1.7-1.4 2.459-2.36 3.689-0.74 1.356-0.94 2.658-0.94 4.918 0 2.259 0.01 3.831 1.41 4.921 0.96 1.23 2.23 2.06 4.24 2.87 2.08 0.62 4.52 0.62 6.6 1.22 2.93 0.24 2.36 1.11 2.36 3.69 0.41 2.27 1.38 2.92 1.42 5.33 0 2.23-0.39 3.32-0.47 5.33 0 2.05 0.47 3.14-1.42 3.69-1.38 0.82-3.19 0.82-5.66 0.82-2.11 0.32-4.25 0.41-6.6 0.41 1.47 1.89 3.51 3.63 2.36 5.32-3.06-0.09-3.5-0.83-5.66-2.04-1.11-0.66-3.29-0.82-4.71-1.23 1.54 1.25 3.53 2.51 4.24 4.5 0.93 0.9-0.21 1.46-1.42 1.64h-6.6c-2.41 0-4.48-0.27-6.13-0.82-0.51-0.19-3.06-1.26-0.94-0.41 0.99 1.38 1.56 3.28 1.89 4.92 1.16 1.02 0.12 1.23-1.42 1.23-2.6 0-4.37-0.55-6.13-1.23-0.83-0.68-1.31-1.45-1.88-1.23 0.75 1.17-0.23 2.31-1.42 3.28-0.86 1.16-1.48 1.8-3.77 2.05-1.31-1.17-2.74-1.78-3.77-2.87-1.73-0.35-3.12-0.79-4.25-1.64 1.23 0.86 1.02 1.98 0.48 3.28-0.78 1.5-1.26 1.23-3.3 1.23-1.23-0.66-3.66-1.85-4.72-2.46 1.27 0.89 1.27 2.39 0 3.28-1.35 0.82-2.29-0.3-3.3-0.82-1.09-0.84-3.4-1.9-4.72-2.46-0.46-0.41-1.84-1.29-1.41-0.41 0 1.78-0.01 3.72-0.47 4.92-1.48 1.85-1.37 2.24-3.77 1.23-1.14-1.56-2.59-2.87-4.25-3.69-1.29-0.41-2.06-1.08-2.35-0.82 0 2.47-0.44 3.13-1.42 4.51-2.79 0-4.09-0.46-6.13-1.23-2.06-0.85-1.57-1.12-1.41 1.23-0.76 0.88-1.26 2.36-1.89 3.28-1.36 1.42-2.08 1.62-4.24 0.41-1.17-0.67-3.08-2.19-4.25-3.28-0.74-1.54-1.1-2.3-2.83-3.28 1.06 0.74 1.27 2.12 0.48 3.28-1.59 0.81-2.37-0.27-4.25-0.82-1.52-0.49-2.37-1.16-3.3-1.64 1.07 0.75 1.21 2.39 1.42 4.1 0.31 1.51 0.36 1.23-1.89 1.23-1.69-0.4-3.52-0.95-5.66-1.64-2.29-0.84-3.91-1.76-4.71-3.69-0.84-1.28-2.45-2.97-3.3-4.1-1.13-1.12-1.83-2.69-2.36-1.23-1.14 0.99-2.96 3.03-3.77 4.1-1.37 0.81-2.19 1.86-3.3 2.87-0.76 1.02-1.65 2.15-2.83 1.64-1.21-1.85-1.9-2.78-2.83-4.1-2.02-1.68-1.95-2.65-4.72-2.87-2.06 0-4.79 0.17-6.13-0.41 0.65-1.74 1.59-2.71 2.83-4.1 0.94-2.14 1.44-3.35 0.95-5.32-2.54 0.17-3.45 0.8-4.72 2.45-1.39 1.51-1.68 1.97-4.24 2.46-0.82 0.43-1.9-0.49-2.36-1.23-1.15-0.87-0.94-1.34-0.94-2.86-1.72-0.71-3.18-1.31-4.72-3.28-0.27-1.37-0.83-2.73 0-3.69 2.05 0.24 3.81 0.92 6.13 1.23 2.4 0 4.25 0.19 6.13 0.41 2.56 0 3.65 0.38 6.13 0.41 2.6-0.21 3.06-0.61 3.3-2.87-0.11-2.64-0.8-2.46-2.83-3.69-2.49-0.54-3.39-1.2-6.13-1.23h-6.6c-2.04-0.34-1.84-0.89-1.89-2.87 0.04-2.25 0.65-3.16 0.95-5.33 1.1-1.77 0.95-2.59 3.3-2.05 1.58 0.48 3.87 1.1 5.18 1.64 1.63 0.67 2.84 1.18 4.72 2.05 1.53 0.59 3.88 1.52 5.19 2.05 1.2 1.42 1.73 2.51 3.3 3.69 1.32 0.51 2.37 0.9 3.77 0.41-0.04-2.5-0.77-2.84-1.42-4.92-1.28-0.84-1.74-1.83-0.94-3.69 1.23-0.74 2.48-2.23 3.3-3.27 1.48-0.43 4.25-0.63 5.66-1.23 2.24-0.63 3.91-1.08 6.13-1.23 0 2.09 0.31 3.78 0.47 5.73 0.51 1.71 0.91 4 1.42 5.33 1.24 0.89 2.11 2.34 3.77 3.69 1.92 1.24 4.44 1.97 5.66 2.87 1.77 0.36 3.34 0.88 5.18 1.23 2.36 0.36 3.79 0.74 6.13 0.82 2.04 0.21 3.9 0.41 6.13 0.41 1.34-0.58 4.07-0.41 6.13-0.41 2.6 0 4.1-0.18 5.66-0.82 1.5-0.68 3.6-1.25 4.71-2.05 1.75-0.36 3.55-1.03 5.19-1.64 0.49-0.85-1.32-0.04-2.83 0-1.89-0.45-2.83-1.19-4.71-1.64-1.35-0.82-4.03-1.36-5.19-2.05-2.3-0.44-3.67-1.5-5.66-2.05-1.24-0.96-2.89-1.76-4.71-2.46-1.62-1.03-3.28-1.63-4.25-2.87-1.17-1.79-1.65-2.98-2.35-4.5-0.65-1.98-1.27-3.673-0.48-5.741 0.63-1.357 1.27-2.742 1.89-4.098 1.3-1.621 3.21-2.142 4.72-3.279 1.83-0.417 3.58-1.33 5.18-2.049 1.57-0.648 2.97-1.307 5.19-2.049 0.55-0.583 1.72-0.917 2.36-1.64h-6.6c-2.35 0-4.5-0.082-6.61-0.41h-6.6c-2.25 0-4.63-0.161-6.6 0.41-2.63 0-4.1 0.511-6.13 0.82-1.47 0.907-3.55 1.375-5.66 2.049-1.94 0.449-4.21 0.6-5.65 1.23-2.56 0.026-4.5 0.293-6.61 1.229-2.38 0.799-3.42 1.378-5.65 2.049-1.36 0.449-4.41 1.036-5.66 1.64-2.33 0.265-4.53 0.825-6.6 1.639-1.92 0.455-3.01 1.017-4.72 2.049-1.68 0.4-3.52 0.953-5.66 1.639-2.21 0.413-4.52 0.91-6.6 1.64-1.87 0.384-3.23 0.978-5.66 1.232-1.35 0.65-4.17 1.27-6.12 1.64-2.13 1.16-3.07 1.65-5.19 2.46-1.41 0.94-3.01 1.64-4.72 2.04-1.4 0.95-3 1.65-4.71 2.05-1.7 0.5-3.33 0.8-5.66 0.82-2.08 0.73-4.39 1.23-6.6 1.64-2.22 0.62-4.45 1.27-6.6 2.05-2.37 0.44-4.28 1.2-6.13 2.05-1.86 0.42-3.76 1.37-6.13 1.64-2.09 0.63-4.19 0.82-6.6 0.82-1.25 0.54-4.3 0.63-6.13 0.82-2.35 0-4.5-0.08-6.6-0.41-2.1-0.03-3.03-0.23-4.25-1.23-0.56-1.06-0.94-1.55-0.94-3.28 1.06-0.83 2-2.42 2.83-3.69 1.8-0.36 3.66-0.82 6.13-0.82h6.6c2.15-0.33 4.26-0.6 6.13-0.82 2.21-0.34 4.46-0.74 6.6-1.23 2.44-0.25 4.69-0.82 7.07-1.22 1.54-0.51 3.9-1.11 5.19-1.64 2.38-0.45 4.08-1.03 6.13-1.64 2.15-0.42 3.83-0.73 6.13-1.23 2.26 0 4.63 0.16 6.6-0.41 2.6-0.03 3.88-0.35 6.13-1.232 2.12-0.249 3.47-0.869 5.19-1.64 1.51-0.527 3.38-1.275 5.18-1.639 2.04-1.112 3.66-1.434 6.13-2.049 1.99-0.554 4.54-1.157 6.13-1.64 2.33-0.39 3.73-0.856 6.13-1.229 1.32-0.696 4.09-1.324 5.66-1.639 2.27-0.44 3.48-0.974 5.66-1.23 1.45-0.542 4.21-1.49 5.66-2.049 2.4-0.671 4.03-1.014 6.13-2.049 2.45-0.026 4.35-0.471 6.6-0.82 1.93-0.727 3.5-1.386 5.66-1.639 2.06-0.476 3.99-0.747 5.65-1.23 2.28-0.235 4.28-0.675 6.61-0.819 2.37-0.025 4.18-0.41 6.6-0.41 1.85-0.379 3.3-1.213 5.18-1.64 0.79-1.112 0.86-0.877-0.94-0.409h-6.6c-1.6-0.455-4.3-0.41-6.6-0.41-2.46 0-4.89-0.065-7.08 0.41-2.45 0.025-4.35 0.471-6.6 0.819-1.66 0.578-3.16 1.03-5.18 1.64-2.03 0.766-3.49 0.819-6.13 0.819h-6.6c-2.31 0-3.4 0.151-4.72 1.23 1.59 0.92 0.62 1.953-1.41 2.459-0.61-0.478-0.87-1.596-1.42-2.459-0.34 2.022-0.99 3.293-3.3 3.688-1.78-1.107-1.08-2.061-3.3-1.639-1.77 0.85-4.26 2.51-6.13 3.279-2.21-0.057-2.17-0.558-2.36-2.459-0.57-0.502-0.9 1.045-1.88 2.049-0.51 1.264-0.96 2.229-2.36 2.869-0.97-0.84-1.53-1.423-1.89-2.459-1.02 1.651-2.02 3.2-4.24 4.508 0-1.193-0.18-1.197-0.94-2.049-1.19 1.479-2.81 3.085-4.72 4.508-1.5 0.291-0.59-0.041-1.41-1.23 0-0.908 0.25-4.663-0.47-2.459-1.23 1.768-1.93 3.508-3.3 4.508-0.97 1.046-2.49 1.174-3.78 0.82-0.4-0.87-0.75-2.189-1.41-2.869-1.31 1.276-3.46 3.567-4.72 4.508-0.1-2.531-0.45-3.859-3.3-3.278-2.33 1.185-3.35 2.156-5.65 2.459-1.39 0.45-0.97-0.824-1.89-2.049-0.23-1.12-0.52-1.854-1.42-0.82-1.6 0.968-2.38 2.425-4.71 3.279-0.58-1.129-1.41-2.107-1.89-3.279-1.28 1.867-2.74 3.684-4.24 4.918-1.85-0.192-4.49-0.173-5.19-0.41-0.19-1.422-0.47-2.327-0.47-4.098-0.95 1.653-2.64 3.417-4.24 5.328-1.31 1.422-1.92-0.064-3.3-0.82 0-1.265-0.27-1.477-0.47-2.459-1.4 1.822-2.84 3.614-3.78 5.331-2.46 0-4.37 0.1-5.65-0.82-1.36-0.975-1.8-2.225-1.89-4.511l1.89 4.511c-1.36-0.975-1.8-2.225-1.89-4.511v-0.41c-0.22 2.283-1.4 3.623-2.36 4.921-1.8 0.34-2.59 0.91-4.24 0.41-0.5-1.594-0.94-2.588-0.94-4.921l0.94 4.921c-0.5-1.594-0.94-2.588-0.94-4.921v-0.41c-1.42 1.659-2.88 2.598-5.19 3.689-1.92 0-3.93-0.009-5.19-0.41-1.09-1.578-0.84-1.511 0.95-3.279 1.85-0.987 3.33-1.687 3.77-3.688 0.88-1.019 0.94-2.217 0.94-4.099-2.04-0.614-3.54-0.98-5.66-1.229-1.92-0.216-1.41-0.754-1.41-2.459 0.99-0.883 3.01-3.093 3.77-4.098 1.09-1.376 0.76-1.591-0.94-2.46-0.84-1.071-1.84-2.285-2.83-3.278-0.3-1.199-0.76-2.586 0-3.689 2.71-0.505 3.97-1.035 6.6 0 2.16 0.067 4.6 0.377 6.13 0.82 2.32 0.072 4.18 0.41 6.6 0.41h27.82c3.19 0 6.38 0.066 9.43-0.41h42.91c2.57-0.077 4.91-0.41 7.54-0.41 2.04-0.444 4.29-0.41 6.6-0.41 2.41 0 4.22-0.385 6.6-0.409 2.74-0.274 5.36-0.538 8.02-1.23 2.25-0.14 4.2-0.41 6.6-0.41h6.6c2.41 0 4.52-0.194 6.6-0.819 2.59 0 4.61-0.334 7.08-0.41 2.24-0.575 5.18-0.576 7.54-0.82 2.66-0.165 5.15-0.41 8.02-0.41 2.04-0.444 4.29-0.41 6.6-0.41 2.17-0.225 4.22-0.409 6.6-0.409 2.25-0.14 4.19-0.41 6.6-0.41 2.6-0.121 4.8-0.41 7.54-0.41 2.41-0.334 4.89-0.41 7.55-0.41 3.04 0 6.19 0.071 8.96-0.41h7.07c2.46-0.263 4.88-0.41 7.54-0.41 2.39-0.185 4.77-0.462 7.08-0.819 1.74-0.331 3.99-0.877 6.12-1.23 2.38-0.369 4.51-0.76 7.08-0.819 2.56 0 3.65-0.384 6.13-0.41 2.3-0.072 4.48-0.36 6.6-0.82 2.11-0.141 3.62-0.41 6.13-0.41h2.83c-1.97-0.571-4.35-0.41-6.6-0.41-2.35 0-4.5 0.083-6.61 0.41-2.41 0-4.22 0.385-6.6 0.41-2.34 0.075-3.77 0.454-6.13 0.82-2.5 0.077-4.55 0.587-7.07 0.819-2.63 0-4.92 0.39-7.54 0.41h-13.21c-2.64 0.345-5.24 0.41-8.01 0.41h-7.55c-2.37 0.357-4.91 0.41-7.54 0.41h-7.54c-2.45 0.488-4.96 0.41-7.55 0.41-2.52 0.154-4.84 0.41-7.54 0.41-2.38 0.024-4.19 0.409-6.6 0.409-1.96 0.568-4.37 0.613-6.13 0.82-2.41 0-4.25 0.189-6.13 0.41-2.57 0-4.64 0.281-7.08 0.41-2.64 0-5.16 0.04-7.54 0.41-2.42 0-4.28 0.337-6.6 0.409-2.41 0-4.22 0.386-6.6 0.41h-13.2c-2 0.234-3.69 0.744-6.13 0.82h-13.68c-2.11 0.327-4.25 0.41-6.6 0.41-2.13 0.22-4.55 0.375-6.6 0.819-2.14 0.133-4.63 0.249-6.6 0.82-2.42 0-4.28 0.338-6.6 0.41-2.41 0-4.35 0.27-6.6 0.41h-39.61c-2.21 0-4.71-0.179-6.13-0.82-1.62-0.306-3.44-0.615-5.19-0.82l5.19 0.82c-1.62-0.306-3.44-0.615-5.66-2.869zm458 18.441c-0.27 0.046-1.04 0.271-1.5 0.579-0.19 0.571 0.39 0.566 1.16 0.58 1.64 0.138 3.32 0.145 5 0.145 1.35-0.308 2.83-0.283 4.17-0.435 0.74-0.17 1.95-0.2 2.5-0.435 0.98-0.263 2-0.406 3-0.579 0.96-0.156 1.6-0.427 2.67-0.435 0.77-0.118 1.76-0.076 2.5-0.29h2.5c0.88 0.092 1.33 0.294 2.17 0.435 0.78 0.252 1.42 0.257 2 0.724 0.75 0.448 0.83 0.659 0.83 1.594-0.03 0.835-0.44 1.287-0.66 2.029-0.46 0.661-0.76 1.353-1.17 2.028-0.1 0.619-0.3 1.25-0.33 2.029 0 0.731 0.07 1.36 0.16 2.029 0.1 0.784 0.24 1.321 0.84 2.028 0.67 0.221 1.48 0.175 2.16 0 0.78-0.429 1.34-0.592 2.17-0.869 0.52-0.461 1.22-0.636 1.83-1.015 0.68-0.402 1.3-0.52 1.67-1.159 0.21-0.725 0.06-1.278 0-2.028-0.32-0.811-0.56-1.702-0.67-2.608-0.05-0.856-0.27-1.451-0.33-2.174-0.03-0.803-0.28-1.371-0.33-2.173-0.2-0.692-0.31-1.422-0.34-2.174-0.31-0.401-0.58-1.136-1-1.739-0.33-0.754-0.53-1.086-1-1.738-0.4-0.525-1.02-0.905-1.5-1.16-0.58-0.238-0.92-0.513-1.83-0.579-0.77-0.224-1.55-0.121-2.33 0-0.97 0.068-1.82 0.223-2.67 0.435-0.87 0.338-1.8 0.526-2.67 0.869-0.92 0.293-1.83 0.473-2.67 0.869-1.13 0.234-2.2 0.494-3.33 0.87-1.03 0.242-1.89 0.556-2.83 0.869-1.08 0.28-2.13 0.684-3.17 1.159-1.12 0.153-2.1 0.447-3.17 0.58-0.81 0.05-1.55 0.166-2 0.435-0.9 0.254-1.05 0.507-1.83 1.304zm31 14.779c-0.16 0.296-0.81 1.289-1.33 1.879-2.05 1.96-4.09 3.87-6.17 5.8-1.46 1.26-3.05 2.44-4.33 3.77-0.81 0.7-1.55 1.41-2.17 2.17-0.34 0.71-0.62 1.23-1 1.89-0.17 0.61-0.56 1.28-0.83 2.02-0.64 0.99-1.13 1.98-1.67 3.05-0.36 0.77-0.84 1.32-1.67 1.88-0.51 0.62-1.35 1.04-2 1.3-0.77 0.37-1.13 0.49-1.5 1.16-0.49 0.5-0.77 1.18-0.83 1.89-0.3 0.85 0.27 0.72 1.16 0.72 0.81 0.37 1.53 0.44 2.51 0.44 1.09-0.01 1.74-0.27 2.66-0.58 1-0.11 1.84-0.47 2.84-0.73 1.01-0.26 2.07-0.29 3-0.58 0.98-0.38 1.92-0.71 2.83-1.3 0.78-0.57 1.28-1.18 1.84-1.74 0.44-0.73 0.91-1.22 1.5-1.88 0.44-0.82 1-1.64 1.5-2.47 0.58-0.98 1.02-1.81 1.66-2.75 0.55-0.85 1.2-1.79 1.84-2.61 0.77-1.23 1.05-2.7 1.5-4.06 0.15-0.79 0.27-1.63 0.33-2.46 0-0.84 0.16-1.5 0.17-2.32-0.2-0.68-0.35-1.18-0.5-1.74-0.18-0.7-0.5-1.32-0.67-2.024l0.67 2.024c-0.18-0.7-0.5-1.32-1.34-2.749zm-84.18 38.689c-0.2 0.07-1.23 0.45-1.67 0.72-0.74 0.67-1.3 1.08-1.83 1.74-0.71 0.69-0.96 1.01-1.34 1.74-0.03 0.82-0.32 1.17-0.5 1.74-0.47 0.32-0.97 1.07-1.5 1.45-0.53 0.3-1.04 0.57-1.66 1.01-0.71 0.22-1.42 0.55-1.84 0.87-0.76 0.18 0.64 0.09 1 0 0.89-0.23 1.45-0.29 2.5-0.29 0.75-0.38 1.23-0.43 2.17-0.43 0.42-0.31 1.31-0.54 2-0.87 0.79-0.22 1.53-0.54 2.33-0.73 0.72-0.46 1.56-0.88 2.17-1.3 0.47-0.58 0.99-0.82 1.33-1.45 0.33-0.47 0.08-1.04-0.16-1.59-0.24-0.43-0.7-1.13-1.17-1.45-0.65-0.39-0.83-0.68-1.83-1.16zm-9.5-15.51h-2.84c-0.87 0.17-1.69 0.44-2.5 0.73-0.86 0.18-1.52 0.42-2.17 0.58-0.3 0.37-1.13 1.04-1.83 1.45-0.3 0.37-1.14 0.76-1.5 1.16-0.45 0.31-0.86 0.95-1.17 1.45-0.23 0.54 0.39 0.26 0.84 0.14 1.34-0.35 2.75-0.76 4.16-0.87 0.57-0.28 1.47-0.29 2.34-0.29 0.72 0 1.51-0.01 2 0.15 0.51 0.4 1.18 0.75 1.83 1.01 0.59 0.35 0.92 0.56 1.67 0.58 0-0.8 0.02-1.6-0.17-2.32-0.32-0.67-0.63-1.23-0.66-2.03-0.22-0.63-0.15-1 0-1.74zm23.67-13.91c-0.08-0.17-0.25-0.77-0.84-0.86-0.45-0.32-1.29-0.83-1.83-1.16-0.24-0.46-0.39-0.44-1.17-0.44h-2.33c-0.33 0.83-0.42 1.74-0.17 2.61 0.29 0.88 0.59 1.3 1.17 2.03 0.74 0.67 0.99 1.05 2 1.3 0.46 0.3 0.88 0.13 1.17-0.29 0.49-0.29 0.96-0.67 1.16-1.3 0.32-0.43 0.54-1.15 0.84-1.89zm20.84 36.81c-0.08 0.22-0.48 1.09-0.5 1.74 0.28 0.64 0.49 1.19 0.83 1.74 0.41 0.57 0.68 1.21 1 1.59 0.77-0.27 1.48-1.06 1.83-1.88 0.39-0.67 0.76-1.05 0.84-1.89-0.09-0.87-0.34-0.83-1.17-1.16-0.94-0.3-1.3-0.28-2 0h2c-0.94-0.3-1.3-0.28-2.83-0.14zm-22.68-2.03c0-0.15 0.64-0.1 1.17-0.14 0.74-0.2 1.72-0.21 2.5-0.29 0.87 0.02 1.43 0.28 2 0.72 0.54 0.39 0.5 0.86 0.5 1.74-0.14 0.67-0.42 1.39-0.67 1.88-0.42 0.54-0.68 1.22-1.33 1.45-0.76-0.3-1.28-0.73-1.83-1.3-0.16-0.52-0.59-1.27-0.84-1.74-0.35-0.71-0.6-0.91-1.33-1.45-0.36-0.1-0.17-0.36-0.17-0.87zm-121.02-78.969h-2.67c-0.92 0-1.85-0.031-2.67 0.145-0.92 0.099-1.44 0.305-2 0.869-0.44 0.725-0.8 1.081-0.5 1.884 0.73 0.474 1.56 0.995 2.5 1.304 2.37 0.597 4.49 0.914 6.84 1.594 1.53 0.174 2.8 0.388 4.16 0.869 3.13 0.965 6.38 1.753 9.51 2.608 1.16 0.507 2.43 0.801 3.66 1.159 2.69 0 1.36-0.14 4 0.435 2.99 0.621 6.01 1.379 9.01 1.739 2.73 0.539 5.41 1.097 8.17 1.449 1.68 0.302 3.38 0.487 5 0.869 1.16 0.37 2.4 0.614 3.66 0.87 1.18 0.262 2.06 0.427 3.34 0.434 0.92 0.172 1.91 0.116 2.83 0.29 1.69 0.489 3.13 0.962 4.84 1.014 1.26 0 2.5-0.029 3.66-0.144 1.1-0.199 2.17-0.402 3.34-0.435 0.86-0.31 1.93-0.47 2.83-0.725 0.8-0.173 1.6-0.426 2.34-0.724 0.78-0.119 1.47-0.276 0.83-0.725-0.4-0.469-1.1-0.827-1.83-1.304-1.07-0.297-2.14-0.784-3.17-1.014-1.28-0.221-2.65-0.449-4-0.58-1.6-0.167-3.25-0.237-4.84-0.434-1.38-0.161-2.65-0.441-4-0.725-1.79-0.195-3.46-0.709-5.33-1.159-1.84-0.233-3.83-0.594-5.5-1.159-1.26-0.184-2.5-0.542-3.84-0.725-1.32-0.358-2.74-0.492-4-0.869-1.21-0.041-2.49-0.076-3.67-0.29-1 0-1.91-0.05-2.83-0.145-1.12-0.139-2.11-0.39-3.33-0.434-1.13-0.217-2.23-0.198-3.34-0.435-0.94-0.208-1.93-0.427-2.83-0.725-1.15-0.322-2.12-0.614-3.17-1.014-1.01-0.332-2.07-0.579-3.17-0.724-0.99-0.183-2.21-0.283-3.17-0.58-0.91-0.183-2.15-0.445-2.83-0.724-0.89-0.093-1.74-0.341-2.67-0.435-0.72-0.234-1.57-0.27-2.33-0.435-0.72-0.06-1.31-0.226-2-0.29l2 0.29c-0.72-0.06-1.31-0.226-2.83-0.869zm20.33-7.1c-0.27 0.355-0.86 0.908-1.16 1.304-0.52 0.541-0.05 0.796 0.66 1.014 0.9 0.579 2.35 0.781 3.67 0.87 1 0.109 1.96 0.144 3 0.144 1.38 0.327 2.13 0.435 3.5 0.435 1.63 0 3.11 0.095 4.67 0.145 1.28 0.084 2.31 0.269 3.5 0.58 1.59 0.109 3.2 0.145 4.84 0.145h10.5c1.7 0.212 3.43 0.357 5.17 0.434 3.61 0.797 7.22 1.352 10.83 2.174 2.36 0.317 4.63 0.795 7 1.014 2.36 0.182 4.65 0.726 7.01 1.014 1.92 0 3.79 0.025 5.66 0.145 1.78 0.461 3.31 0.869 5.17 0.869 1.69 0 3.36 0.041 5 0.145h4.84c1.27-0.132 2.63-0.145 4-0.145h7.83c1.14 0 2.25-0.012 3.34-0.144h7.83c1.52 0 3.03 0.014 4.5 0.144 1.49 0 2.87-0.104 4.34-0.144 1.04 0.132 2.08 0.144 3.16 0.144 0.93 0 1.8-0.011 2.67 0.145 0.94 0.277 1.87 0.649 2.84 0.725 0.99 0.534 0.43 0.29 1.33 0.29 1.42 0 2.54-0.077 3.83-0.435 1.13 0 2.1-0.095 3.17-0.145 1.04 0 2.05-0.018 3-0.145 0.86-0.231 1.8-0.344 2.67-0.579h3.17c1.2-0.035 2.21-0.266 3.33-0.58 1.16-0.409 2.19-0.749 3.33-1.014 1.21-0.403 2.26-0.742 3.51-1.015 1.05-0.376 1.86-0.926 2.83-1.304 0.91-0.558 1.53-0.917 2.33-1.593 0.76-0.507 1.43-1.181 2.34-1.739 1.14-0.8 2.48-1.829 3.83-2.608 1-0.587 1.49-1.05 2.17-1.884 0.59-0.696 0.68-1.162 1-1.884v-2.898c-0.2-0.844-0.29-1.538-0.67-2.173-0.06-0.382-0.27-0.832-0.5-1.014-0.54 0.537-1 1.488-1.5 2.173-0.39 0.749-0.97 1.441-1.5 2.173-1.26 1.036-2.62 1.949-4 2.898-0.93 0.475-1.72 1.032-2.67 1.449-0.63 0.473-1.15 0.874-1.66 1.449-0.92 0.377-1.75 0.94-2.67 1.304-1.73 0.877-3.56 1.52-5.34 2.319-0.97 0.495-1.79 0.986-2.83 1.159-0.9 0.384-1.83 0.739-2.83 0.869-1.22 0.026-2.2 0.322-3.34 0.435-1.25 0.23-2.51 0.29-3.83 0.29-1.36 0.023-2.63 0.145-4 0.145-1.13 0.047-2.16 0.145-3.34 0.145-1.43 0-2.76-0.115-4.16-0.145h-3.34c-1.69 0-3.37 0.003-5 0.145-1.43 0.155-2.7 0.434-4.17 0.434-1.29-0.327-1.77-0.434-3-0.434-1.17-0.205-2.43-0.145-3.67-0.145h-6.66c-1.2-0.02-2.19-0.139-3.34-0.29-1.2-0.115-2.54-0.196-3.67-0.435-1.35-0.022-2.73-0.119-4-0.29-1.23-0.008-2.53-0.082-3.66-0.289-0.91-0.065-2.02-0.056-2.84-0.29-1.22-0.009-2.3-0.215-3.5-0.29-1.06-0.285-2.26-0.341-3.33-0.579-1.13-0.019-2.05-0.145-3.17-0.145-0.88 0-1.7-0.034-2.5-0.145-0.93 0-1.77-0.095-2.67-0.145-0.38 0-1.85 0.355-2.67 0-1.26 0-2.4-0.137-3.66-0.145-1.47-0.282-3.07-0.29-4.67-0.29-1.34-0.206-2.77-0.145-4.17-0.145-0.81-0.045-1.75-0.073-2.5-0.29-0.85 0-1.51-0.119-2.33-0.144-0.83-0.086-1.58-0.224-2.34-0.435-0.78-0.219-1.48-0.483-2.33-0.58-0.73-0.21-1.51-0.281-2.33-0.29-0.9-0.009-1.46-0.206-2.17-0.289-0.9-0.048-1.6-0.203-2.34-0.29-0.73-0.219-1.58-0.271-2.33-0.435h-2.33c-0.79-0.123-1.63-0.145-2.5-0.145-1-0.12-2.14-0.13-3.17-0.29-1.19 0-2.17-0.134-3.34-0.144-1.17 0-2.43 0.056-3.5-0.145h-3.16c-0.92 0-1.63-0.118-2.5-0.145-0.73-0.157-1.52-0.145-2.34-0.145-0.66-0.078-1.32-0.145-2.17-0.145-0.45 0.037-1.55-0.475-1.83-0.29 0 0-1.47 0.476-2.17 0.58zm-101.85-40.861c-0.23 0-0.59 0.791-1 1.738-1.1 1.203-1.6 1.71-3 2.609-1.58 0.552-3.09 1.213-4.67 1.738-1.48 0.729-2.57 1.121-4.34 1.449-1.5 0.528-2.88 0.58-4.66 0.58-1.06 0.305-2.8 0.29-4.34 0.29-1.63 0-3.22 0.024-4.67-0.29-1.58-0.295-3-0.697-4.66-0.869-1.17-0.387-2.95-0.862-4.34-1.449-1.62-0.471-3.1-0.978-4.33-1.739-1.65-0.579-2.68-1.129-4.34-1.449-1.66-0.362-3.58-0.46-5.33-0.87-4.12-0.842-8.83-2.119-13-2.898-1.66-0.652-3.34-0.579-5.34-0.579h-5c-1.81-0.019-2.76-0.29-4.67-0.29h-5.67c-2.69 0-5.42 0.091-8-0.29-2.15-0.095-4.08-0.289-6.33-0.289-1.59-0.248-3.24-0.29-5-0.29h-5.67c-2.41 0-4.65-0.166-7-0.29-1.77-0.147-3.43-0.29-5.34-0.29-2.3 0-4.24 0.252-6.33 0.58-2.06 0.305-4.14 0.595-6.34 0.869-2.5 0.145-4.8 0.524-7.33 0.58-2.26 0.422-4.4 0.702-6.67 0.869-2.24 0.417-4.66 0.473-7 0.869-2.4 0.247-4.73 0.522-7 0.87-1.84 0.293-3.83 0.539-5.67 0.869-1.75 0.109-3.08 0.524-4.67 0.87-1.87 0.594-3.5 1.11-5.33 1.738-1.59 0.476-2.31 0.827-3.34 1.739-1.58 0.622-2.95 1.477-4.33 2.029-1.71 1.005-2.87 1.864-4.34 3.187-0.38 1.336-1.09 2.544-2 3.768-0.28 1.36-0.6 2.602-0.66 4.057 0.51 1.386 0.42 2.997 1 4.347 0.95 0.562 1.91 1.277 3 2.028 1.45 1.088 1.94 1.553 3.33 2.609 0.97 0.572 1.87 1.405 3.34 2.028 1.08 1.369 2.01 1.801 3.66 2.318 1.08 0.688 2.53 1.245 4 1.739 1.81 0.504 3.61 0.989 5.67 1.159 1.93 0.386 3.96 0.29 6 0.29 2.2 0.023 4.02 0.529 6 0.87 2.11 0.199 4.33 0.33 6.34 0.579h6.67c1.93 0 3.93-0.062 5.67 0.29 1.96 0 3.76-0.15 5.66-0.29 2-0.447 3.63-0.926 5.67-1.159 2.02-0.237 4.14-0.29 6.34-0.29 1.82-0.101 3.95-0.162 5.66-0.579 1.95-0.047 3.7-0.29 5.67-0.29h6.67c2.03-0.261 3.51-0.816 5.67-0.87 1.46-0.227 3.23-0.267 4.67-0.579 1.61 0 3.15-0.067 4.33-0.29 1.32-0.266 2.72-0.694 4-1.159 0.96-0.469 1.92-0.753 1.67-1.159-1.47-0.225-2.48-0.778-3.67-1.449-1.75-0.109-2.96-0.265-4.67 0-1.55 0.433-3.03 0.888-4.66 1.159-1.6 0.099-2.97 0.29-4.67 0.29-1.68 0.261-3.47 0.29-5.34 0.29-1.97 0-3.71 0.246-5.66 0.289-2.49 0.154-4.82 0.519-7.34 0.58h-4.67c-1.59 0.247-3.23 0.29-5 0.29-2 0.02-3.62 0.289-5.67 0.289-1.92 0.214-3.91 0.29-6 0.29h-5.33c-1.78 0-3.28-0.126-4.67-0.29-1.38-0.162-2.68-0.476-4.33-0.579-1.14-0.346-2.68-0.58-4.34-0.58-1.44-0.314-3.04-0.289-4.67-0.289-1.35-0.159-2.74-0.416-4.33-0.58-0.92-0.546-2.33-0.757-3.67-1.159-1.49-0.631-2.81-1.094-3.67-1.739-1.23-0.357-2.11-0.958-3.33-1.739-0.74-0.859 0.01-1.513 1-0.869 1.42 0.322 2.5 0.902 4 1.449 1.53 0.792 3.05 1.169 4.67 1.739 1.62 0.108 3.04 0.289 5 0.289h10.34c1.41 0.41 3.25 0.17 4.66 0.58 1.46 0 3.39-0.12 4.34 0.29 1.7 0 3.07 0.191 4.67 0.29 1.79 0 3.75-0.139 5.33 0.289h5.67c1.92-0.089 3.63-0.289 5.67-0.289 1.74-0.181 3.43-0.29 5.33-0.29 2.68-0.048 5.13-0.386 7.67-0.58 1.39-0.404 3.07-0.29 4.67-0.29 1.51-0.234 3.12-0.42 4.66-0.579 1.05-0.237 3.1-0.725 4.01-1.159 1.92-0.268 2.49-0.667 2.66-2.319-1.35-0.739-2.67-1.046-4-1.449-1.73-0.018-3.08-0.333-4.67-0.579-1.64 0.373-3.01 1.09-4.66 1.449-1.45 0.419-3.41 0.37-5 0.579-1.78 0.042-3.18 0.29-5.01 0.29-1.7 0-2.98-0.272-4.66-0.29-1.71-0.393-2.68-0.579-4.67-0.579-1.64 0.051-2.96 0.289-4.67 0.289-1.7 0-2.98-0.272-4.67-0.289-1.18 0.223-2.71 0.289-4.33 0.289h-4.67c-1.66 0-3.18-0.058-4.67-0.289h-5.33c-1.74-0.056-2.85-0.355-4.67-0.58-1.35-0.406-3.25-0.555-4.33-0.869-1.7-0.373-3.44-0.577-4.34-1.449-1.26-0.443-1.69-1.911-2.66-2.608-0.2-1.264-0.42-2.323 0-3.768 1.06-0.912 2.45-1.358 4-2.028 0.89-0.697 2.3-1.209 3.66-1.739 1.52-0.236 3.02-0.425 4.34-0.58h5c1.7 0 3 0.134 4.33 0.29 1.49 0.43 3.31 0.29 5 0.29s3.13 0.13 4.67 0.29h4.67c1.76-0.11 2.5-0.466 3.33-1.16-0.18-1.739-0.76-1.59-2.33-2.318-1.41-0.166-2.86-0.29-4.67-0.29h-23.67c-1.59 0.39-3.43 0.988-4.67 1.449-0.96 0.396-2.44 0.881-3.66 1.159-1.64 0.304-3.01 0.885-4.67 1.16-1.29-0.355 0.12-0.731 1-1.16 1.63-0.659 2.69-1.187 4.33-1.738 1.5-0.739 2.49-0.968 4.34-1.159 1.48-0.662 2.85-0.851 4.66-0.87 1.69 0 3.13-0.13 4.67-0.29 1.77-0.018 3.02-0.409 4.67-0.579 1.54-0.159 2.99-0.29 4.67-0.29h4.66c1.97-0.02 3.49-0.401 5.34-0.58h4.67c1.54 0 2.65-0.157 3.33 0.58 1.07 0.847 1.21 1.77 1.33 3.188 0.38 1.462 1.29 2.245 2.01 3.187 1.09 1.329 1.38 2 2.66 2.898 1.1 0.574 1.71 1.061 2.34 2.319 0.64 0.186 0-0.288 0-1.449-0.47-1.212-0.34-2.671-0.34-4.057 0-1.197 0.11-2.719-0.33-3.478 0.92 1.294 1.65 2.348 2 3.478 0.84 0.51 2.15 1.968 3 2.898 1.35 0.962 2.15 1.336 4 1.738 0.93 0.55 2.25 0.735 3 1.449 1.26 0.298 2.26 0.991 3.34 1.449 1.31 0.84 2.08 1.269 3.33 2.029 1.64 0.053 2.52 0.29 4.33 0.29 1.47 0.152 3.36 0.353 4.34 0.869 1.77 0 3.24 0.12 4.33 0.869 0.93 0.699 1.9 0.905 3.34 1.449 1.74 0.524 2.4 1.167 3.67 2.319 1.21 0.859 2.11 1.777 3.66 2.608 0.71 1.287 1.5 1.56 1.67 3.188 0.88 0.522 1.9 1.1 2.67 1.738 0.65 0.752 1.07 1.767 1.66 1.449 0-1.542-0.07-2.729-0.66-3.767-0.35-1.095-0.98-2.022-1.34-3.477-0.97-0.829-1.89-1.72-2.66-2.898-0.6-1.087-1.01-1.667-2.34-2.319-0.98-0.856-2.16-1.32-3.33-2.028-0.67-0.248-1.08-0.592-1.67-0.87 1.6-0.44 2.51 0.272 4 0.87 1.47 0.742 2.7 1.371 4 1.738 0.8 0.602 1.93 1.212 3 1.739 0.82 1.154 1.66 1.78 2.67 2.898 1.09 0.892 2.33 1.886 3 2.608 0.56 0.936 1.18 2.205 1.67 3.188 1.14 0.706 1 1.07 1-0.58v-4.926c0-1.287 0.14-2.041-0.67-2.608-0.69-0.889-1.51-1.284-2.33-2.319-0.98-0.577-1.54-1.248-2.67-1.738-1.23-0.553-2.06-1.186-3-1.739-0.42-0.621-0.89-0.85-1.67-1.159h23.68c1.78 0 3.04 0.288 4.33 0.579 0.89 0.69 2.31 1.256 4 1.449 1.43 0.564 3.09 0.625 4.67 0.87 1.64 0.052 2.52 0.289 4.33 0.289 1.9 0.118 2.46 0.668 4 0.87h4.67c1.62 0 3.16-0.067 4.34-0.29h4.66c1.63 0 3.23 0.024 4.67-0.29 1.56-0.355 2.98-1.026 4-1.449 0.4-0.521-0.82 0-2 0h-4.67c-1.49 0.232-3.01 0.29-4.66 0.29h-4.67c-1.74-0.326-3.58-0.597-5.34-0.869-1.53-0.238-3.21-0.434-4.66-0.87-1.65-0.17-3.07-0.604-4.67-0.869-1.66-0.347-3.25-0.688-5-0.869-1.6-0.265-3.02-0.699-4.67-0.87-1.11-0.322-2.74-0.563-4.33-0.579-1.71 0-3.08-0.191-4.67-0.29-1.61-0.249-2.84-0.48-4.34-0.58-1.53-0.466-2.54-0.579-4.33-0.579-1.49-0.232-3.01-0.29-4.67-0.29h-9.67c-1.66 0-3.18-0.059-4.67-0.29-1.53-0.254-3.17-0.564-4-1.159-1.39-0.484-2.17-0.972-3-1.739 1.64-0.798 2.65-1.386 4.67-1.449 2.21 0 4.16 0.273 6.34 0.29 1.81 0 3.71-0.066 5.33 0.29h6c2.14 0 3.88 0.271 6 0.289h9.67c1.45 0.436 3.14 0.633 4.67 0.87 1.75 0.437 2.98 0.924 4.67 1.159 1.55 0.769 2.45 0.863 4 1.449 1.52 0.179 2.27 0.524 4 0.58 1.62 0.352 2.76 0.506 4.33 0.869 1.62 0.372 2.49 0.58 4.34 0.58 1.92-0.02 2.84-0.295 3.67-1.16 1.07-0.565 2.08-0.869 4-0.869h4.66c1.18-0.223 2.72-0.29 4.34-0.29 1.44-0.547 2.27-0.874 3.67-1.159 0.98-0.608 2.37-1.052 3.33-1.449 1.15-0.49 2.26-1.449 3.33-2.318 0.37-1.161 0.97-1.738 1.34-2.898 0.66-0.85 0.66-1.959 0.66-3.478 0-1.313 0.08-0.717-1.66-2.028zm-110.69 1.738c-0.65 0-3.18 0.071-4.34 0.29 0 1.281-0.1 1.482 1.33 1.739 1.22 0.617 2.98 0.58 5.01 0.58 1.72 0.374 3.5 0.289 5.33 0.289h11.67c1.64 0.356 3.5 0.29 5.33 0.29 1.98 0 3.77 0.154 5.67 0.29 1.84 0 3.69-0.031 5.34 0.29h5.33c1.96 0.357 3.57 0.579 5.67 0.579 1.35 0.333 3.66 0.143 4.67 0.58 1.74 0.056 2.68 0.409 4.33 0.869 1.47 0.152 3.29 0.18 4.67 0.58h4c-1.17-1.08-1.96-1.746-3.33-2.318-1.24-0.716-2.58-1.249-4.34-1.449-1.16-0.405-2.19-0.58-4-0.58-1.66-0.36-3.59-0.448-5.33-0.58-2.04 0-3.72-0.206-5.67-0.289-1.81-0.101-3.23-0.47-5-0.58-1.81-0.386-3.43-0.58-5.34-0.58-1.55-0.467-3.39-0.524-5-0.869h-14.67c-1.81 0-3.31 0.185-5 0.29-1.62 0-3.15 0.067-4.33 0.29-0.9 0-0.23-0.019-2 0.289zm-177.24 36.037c-0.08 0-6.14 2.644-6.83 3.074h6.6c1.11-0.344 1.04-0.893 0.23-3.074zm3.07 5.123c-0.08 0.068-0.16 0.136-0.24 0.205 0.51-0.446 0.33-0.265-0.71 0.409-0.72 0.427-1.33 0.981-1.88 1.435-1.07 0.218-1.64 0.359-2.36 1.229 1.15 0 2.28-0.017 3.3 0.205 1.37-0.108 1.25-0.573 1.42-1.639 0-0.861 0.15-0.909 0.47-1.844zm-4.25-18.033c-0.08-0.068-0.15-0.137-0.23-0.205 0.59 0.514 0.3 0.279-0.71-0.82-0.67-0.651-1.14-0.938-1.18 0.205 0.47 1.007 0.83 1.73 1.42 2.459 0.36 0.921 0.68 1.443 0.94 2.254 0.62 0.447 0.86 0.885 1.65 1.23 0.23-1.059 0.58-1.763 0.94-2.664-0.15-0.952-0.8-0.891-1.65-1.434-1 0-0.57 0.114-1.18-1.025zm0.24-6.967c0.05 1.598 4.28 6.251 5.66 6.352 0.21-1.025 0.66-4.242 0-4.713-0.78-0.075-5.58-1.707-5.66-1.639zm27.11-14.959c-0.04 0.023-0.72 0.768-0.94 1.434-0.5 0.617-0.86 1.79-1.18 2.664-0.26 0.821-0.69 1.229-0.94 2.049-0.49 0.27-0.9 0.736-0.71 1.025 1.14 0 2.23 0.047 3.06 0.205 0.42-0.601 0.92-1.743 1.42-2.664 0.37-1.01 0.66-1.928 0.71-3.074-1.11-0.622-0.95-0.359-1.42-1.639zm19.1 2.049c-0.07 0-7.93 6.141-8.25 7.172 0.14 1.067 3.85 1.025 4.95 1.025 1.07 0.027 3.63-6.904 3.3-8.197zm14.85 3.074c-1.16 0.697-7.9 8.139-8.49 8.811 0.17 0.591 1.06 0.496 1.89 0.615h3.3c0.56-0.828 3.9-9.76 3.3-9.426zm5.19 13.524c-0.93 0.578-1.69 0.884-1.89 1.845-0.7 0.678-0.95 1.721-1.89 2.049-0.4 0.795-0.71 1.454-1.17 2.049 0.32 1.031 0.88 1.012 2.12 1.639 0.66 0.347 1.52 0.875 2.12 1.23 0.11-1.19 0.68-2.228 1.18-3.279 0.31-0.961 0.7-1.886 0.94-2.869 0.04-0.937 0.22-2 0.47-2.664 0.09-1.038-1.58-0.98-1.88 0zm2.12 17.008h-0.24c0.66 0 0.31-0.025-0.94 0.41-1.16 0.069-1.97 0.205-3.3 0.205-1.32 0-1.87-0.003-2.59 0.615-0.24 0.458 0 1.492 0 2.459-0.25 1.117-3.09 3.145-3.78 3.688 1.38-0.257 6.05-0.222 7.08 0 0.97 0 2.21 0.064 2.83-0.205v-2.868c0.1-1.082 0.65-1.848 0.94-2.664 0.67-0.392 0.36-0.696 0-1.64zm-16.27 14.549c-0.71 0.294-2.19 0.823-2.83 1.23-0.93 0.229-1.3 0.584-1.65 1.229 1.05 0.369 2.14 0.815 3.07 1.025 1.19 0.136 2.17 0.54 3.3 0.82 1.18 0 1.48 0.181 1.18-0.82v-2.869l0.47-2.049c0.03-0.615-2.71 0.999-3.54 1.434z"/>
  <metadata>
    <rdf:RDF>
      <cc:Work>
        <dc:format>image/svg+xml</dc:format>
        <dc:type rdf:resource="http://purl.org/dc/dcmitype/StillImage"/>
        <cc:license rdf:resource="http://creativecommons.org/licenses/publicdomain/"/>
        <dc:publisher>
          <cc:Agent rdf:about="http://openclipart.org/">
            <dc:title>Openclipart</dc:title>
          </cc:Agent>
        </dc:publisher>
        <dc:title>canada new brunswick</dc:title>
        <dc:date>2011-02-16T23:25:37</dc:date>
        <dc:description>Originally uploaded by Caleb Moore for OCAL. 0.18</dc:description>
        <dc:source>http://openclipart.org/detail/120223/canada-new-brunswick-by-anonymous</dc:source>
        <dc:creator>
          <cc:Agent>
            <dc:title>Anonymous</dc:title>
          </cc:Agent>
        </dc:creator>
        <dc:subject>
          <rdf:Bag>
            <rdf:li>canada</rdf:li>
            <rdf:li>clip art</rdf:li>
            <rdf:li>clipart</rdf:li>
            <rdf:li>flag</rdf:li>
            <rdf:li>new brunswick</rdf:li>
            <rdf:li>north america</rdf:li>
            <rdf:li>province</rdf:li>
          </rdf:Bag>
        </dc:subject>
      </cc:Work>
      <cc:License rdf:about="http://creativecommons.org/licenses/publicdomain/">
        <cc:permits rdf:resource="http://creativecommons.org/ns#Reproduction"/>
        <cc:permits rdf:resource="http://creativecommons.org/ns#Distribution"/>
        <cc:permits rdf:resource="http://creativecommons.org/ns#DerivativeWorks"/>
      </cc:License>
    </rdf:RDF>
  </metadata>
</svg>
