<?xml version="1.0" encoding="UTF-8" standalone="no"?>
<!-- Created with Inkscape (http://www.inkscape.org/) -->
<svg xmlns:rdf="http://www.w3.org/1999/02/22-rdf-syntax-ns#" xmlns="http://www.w3.org/2000/svg" xmlns:cc="http://web.resource.org/cc/" xmlns:xlink="http://www.w3.org/1999/xlink" xmlns:dc="http://purl.org/dc/elements/1.1/" xmlns:svg="http://www.w3.org/2000/svg" xmlns:inkscape="http://www.inkscape.org/namespaces/inkscape" xmlns:sodipodi="http://sodipodi.sourceforge.net/DTD/sodipodi-0.dtd" xmlns:ns1="http://sozi.baierouge.fr" id="svg1" viewBox="0 0 992.13 496.06" version="1.0" y="0" x="0" inkscape:version="0.91 r13725">
  <g id="g2156">
    <rect id="rect2154" style="fill-rule:evenodd;fill:#076a21" height="248.03" width="992.13" y="-.0000038447" x="0"/>
    <rect id="rect2155" style="fill-rule:evenodd;fill:#fdd401" height="248.03" width="992.13" y="248.03" x="-1.4211e-14"/>
    <g id="g1635" transform="matrix(1.4235 0 0 1.4235 598.31 78.364)">
      <path id="path1631" style="stroke:#000000;stroke-width:1pt;fill:none" d="m129.35 78.242l-3.41-26.932"/>
      <g id="g1553">
        <path id="path916" style="fill-rule:evenodd;stroke:#003d00;stroke-width:.875;fill:#016b29" d="m159.58 207.32s-9.51-6.92-10.81-14.27-2.16-17.3-2.16-17.3l6.92 3.89s0.86 9.95 1.29 14.27c0.44 4.33 4.76 13.41 4.76 13.41z"/>
        <path id="path915" style="fill-rule:evenodd;stroke:#003d00;stroke-width:.875;fill:#016b29" d="m173.93 123.88c7.32-0.58 7.71 11.22 7.71 11.22s-12.98-6.92-18.6-6.92 10.89-4.3 10.89-4.3z"/>
        <path id="path1545" style="stroke:#003d00;stroke-width:.875;fill:none" d="m181.41 134.57c-0.28-0.28-9.88-9.71-14.6-9.6-4.71 0.12-4.82 0.23-4.82 0.23"/>
        <path id="path918" style="fill-rule:evenodd;stroke:#003d00;stroke-width:.875;fill:#016b29" d="m100.33 129.04h-11.242c-3.892 0-11.244-0.86-11.244-0.86s10.379 6.92 16.001 6.49c5.623-0.44 19.025 0.43 19.025 0.43l-7.78-5.62-4.76-0.44z"/>
        <path id="path1546" style="stroke:#003d00;stroke-width:.875;fill:none" d="m78.949 128.55s10.337 2.95 14.426 3.12c4.089 0.18 15.565-0.56 15.565-0.56"/>
        <path id="path920" style="fill-rule:evenodd;stroke:#003d00;stroke-width:.875;fill:#016b29" d="m158.28 206.46c-1.29-2.17-6.92-8.65-7.78-14.28-0.87-5.62 1.3-13.4 1.3-13.4"/>
        <path id="path911" style="fill-rule:evenodd;stroke:#003d00;stroke-width:.875;fill:#016b29" d="m81.736 194.35s21.624-27.68 25.514-31.14 21.63-12.54 23.79-14.7c2.16-2.17 22.49-21.63 26.81-23.36 4.33-1.73 16.87-1.3 16.87-1.3s-4.33 0.87-6.92 3.03c-2.6 2.16-8.22 8.22-12.11 10.81-3.89 2.6-33.73 21.63-37.63 25.95-3.89 4.33-9.51 11.68-12.54 14.27-3.03 2.6-23.784 16.44-23.784 16.44z"/>
        <path id="path912" style="fill-rule:evenodd;stroke:#003d00;stroke-width:.875;fill:#016b29" d="m99.9 129.04s12.54 8.22 14.7 10.82c2.17 2.59 12.55 12.97 13.41 14.7 0.87 1.73 14.7 21.62 18.6 25.08 3.89 3.46 7.78 9.08 8.21 11.68l0.44 2.59s-0.87-17.73-1.73-19.46c-0.87-1.73-4.76-3.02-8.22-6.92-3.46-3.89-10.38-7.35-17.3-18.16-2.16-5.19-14.7-19.89-17.73-20.76-3.03-0.86-10.38 0.43-10.38 0.43z"/>
        <path id="path913" style="fill-rule:evenodd;stroke:#003d00;stroke-width:.875;fill:#016b29" d="m183.8 181.81s-2.6-11.68-12.11-18.6-25.95-13.41-43.68-13.84-27.25 1.3-28.542 1.73c-1.298 0.43-4.325 7.35-4.325 7.35s17.727-3.89 28.547-3.89c10.81 0 32.43 8.22 36.76 10.81 4.32 2.6 23.35 16.44 23.35 16.44z"/>
        <path id="path914" style="stroke:#003d00;stroke-width:.875;fill:none" d="m83.034 193.05s17.726-15.57 20.326-18.16c2.59-2.6 7.78-11.25 11.68-13.84 3.89-2.6 32-23.36 34.16-25.09s13.84-11.67 13.84-11.67"/>
        <path id="path919" style="stroke:#003d00;stroke-width:.875;fill:none" d="m99.035 154.99s19.025-3.89 27.675-3.46c8.65 0.44 39.36 12.54 42.38 14.71 3.03 2.16 12.98 13.84 12.98 13.84"/>
        <path id="path921" style="stroke:#003d00;stroke-width:.875;fill:none" d="m154.82 184.83s-26.38-34.16-31.13-39.35c-4.76-5.19-19.47-16.87-19.47-16.87"/>
        <path id="path917" style="fill-rule:evenodd;stroke:#003d00;stroke-width:.875;fill:#016b29" d="m76.979 168.4s9.082-6.92 12.974-9.95 9.515-7.35 9.515-7.35l5.572-0.79s-6.005 8.57-9.465 11.17c-3.459 2.59-18.596 6.92-18.596 6.92z"/>
        <path id="path1543" style="stroke:#003d00;stroke-width:.875;fill:none" d="m101.75 150.83s-5.903 6.05-8.146 7.69c-2.243 1.65-14.968 8.88-14.968 8.88"/>
        <path id="path910" style="fill-rule:evenodd;stroke:#003d00;stroke-width:.875;fill:#016b29" d="m131.9 243.22l-0.86-128.01s3.02-2.17 4.32-8.22c1.3-6.06-0.86-28.112-0.86-28.112s-15.14-3.027-14.71-1.297c0.44 1.73 1.73 20.758 2.6 24.219 0.86 3.46 4.76 13.41 4.76 13.41s-2.6 112-2.6 116.33c0 4.32 7.35 11.68 7.35 11.68z"/>
        <path id="path1547" style="stroke:#003d00;stroke-width:.875;fill:none" d="m124.34 84.621l-0.96 12.531"/>
        <path id="path1548" style="stroke:#003d00;stroke-width:.875;fill:none" d="m125.31 98.437c0-1.285 0.96-13.173 0.96-13.173"/>
        <path id="path1549" style="stroke:#003d00;stroke-width:.875;fill:none" d="m128.2 101.01l-0.32-17.674"/>
        <path id="path1550" style="stroke:#003d00;stroke-width:.875;fill:none" d="m130.45 104.86l0.32-19.275"/>
        <path id="path1551" style="stroke:#003d00;stroke-width:.875;fill:none" d="m131.09 108.72s2.25-5.14 2.25-9.962v-11.566"/>
        <path id="path1552" style="stroke:#003d00;stroke-width:.875;fill:none" d="m124.32 231.21s2.48-1.83 5.27 2.44c1.93 2.9 2.25 7.43 2.34 8.9"/>
      </g>
      <path id="path909" style="fill-rule:evenodd;stroke:#000000;stroke-width:.875;fill:#dd1810" d="m84.331 43.848s1.298 16.434 6.055 20.759c4.757 4.324 16.864 4.757 16.864 4.757s-13.405 7.352-14.27 14.704c-0.864 7.352 7.35 17.732 7.35 17.732s2.6-3.893 4.33-4.758 5.62-0.433 7.78-1.73c2.16-1.298 7.35-7.352 9.52-7.352 2.16 0 8.65 6.054 11.24 7.352 2.59 1.297 6.49 2.595 8.22 3.892 1.73 1.296 4.32 2.596 4.32 2.596s3.03-3.028 4.33-5.191c1.29-2.162 0-3.46 1.29-5.622 1.3-2.162 7.36-8.649 6.06-12.109s-3.03-4.325-6.06-4.757c-3.02-0.433-6.05 0-6.05 0l6.05-3.46s3.46 1.298 6.49 1.298 13.84-3.46 16-3.893c2.16-0.432 7.35 0.865 7.35 0.865s-1.73-18.596-16.43-19.461-12.97 8.217-16.87 10.812c-3.89 2.595-6.92 6.054-6.92 6.054s1.3-4.324 3.46-6.919c2.17-2.595 7.36-7.784 9.09-10.379s3.89-9.082 3.89-12.109c0-3.028-2.16-8.217-2.16-10.812s0.43-5.19 0.43-5.19-8.65 2.595-13.84 6.92-10.81 14.271-10.81 14.271-3.89-7.352-6.49-9.514c-2.59-2.162-9.51-5.622-11.24-7.352s-3.9-5.19-3.9-5.19-5.62 11.677-5.62 15.569c0 3.893 3.03 9.947 3.03 9.947-4.33-1.73-9.515 0.433-13.407 0.433s-9.082-2.163-9.082-2.163z"/>
      <path id="path1575" style="fill-rule:evenodd;fill:#fee500" d="m100.9 88.105s3.04-6.449 6.83-7.587 16.31 1.518 16.31 1.518l-1.9 4.172s-4.93 0-5.31-1.517 1.14-2.276 1.14-2.276-5.69-0.379-9.1 0c-3.42 0.379-7.97 5.69-7.97 5.69z"/>
      <path id="path1577" style="fill-rule:evenodd;fill:#fee500" d="m133.14 81.656s2.66 0.38 4.18 2.276c1.51 1.897 3.79 6.07 3.79 6.07s1.52-3.035-0.38-5.311-3.41-3.414-3.41-3.414l1.51-2.276s2.28 0.379 3.42 2.276 2.27 2.655 2.27 2.655 0.76-2.655-0.75-4.172c-1.52-1.518-2.66-1.897-2.66-1.897s1.52-1.138 3.79-0.379c2.28 0.758 6.07 3.034 6.07 3.034s-2.27-3.793-4.17-4.172c-1.9-0.38-4.55-0.38-4.55-0.38s9.86-10.241 13.65-12.517c3.8-2.276 11.01-3.414 11.01-3.414s0-1.518-2.66-1.897-14.04 5.69-14.04 5.69l2.66-4.552s-16.69 9.863-18.59 12.518c-1.89 2.655 3.04-7.207 4.93-9.483 1.9-2.276 5.69-5.69 6.83-9.104s2.28-6.07 2.28-6.07-7.21 6.828-8.73 9.104c-1.51 2.276-2.65 6.828-4.93 5.69-2.27-1.138-2.65-4.172-2.65-4.172s-0.76 5.31-2.28 4.931-2.28-2.276-2.28-2.276 0 3.414-1.89 3.035c-1.9-0.38-0.38-3.035-1.9-5.69-1.52-2.656-3.79-3.035-3.79-3.035s1.89 4.173 1.52 6.069c-0.38 1.897-0.76 6.449-3.42 4.932-2.65-1.518-3.03-3.794-4.93-3.414-1.9 0.379 0.76 1.896-0.38 3.034s-3.41 1.897-3.41 1.897 2.65 0.379 4.17 2.655 4.93 2.276 6.45 5.311c1.52 3.034 2.27 7.586 2.27 7.586l11-1.138z"/>
      <path id="path1634" style="fill-rule:evenodd;fill:#016b29" d="m117.97 64.966l9.11 15.173s3.03-4.173 4.93-4.173c1.89 0 4.17 1.518 4.17 1.518s1.14-7.207 0.76-9.483-1.52-4.552-4.17-4.552c-2.66 0-3.42-0.38-4.18 1.517s-0.76 7.966-0.76 7.966-1.13-6.828-3.79-8.725c-2.65-1.896-2.65-2.655-4.55-1.517s-1.52 2.276-1.52 2.276z"/>
      <path id="path1576" style="fill-rule:evenodd;fill:#fee500" d="m108.49 75.966s2.27 2.276 4.93 2.276 10.24 1.138 10.24 1.138l-0.38-1.517s-12.89-3.035-14.79-1.897z"/>
      <path id="path1578" style="fill-rule:evenodd;fill:#fee500" d="m106.97 86.208s-2.65 0.759-3.79 3.035 0.38 3.793 0.38 3.793 0-2.655 1.89-3.793c1.9-1.138 1.52-3.035 1.52-3.035z"/>
      <path id="path1579" style="fill-rule:evenodd;fill:#fee500" d="m92.936 61.552s1.897 2.276 3.793 2.276c1.897 0 5.691 0.759 5.691 0.759s-4.553 2.276-6.449 1.517c-1.897-0.759-3.035-4.552-3.035-4.552z"/>
      <path id="path1580" style="fill-rule:evenodd;fill:#fee500" d="m99.764 49.793s1.896 1.517 4.556 3.034c2.65 1.518 4.55 1.518 4.55 1.518s-0.76-1.518-3.04-2.656c-2.27-1.138-6.066-1.896-6.066-1.896z"/>
      <path id="path1581" style="fill-rule:evenodd;fill:#fee500" d="m109.63 35.378s-1.14 3.414 0 6.449c1.13 3.034 3.79 5.69 3.79 5.69s1.14-4.552-0.38-6.449-3.41-5.69-3.41-5.69z"/>
      <path id="path1582" style="fill-rule:evenodd;fill:#fee500" d="m113.42 34.24s1.52 2.276 2.28 4.173c0.75 1.896 3.03 3.793 3.03 3.793s0-3.414-1.52-4.931c-1.51-1.518-3.79-3.035-3.79-3.035z"/>
      <path id="path1583" style="fill-rule:evenodd;fill:#fee500" d="m150.59 35.378s-1.51 0-2.65 2.276-0.38 4.552-0.38 4.552 0.38-1.517 1.9-3.414c1.51-1.897 1.13-3.414 1.13-3.414z"/>
      <path id="path1587" style="fill-rule:evenodd;fill:#000000" transform="matrix(1.3333 0 0 1.1111 -48.554 -4.521)" d="m139.97 49.224c0-0.944-0.76-1.709-1.7-1.709-0.95 0-1.71 0.765-1.71 1.709 0 0.943 0.76 1.708 1.71 1.708 0.94 0 1.7-0.765 1.7-1.708z"/>
      <path id="path1588" style="fill-rule:evenodd;fill:#000000" transform="matrix(1.3333 0 0 1.1111 -51.968 -.72767)" d="m139.97 49.224c0-0.944-0.76-1.709-1.7-1.709-0.95 0-1.71 0.765-1.71 1.709 0 0.943 0.76 1.708 1.71 1.708 0.94 0 1.7-0.765 1.7-1.708z"/>
      <path id="path1589" style="fill-rule:evenodd;fill:#000000" transform="matrix(1.3333 0 0 1.1111 -44.761 -3.7623)" d="m139.97 49.224c0-0.944-0.76-1.709-1.7-1.709-0.95 0-1.71 0.765-1.71 1.709 0 0.943 0.76 1.708 1.71 1.708 0.94 0 1.7-0.765 1.7-1.708z"/>
      <path id="path1590" style="fill-rule:evenodd;fill:#000000" transform="matrix(1.3333 0 0 1.1111 -42.485 -.72767)" d="m139.97 49.224c0-0.944-0.76-1.709-1.7-1.709-0.95 0-1.71 0.765-1.71 1.709 0 0.943 0.76 1.708 1.71 1.708 0.94 0 1.7-0.765 1.7-1.708z"/>
      <path id="path1591" style="fill-rule:evenodd;fill:#000000" transform="matrix(1.3333 0 0 1.1111 -61.831 -5.2796)" d="m139.97 49.224c0-0.944-0.76-1.709-1.7-1.709-0.95 0-1.71 0.765-1.71 1.709 0 0.943 0.76 1.708 1.71 1.708 0.94 0 1.7-0.765 1.7-1.708z"/>
      <path id="path1592" style="fill-rule:evenodd;fill:#000000" transform="matrix(1.3333 0 0 1.1111 -57.658 -6.0383)" d="m139.97 49.224c0-0.944-0.76-1.709-1.7-1.709-0.95 0-1.71 0.765-1.71 1.709 0 0.943 0.76 1.708 1.71 1.708 0.94 0 1.7-0.765 1.7-1.708z"/>
      <path id="path1593" style="fill-rule:evenodd;fill:#000000" transform="matrix(1.3333 0 0 1.1111 -53.865 -4.9003)" d="m139.97 49.224c0-0.944-0.76-1.709-1.7-1.709-0.95 0-1.71 0.765-1.71 1.709 0 0.943 0.76 1.708 1.71 1.708 0.94 0 1.7-0.765 1.7-1.708z"/>
      <path id="path1594" style="fill-rule:evenodd;fill:#000000" transform="matrix(1.3333 0 0 1.1111 -66.003 -1.4863)" d="m139.97 49.224c0-0.944-0.76-1.709-1.7-1.709-0.95 0-1.71 0.765-1.71 1.709 0 0.943 0.76 1.708 1.71 1.708 0.94 0 1.7-0.765 1.7-1.708z"/>
      <path id="path1595" style="fill-rule:evenodd;fill:#000000" transform="matrix(1.3333 0 0 1.1111 -74.349 .78965)" d="m139.97 49.224c0-0.944-0.76-1.709-1.7-1.709-0.95 0-1.71 0.765-1.71 1.709 0 0.943 0.76 1.708 1.71 1.708 0.94 0 1.7-0.765 1.7-1.708z"/>
      <path id="path1596" style="fill-rule:evenodd;fill:#000000" transform="matrix(1.3333 0 0 1.1111 -37.554 11.411)" d="m139.97 49.224c0-0.944-0.76-1.709-1.7-1.709-0.95 0-1.71 0.765-1.71 1.709 0 0.943 0.76 1.708 1.71 1.708 0.94 0 1.7-0.765 1.7-1.708z"/>
      <path id="path1597" style="fill-rule:evenodd;fill:#000000" transform="matrix(1.3333 0 0 1.1111 -32.243 13.308)" d="m139.97 49.224c0-0.944-0.76-1.709-1.7-1.709-0.95 0-1.71 0.765-1.71 1.709 0 0.943 0.76 1.708 1.71 1.708 0.94 0 1.7-0.765 1.7-1.708z"/>
      <path id="path1598" style="fill-rule:evenodd;fill:#000000" transform="matrix(1.3333 0 0 1.1111 -30.346 9.5142)" d="m139.97 49.224c0-0.944-0.76-1.709-1.7-1.709-0.95 0-1.71 0.765-1.71 1.709 0 0.943 0.76 1.708 1.71 1.708 0.94 0 1.7-0.765 1.7-1.708z"/>
      <path id="path1599" style="fill-rule:evenodd;fill:#000000;fill-opacity:.75" transform="matrix(1.3333 0 0 1.1111 -20.484 10.273)" d="m139.97 49.224c0-0.944-0.76-1.709-1.7-1.709-0.95 0-1.71 0.765-1.71 1.709 0 0.943 0.76 1.708 1.71 1.708 0.94 0 1.7-0.765 1.7-1.708z"/>
      <path id="path1600" style="fill-rule:evenodd;fill:#000000" transform="matrix(1.3333 0 0 1.1111 -68.279 23.17)" d="m139.97 49.224c0-0.944-0.76-1.709-1.7-1.709-0.95 0-1.71 0.765-1.71 1.709 0 0.943 0.76 1.708 1.71 1.708 0.94 0 1.7-0.765 1.7-1.708z"/>
      <path id="path1601" style="fill-rule:evenodd;fill:#000000" transform="matrix(1.3333 0 0 1.1111 -63.727 25.446)" d="m139.97 49.224c0-0.944-0.76-1.709-1.7-1.709-0.95 0-1.71 0.765-1.71 1.709 0 0.943 0.76 1.708 1.71 1.708 0.94 0 1.7-0.765 1.7-1.708z"/>
      <path id="path1602" style="fill-rule:evenodd;fill:#000000" transform="matrix(1.3333 0 0 1.1111 -48.554 30.377)" d="m139.97 49.224c0-0.944-0.76-1.709-1.7-1.709-0.95 0-1.71 0.765-1.71 1.709 0 0.943 0.76 1.708 1.71 1.708 0.94 0 1.7-0.765 1.7-1.708z"/>
      <path id="path1603" style="fill-rule:evenodd;fill:#000000" transform="matrix(1.3333 0 0 1.1111 -51.589 29.239)" d="m139.97 49.224c0-0.944-0.76-1.709-1.7-1.709-0.95 0-1.71 0.765-1.71 1.709 0 0.943 0.76 1.708 1.71 1.708 0.94 0 1.7-0.765 1.7-1.708z"/>
      <path id="path1604" style="fill-rule:evenodd;fill:#000000" transform="matrix(1.3333 0 0 1.1111 -79.28 5.7209)" d="m139.97 49.224c0-0.944-0.76-1.709-1.7-1.709-0.95 0-1.71 0.765-1.71 1.709 0 0.943 0.76 1.708 1.71 1.708 0.94 0 1.7-0.765 1.7-1.708z"/>
      <path id="path1605" style="fill-rule:evenodd;fill:#000000" transform="matrix(1.3333 0 0 1.1111 -74.728 7.9969)" d="m139.97 49.224c0-0.944-0.76-1.709-1.7-1.709-0.95 0-1.71 0.765-1.71 1.709 0 0.943 0.76 1.708 1.71 1.708 0.94 0 1.7-0.765 1.7-1.708z"/>
      <path id="path1606" style="fill-rule:evenodd;fill:#000000" transform="matrix(1.3333 0 0 1.1111 -68.279 12.17)" d="m139.97 49.224c0-0.944-0.76-1.709-1.7-1.709-0.95 0-1.71 0.765-1.71 1.709 0 0.943 0.76 1.708 1.71 1.708 0.94 0 1.7-0.765 1.7-1.708z"/>
      <path id="path1607" style="fill-rule:evenodd;fill:#000000" transform="matrix(1.3333 0 0 1.1111 -73.211 12.928)" d="m139.97 49.224c0-0.944-0.76-1.709-1.7-1.709-0.95 0-1.71 0.765-1.71 1.709 0 0.943 0.76 1.708 1.71 1.708 0.94 0 1.7-0.765 1.7-1.708z"/>
      <path id="path1608" style="fill-rule:evenodd;fill:#000000" transform="matrix(1.3333 0 0 1.1111 -70.935 17.101)" d="m139.97 49.224c0-0.944-0.76-1.709-1.7-1.709-0.95 0-1.71 0.765-1.71 1.709 0 0.943 0.76 1.708 1.71 1.708 0.94 0 1.7-0.765 1.7-1.708z"/>
      <path id="path1609" style="fill-rule:evenodd;fill:#000000" transform="matrix(1.3333 0 0 1.1111 -66.003 16.722)" d="m139.97 49.224c0-0.944-0.76-1.709-1.7-1.709-0.95 0-1.71 0.765-1.71 1.709 0 0.943 0.76 1.708 1.71 1.708 0.94 0 1.7-0.765 1.7-1.708z"/>
      <path id="path1610" style="fill-rule:evenodd;fill:#000000" transform="matrix(1.3333 0 0 1.1111 -69.797 5.3416)" d="m139.97 49.224c0-0.944-0.76-1.709-1.7-1.709-0.95 0-1.71 0.765-1.71 1.709 0 0.943 0.76 1.708 1.71 1.708 0.94 0 1.7-0.765 1.7-1.708z"/>
      <path id="path1611" style="fill-rule:evenodd;fill:#000000" transform="matrix(1.3333 0 0 1.1111 -65.245 3.445)" d="m139.97 49.224c0-0.944-0.76-1.709-1.7-1.709-0.95 0-1.71 0.765-1.71 1.709 0 0.943 0.76 1.708 1.71 1.708 0.94 0 1.7-0.765 1.7-1.708z"/>
      <path id="path1612" style="fill-rule:evenodd;fill:#000000" transform="matrix(1.3333 0 0 1.1111 -60.693 -.71777)" d="m139.97 49.224c0-0.944-0.76-1.709-1.7-1.709-0.95 0-1.71 0.765-1.71 1.709 0 0.943 0.76 1.708 1.71 1.708 0.94 0 1.7-0.765 1.7-1.708z"/>
      <path id="path1613" style="fill-rule:evenodd;fill:#000000" transform="matrix(1.3333 0 0 1.1111 -58.417 -1.4863)" d="m139.97 49.224c0-0.944-0.76-1.709-1.7-1.709-0.95 0-1.71 0.765-1.71 1.709 0 0.943 0.76 1.708 1.71 1.708 0.94 0 1.7-0.765 1.7-1.708z"/>
      <path id="path1614" style="fill-rule:evenodd;fill:#000000" transform="matrix(1.3333 0 0 1.1111 -55.761 4.583)" d="m139.97 49.224c0-0.944-0.76-1.709-1.7-1.709-0.95 0-1.71 0.765-1.71 1.709 0 0.943 0.76 1.708 1.71 1.708 0.94 0 1.7-0.765 1.7-1.708z"/>
      <path id="path1615" style="fill-rule:evenodd;fill:#000000" transform="matrix(1.3333 0 0 1.1111 -47.037 9.5142)" d="m139.97 49.224c0-0.944-0.76-1.709-1.7-1.709-0.95 0-1.71 0.765-1.71 1.709 0 0.943 0.76 1.708 1.71 1.708 0.94 0 1.7-0.765 1.7-1.708z"/>
      <path id="path1616" style="fill-rule:evenodd;fill:#000000" transform="matrix(1.3333 0 0 1.1111 -42.485 5.3416)" d="m139.97 49.224c0-0.944-0.76-1.709-1.7-1.709-0.95 0-1.71 0.765-1.71 1.709 0 0.943 0.76 1.708 1.71 1.708 0.94 0 1.7-0.765 1.7-1.708z"/>
      <path id="path1617" style="fill-rule:evenodd;fill:#000000" transform="matrix(1.3333 0 0 1.1111 -37.554 -4.521)" d="m139.97 49.224c0-0.944-0.76-1.709-1.7-1.709-0.95 0-1.71 0.765-1.71 1.709 0 0.943 0.76 1.708 1.71 1.708 0.94 0 1.7-0.765 1.7-1.708z"/>
      <path id="path1618" style="fill-rule:evenodd;fill:#000000" transform="matrix(1.3333 0 0 1.1111 -45.14 24.687)" d="m139.97 49.224c0-0.944-0.76-1.709-1.7-1.709-0.95 0-1.71 0.765-1.71 1.709 0 0.943 0.76 1.708 1.71 1.708 0.94 0 1.7-0.765 1.7-1.708z"/>
      <path id="path1629" style="stroke:#000000;stroke-width:1pt;fill:none" d="m133.43 75.996c0.66-5.7 2.17-10.932 2.83-16.631"/>
      <path id="path1619" style="fill-rule:evenodd;fill:#000000" transform="matrix(1.3333 0 0 1.1111 -45.14 20.515)" d="m139.97 49.224c0-0.944-0.76-1.709-1.7-1.709-0.95 0-1.71 0.765-1.71 1.709 0 0.943 0.76 1.708 1.71 1.708 0.94 0 1.7-0.765 1.7-1.708z"/>
      <path id="path1620" style="fill-rule:evenodd;fill:#000000" transform="matrix(1.3333 0 0 1.1111 -45.14 16.722)" d="m139.97 49.224c0-0.944-0.76-1.709-1.7-1.709-0.95 0-1.71 0.765-1.71 1.709 0 0.943 0.76 1.708 1.71 1.708 0.94 0 1.7-0.765 1.7-1.708z"/>
      <path id="path1621" style="fill-rule:evenodd;fill:#000000" transform="matrix(1.3333 0 0 1.1111 -67.141 30.377)" d="m139.97 49.224c0-0.944-0.76-1.709-1.7-1.709-0.95 0-1.71 0.765-1.71 1.709 0 0.943 0.76 1.708 1.71 1.708 0.94 0 1.7-0.765 1.7-1.708z"/>
      <path id="path1622" style="fill-rule:evenodd;fill:#000000" transform="matrix(1.3333 0 0 1.1111 -63.348 29.619)" d="m139.97 49.224c0-0.944-0.76-1.709-1.7-1.709-0.95 0-1.71 0.765-1.71 1.709 0 0.943 0.76 1.708 1.71 1.708 0.94 0 1.7-0.765 1.7-1.708z"/>
      <path id="path1623" style="fill-rule:evenodd;fill:#000000" transform="matrix(1.3333 0 0 1.1111 -58.417 30.377)" d="m139.97 49.224c0-0.944-0.76-1.709-1.7-1.709-0.95 0-1.71 0.765-1.71 1.709 0 0.943 0.76 1.708 1.71 1.708 0.94 0 1.7-0.765 1.7-1.708z"/>
      <path id="path1624" style="fill-rule:evenodd;fill:#000000" transform="matrix(1.3333 0 0 1.1111 -66.003 8.3763)" d="m139.97 49.224c0-0.944-0.76-1.709-1.7-1.709-0.95 0-1.71 0.765-1.71 1.709 0 0.943 0.76 1.708 1.71 1.708 0.94 0 1.7-0.765 1.7-1.708z"/>
      <path id="path1625" style="fill-rule:evenodd;fill:#000000;fill-opacity:.75" transform="matrix(1.3333 0 0 1.1111 -60.693 12.17)" d="m139.97 49.224c0-0.944-0.76-1.709-1.7-1.709-0.95 0-1.71 0.765-1.71 1.709 0 0.943 0.76 1.708 1.71 1.708 0.94 0 1.7-0.765 1.7-1.708z"/>
      <path id="path1628" style="stroke:#000000;stroke-width:1pt;fill:none" d="m135.42 76.636c2.57-7.913 3.84-16.95 3.79-25.705"/>
      <path id="path1626" style="fill-rule:evenodd;fill:#000000" transform="matrix(1.3333 0 0 1.1111 -47.796 4.583)" d="m139.97 49.224c0-0.944-0.76-1.709-1.7-1.709-0.95 0-1.71 0.765-1.71 1.709 0 0.943 0.76 1.708 1.71 1.708 0.94 0 1.7-0.765 1.7-1.708z"/>
      <path id="path1627" style="fill-rule:evenodd;fill:#000000" transform="matrix(1.3333 0 0 1.1111 -39.071 17.48)" d="m139.97 49.224c0-0.944-0.76-1.709-1.7-1.709-0.95 0-1.71 0.765-1.71 1.709 0 0.943 0.76 1.708 1.71 1.708 0.94 0 1.7-0.765 1.7-1.708z"/>
      <path id="path1630" style="stroke:#000000;stroke-width:1pt;fill:none" d="m129.08 77.321c2.22-7.475 3.13-15.511 3.29-23.267"/>
      <path id="path1632" style="stroke:#000000;stroke-width:1pt;fill:none" d="m127.16 78.996c-1.91-8.849-1.39-17.605-3.5-26.548"/>
      <path id="path1633" style="stroke:#000000;stroke-width:1pt;fill:none" d="m125.83 77.011c-3.02-6.418-4.17-13.116-7.1-19.252"/>
    </g>
    <g id="g1858" transform="matrix(.90164 0 0 .90164 -104.85 9.8748)">
      <g id="g1674">
        <path id="path1011" style="fill-rule:evenodd;stroke:#917b01;stroke-width:.5;fill:#fed501" d="m265.31 205.58s5.31-51.24 4.17-51.62-2.84 0.76-3.98 0.19-0.04-3.52-0.04-3.52c1.58-0.49 3.15-0.52 4.73-1.47 1.58-0.96 3.18-2.84 4.76-4.25l-4.81-27.57c5.81 6.52 9.26 22.16 10.25 23.32 0.91-1.6 4.13-16.09 10.39-23.84l-4.68 27.61c1.54 1.7 2.54 3.54 3.89 4.39s3.34 1.71 4.52 1.72c1.6-0.8 1.16 2.09 0.02 3.04s-3.98 0.38-3.98 0.38l4.74 51.62s-8.16-2.28-14.42-2.66-15.56 2.66-15.56 2.66z"/>
        <path id="path1662" style="stroke:#917b01;stroke-width:.5;fill:none" d="m270.05 170.85c0.87-2.74 1.49-21.45 2.11-22.92"/>
        <path id="path1663" style="stroke:#917b01;stroke-width:.5;fill:none" d="m272.53 169.67c0.25-2.74 0.74-21.55 0.74-21.55"/>
        <path id="path1650" style="stroke:#917b01;stroke-width:.5;fill:none" d="m267.98 204.41c1.01-4.04 1.73-31.6 2.45-33.77"/>
        <path id="path1664" style="stroke:#917b01;stroke-width:.5;fill:none" d="m274.52 148.32l-0.13 21.35"/>
        <path id="path1651" style="stroke:#917b01;stroke-width:.5;fill:none" d="m270.86 202.68c0.29-4.04 0.87-31.75 0.87-31.75"/>
        <path id="path1665" style="stroke:#917b01;stroke-width:.5;fill:none" d="m276.13 169.48c0.25-0.49 0.12-21.06 0.12-21.06"/>
        <path id="path1652" style="stroke:#917b01;stroke-width:.5;fill:none" d="m273.17 171.22l-0.14 31.46"/>
        <path id="path1666" style="stroke:#917b01;stroke-width:.5;fill:none" d="m277.74 169.38c0-1.47 0.25-19.69 0.13-20.96"/>
        <path id="path1653" style="stroke:#917b01;stroke-width:.5;fill:none" d="m275.05 202.39c0.29-0.72 0.14-31.02 0.14-31.02"/>
        <path id="path1654" style="stroke:#917b01;stroke-width:.5;fill:none" d="m276.93 202.25c0-2.17 0.28-29.01 0.14-30.88"/>
        <path id="path1655" style="stroke:#917b01;stroke-width:.5;fill:none" d="m278.95 171.94l0.14 30.02"/>
        <path id="path1656" style="stroke:#917b01;stroke-width:.5;fill:none" d="m281.26 171.51l-0.15 30.16"/>
        <path id="path1657" style="stroke:#917b01;stroke-width:.5;fill:none" d="m283.13 171.37l-0.14 30.3"/>
        <path id="path1658" style="stroke:#917b01;stroke-width:.5;fill:none" d="m285.15 172.95l-0.14 29.3"/>
        <path id="path1659" style="stroke:#917b01;stroke-width:.5;fill:none" d="m286.74 172.66l0.72 30.02"/>
        <path id="path1667" style="stroke:#917b01;stroke-width:.5;fill:none" d="m279.48 148.81l0.12 20.37"/>
        <path id="path1660" style="stroke:#917b01;stroke-width:.5;fill:none" d="m288.18 172.66l1.73 30.02"/>
        <path id="path1668" style="stroke:#917b01;stroke-width:.5;fill:none" d="m281.46 148.51l-0.12 20.48"/>
        <path id="path1661" style="stroke:#917b01;stroke-width:.5;fill:none" d="m290.2 172.66l2.17 31.03"/>
        <path id="path1669" style="stroke:#917b01;stroke-width:.5;fill:none" d="m283.08 148.42l-0.13 20.57"/>
        <path id="path1670" style="stroke:#917b01;stroke-width:.5;fill:none" d="m284.81 149.49l-0.12 19.89"/>
        <path id="path1671" style="stroke:#917b01;stroke-width:.5;fill:none" d="m286.18 149.3l0.62 20.37"/>
        <path id="path1672" style="stroke:#917b01;stroke-width:.5;fill:none" d="m287.42 149.3l1.49 20.37"/>
        <path id="path1673" style="stroke:#917b01;stroke-width:.5;fill:none" d="m289.16 149.3l1.86 21.06"/>
        <path id="path1008" style="fill-rule:evenodd;stroke:#917b01;stroke-width:.5;fill:#fed501" d="m278.82 139.77s-15.03-0.42-17.31-1.18-3.6-0.76-3.6-0.76 1.89-3.79 3.6-4.17 6.26 1.89 6.26 1.89l11.76 4.05s14.05-6.13 18.23-5.75c4.17 0.38 4.36 3.41 4.36 3.41s-2.27 0.95-3.22 1.52-20.08 0.99-20.08 0.99z"/>
        <path id="path1010" style="fill-rule:evenodd;stroke:#917b01;stroke-width:.5;fill:#fed501" d="m261.75 146.32s-3.32-3.75-0.89-6.37c2.42-2.62 36.97-1.78 38.68-0.26 1.7 1.52 0.66 5.24 0.66 5.24s-1.9-0.76-4.18-0.95c-2.27-0.19-6.45 3.8-6.45 3.8s-14.42 1.71-15.18 1.33-2.47-5.13-5.5-5.13c-3.04 0-7.14 2.34-7.14 2.34z"/>
        <path id="path1009" style="fill-rule:evenodd;stroke:#917b01;stroke-width:.5;fill:#fed501" d="m260.95 150.59c1.04 1.04 7.91-0.84 9.21-0.73l19.66 1.72c4.53 0.4 7.45-2.06 8.97-2.25 1.51-0.19 0.22-5.69-3.64-5.76-3.87-0.07-25.38-0.01-29.64 0.13-4.26 0.15-5.6 5.85-4.56 6.89z"/>
        <path id="path1639" style="stroke:#917b01;stroke-width:.5;fill:none" d="m260.63 144.23s1.21-2.48 2.77-2.63c1.56-0.14 33.05-0.49 34.18-0.07 1.14 0.43 2.63 2.91 2.63 2.91"/>
        <path id="path1006" style="fill-rule:evenodd;stroke:#917b01;stroke-width:.5;fill:#fed501" d="m266.83 127.2s-0.38-0.57-1.33-2.46c-0.95-1.9-1.33-5.32-1.33-5.32s4.17-0.95 5.88 0.19 10.25 10.82 10.25 10.82 7.21-8.73 9.3-10.44 6.07-0.19 6.07-0.19-0.95 5.89-2.66 7.59c-1.7 1.71-13.85 14.24-13.85 14.24l-12.33-14.43z"/>
        <path id="path1004" style="fill-rule:evenodd;stroke:#917b01;stroke-width:.5;fill:#fed501" d="m278.21 128.15s0-11.57-0.19-13.85 2.28-3.42 2.28-3.42 1.9 1.71 1.71 3.8 0 14.99 0 14.99l-3.8-1.52z"/>
        <path id="path1638" style="stroke:#917b01;stroke-width:.5;fill:none" d="m258.15 137.42c0.35-0.07 3.55-1.84 5.46-1.56 1.92 0.28 32.55-0.07 33.9 0.07s4.4 1.28 4.4 1.28"/>
        <path id="path1640" style="stroke:#917b01;stroke-width:.5;fill:none" d="m260.99 150.54c1.27-1.56 2.12-3.12 4.18-3.69s29.57-0.92 30.5-0.64c0.92 0.29 3.33 2.63 3.33 2.63"/>
        <path id="path1007" style="fill-rule:evenodd;stroke:#917b01;stroke-width:.5;fill:#fed501" d="m264.9 134.8c-2.09-1.51-6.8-4.75-6.8-4.75s3.22-1.52 5.88-0.95 15.94 10.09 15.94 10.09 12.52-9.33 15.37-10.09 6.07 1.52 6.07 1.52-5.17 2.98-6.88 5.06c-1.71 2.09-14.61 13.02-14.61 13.02s-12.88-12.38-14.97-13.9z"/>
        <path id="path1005" style="fill-rule:evenodd;stroke:#917b01;stroke-width:.5;fill:#fed501" d="m276.69 137.26s-3.6-17.27-3.79-19.73c-0.19-2.47 0.57-5.51 0.57-5.51s3.22 1.71 3.98 3.8c0.76 2.08 3.23 14.99 3.23 14.99s1.14-13.47 2.09-15.18 4.17-3.42 4.17-3.42 0.95 3.61 0.38 5.69c-0.57 2.09-5.31 19.93-5.31 19.93l-5.32-0.57z"/>
        <path id="path1637" style="stroke:#917b01;stroke-width:.5;fill:none" d="m260.14 129.48s2.83 1.13 4.32 2.48 15.11 13.26 15.11 13.26 13.4-12.77 14.82-13.33c1.42-0.57 6.6-1.28 6.6-1.28"/>
        <path id="path1001" style="fill-rule:evenodd;stroke:#917b01;stroke-width:.5;fill:#fed501" d="m263.79 127.77l15.75 15.94s12.9-12.52 14.8-14.8 3.99-4.74 3.99-4.74-6.45 0.76-8.54 2.65c-2.09 1.9-9.68 10.82-9.68 10.82s-9.3-9.49-11.2-11.76c-1.9-2.28-7.59-1.52-7.59-1.52s1.52 2.08 2.47 3.41z"/>
        <path id="path1002" style="stroke:#917b01;stroke-width:.5;fill:none" d="m262.09 124.19l17.64 16.49 16.49-16.04"/>
        <path id="path999" style="fill-rule:evenodd;stroke:#917b01;stroke-width:.5;fill:#fed501" d="m280.68 133.47s-10.25-11.77-11.58-14.24c-1.33-2.46-0.95-4.17-0.95-4.17s2.66-0.57 4.18 1.14c1.52 1.7 8.16 11.38 8.16 11.38s5.69-9.49 7.02-10.81c1.33-1.33 4.37-1.71 4.37-1.71s-0.19 2.47-1.71 5.12c-1.52 2.66-9.49 13.29-9.49 13.29z"/>
        <path id="path1000" style="stroke:#917b01;stroke-width:.5;fill:none" d="m268.53 115.44l11.77 14.61 11.2-14.8"/>
        <path id="path1641" style="stroke:#917b01;stroke-width:.5;fill:none" d="m280.21 111.11l0.21 18.58"/>
        <path id="path1642" style="stroke:#917b01;stroke-width:.5;fill:none" d="m273.68 112.38l6.88 18.8 6.17-18.37"/>
        <path id="path1643" style="stroke:#917b01;stroke-width:.5;fill:none" d="m264.89 119.76l15.03 17.23 15.11-17.09"/>
        <path id="path1012" style="fill-rule:evenodd;stroke:#917b01;stroke-width:.5;fill:#fed501" d="m268.34 172.56h23.73l-0.76-9.68h-22.02l-0.95 9.68z"/>
        <path id="path1645" style="stroke:#917b01;stroke-width:.5;fill:none" d="m279.52 172.81l12.13-5.34"/>
        <path id="path1644" style="stroke:#917b01;stroke-width:.5;fill:none" d="m268.84 168.19l9.96-5.19"/>
      </g>
      <use id="use1768" xlink:href="#g1674" transform="translate(46.178 2.8422e-14)" height="1052.3622" width="744.09448" y="0.0000000" x="0.0000000"/>
      <use id="use1769" xlink:href="#use1768" transform="translate(45.601 -.28862)" height="1052.3622" width="744.09448" y="0.0000000" x="0.0000000"/>
      <rect id="rect1856" style="fill-rule:evenodd;fill:#fdd401" height="70.866" width="166.54" y="31.89" x="240.94"/>
      <g id="g1813">
        <path id="path1798" style="fill-rule:evenodd;fill:#0139ab" transform="matrix(.19045 .62740 -.95688 .29047 380.52 -106.72)" d="m290.01 63.091a1.8807 2.6002 0 1 0 -3.76 0 1.8807 2.6002 0 1 0 3.76 0z"/>
        <path id="path1799" style="fill-rule:evenodd;fill:#0139ab" transform="matrix(.63475 .16429 -.25057 .96810 214.36 -12.824)" d="m290.01 63.091a1.8807 2.6002 0 1 0 -3.76 0 1.8807 2.6002 0 1 0 3.76 0z"/>
        <path id="path1800" style="fill-rule:evenodd;fill:#0139ab" transform="matrix(-.28628 .58987 -.89965 -.43662 530.53 -48.319)" d="m290.01 63.091a1.8807 2.6002 0 1 0 -3.76 0 1.8807 2.6002 0 1 0 3.76 0z"/>
        <path id="path1797" style="fill-rule:evenodd;fill:#0139ab" transform="matrix(.043516 .65422 -.99780 .066367 425.12 -106.3)" d="m290.01 63.091a1.8807 2.6002 0 1 0 -3.76 0 1.8807 2.6002 0 1 0 3.76 0z"/>
        <path id="path1795" style="fill-rule:evenodd;fill:#0139ab" transform="matrix(-.12951 .64275 -.98030 -.19753 421.05 -90.832)" d="m290.01 63.091a1.8807 2.6002 0 1 0 -3.76 0 1.8807 2.6002 0 1 0 3.76 0z"/>
        <path id="path1794" style="fill-rule:evenodd;fill:#0139ab" transform="matrix(.15444 .63722 -.97186 .23554 335.28 -111.64)" d="m290.01 63.091a1.8807 2.6002 0 1 0 -3.76 0 1.8807 2.6002 0 1 0 3.76 0z"/>
        <path id="path1796" style="fill-rule:evenodd;fill:#0139ab" transform="matrix(.65547 .0045702 -.048097 .99998 143.65 32.148)" d="m290.01 63.091a1.8807 2.6002 0 1 0 -3.76 0 1.8807 2.6002 0 1 0 3.76 0z"/>
        <path id="path1793" style="fill-rule:evenodd;fill:#0139ab" transform="matrix(.47723 .44962 -.68574 .72785 226.79 -82.765)" d="m290.01 63.091a1.8807 2.6002 0 1 0 -3.76 0 1.8807 2.6002 0 1 0 3.76 0z"/>
        <path id="path1785" style="fill-rule:evenodd;fill:#0139ab" transform="matrix(.62251 .20589 -.31401 .94942 106.4 -77.955)" d="m290.01 63.091a1.8807 2.6002 0 1 0 -3.76 0 1.8807 2.6002 0 1 0 3.76 0z"/>
        <path id="path1788" style="fill-rule:evenodd;fill:#0139ab" transform="matrix(.59785 -.26922 .41060 .91182 60.838 58.423)" d="m290.01 63.091a1.8807 2.6002 0 1 0 -3.76 0 1.8807 2.6002 0 1 0 3.76 0z"/>
        <path id="path1786" style="fill-rule:evenodd;fill:#0139ab" transform="matrix(-.0065127 -.65564 .99995 -.0099329 189.02 241.71)" d="m290.01 63.091a1.8807 2.6002 0 1 0 -3.76 0 1.8807 2.6002 0 1 0 3.76 0z"/>
        <path id="path1787" style="fill-rule:evenodd;fill:#0139ab" transform="matrix(.23333 -.61275 .93454 .35587 125.11 194.62)" d="m290.01 63.091a1.8807 2.6002 0 1 0 -3.76 0 1.8807 2.6002 0 1 0 3.76 0z"/>
        <path id="path1789" style="fill-rule:evenodd;fill:#0139ab" transform="matrix(-.019339 -.65538 .99956 -.029496 195.84 272.92)" d="m290.01 63.091a1.8807 2.6002 0 1 0 -3.76 0 1.8807 2.6002 0 1 0 3.76 0z"/>
        <path id="path1790" style="fill-rule:evenodd;fill:#0139ab" transform="matrix(-.37045 -.54099 .82510 -.56499 305.98 281.23)" d="m290.01 63.091a1.8807 2.6002 0 1 0 -3.76 0 1.8807 2.6002 0 1 0 3.76 0z"/>
        <path id="path1791" style="fill-rule:evenodd;fill:#0139ab" transform="matrix(.61634 .22368 -.34114 .94001 100.05 -28.805)" d="m290.01 63.091a1.8807 2.6002 0 1 0 -3.76 0 1.8807 2.6002 0 1 0 3.76 0z"/>
        <path id="path1792" style="fill-rule:evenodd;fill:#0139ab" transform="matrix(.65567 0 0 1 74.254 34.105)" d="m290.01 63.091a1.8807 2.6002 0 1 0 -3.76 0 1.8807 2.6002 0 1 0 3.76 0z"/>
        <path id="path1770" style="fill-rule:evenodd;fill:#d4170f" d="m345.47 37.304s-13.56-0.866-15.58 0-2.31 3.752-4.33 3.752-8.95-0.577-10.68-0.289c-1.73 0.289-5.48 2.309-5.48 5.195s0.72 7.808 11.25 8.082c11.11 0.288 30.02-6.927 30.02-6.927l0.29 2.886s4.32-4.907 6.63-5.195c2.31-0.289 4.62 1.154 3.76 2.309-0.87 1.154-1.74 2.02-1.74 2.02s5.2-1.443 5.2-3.175c0-1.731-1.16-2.02-1.16-2.02s3.18 0.289 4.33 0c1.16-0.289 2.31 1.443 1.74 2.598-0.58 1.154-1.74 2.886-1.74 2.886s5.2-1.443 4.62-2.886c-0.58-1.444-0.58-2.309-0.58-2.309s4.62-0.866 5.49 0.577c0.86 1.443-2.02 8.658-2.02 8.658s1.73-4.618 5.48-5.483c3.75-0.866 5.77-1.732 8.08-0.289s10.1 4.618 9.82 8.658c0 2.021-3.47 3.752-8.95 4.041-5.49 0.289-23.38-4.041-36.08-4.041s-18.47 2.309-26.55 2.887c-8.08 0.577-51.09 0-51.09 0s-10.67-3.752-12.69-7.504 2.59-7.793 2.59-7.793l-1.73-1.443-2.02 1.443s1.73-4.329-1.73-4.329-3.18 4.329-3.18 4.329-2.3-4.329-3.75-4.618c-1.44-0.288-2.31 4.618-2.31 4.618s4.04 1.443 3.76 3.463c-0.29 2.021-5.2 2.021-5.2 2.021s-0.29 3.752 0.87 4.618c1.15 0.865 3.46-2.309 4.61-2.021 1.16 0.289 0.87 9.525 0.87 9.525l1.73-2.021 0.29 8.081 1.73-4.04 0.29 8.947 6.35-4.329-2.89 9.524 4.04-4.041v5.773l21.94-4.618-2.31 4.04s-5.77 4.907-11.83 5.484-10.68 1.155-13.57 0.866c-2.88-0.289-5.77-5.484-6.92-5.195-1.16 0.288 0.86 3.175-0.29 4.618-1.16 1.443-5.78 2.597-4.33 3.463 1.44 0.866 6.35 0.577 6.35 2.02s-3.18 3.464-0.87 4.618c2.31 1.155 5.2-3.463 5.77-2.309 0.58 1.155-0.57 3.752 1.74 3.752 2.3 0 2.3-3.174 2.3-3.174l11.26 3.463-2.6-4.329s3.75 2.309 5.49 2.886c1.73 0.577 4.33 0.577 4.33 0.577l-3.47-4.618 7.51 4.041-1.74-4.618 6.35 3.752-1.15-4.041s2.6 2.309 4.62 2.309 3.17-1.731 3.17-1.731l-2.02-2.598s2.31 1.443 5.2 1.732c2.88 0.288 7.5-1.732 7.5-1.732l-5.48-1.732 5.19-1.731-2.6-1.732 3.76-6.35s1.44 0.289 6.63 0c5.2-0.288 21.65-11.255 28.58-10.967 6.92 0.289 19.62 13.565 25.4 13.276 5.77-0.288 16.45-1.154 16.45-1.154s-1.73 3.463-2.6 5.195-0.87 4.041-0.87 4.041l-5.48-0.866s0.29-1.155-2.02-1.155-1.15 4.33-1.15 4.33-1.74 2.886-0.29 3.174c1.44 0.289 3.46-2.02 4.61-0.866 1.16 1.155-0.57 3.464 1.16 3.752 1.73 0.289 0.86-4.329 3.17-4.04 2.31 0.288 3.47 3.175 4.91 2.886s2.02-2.886 2.02-2.886-2.02-0.866-2.02-2.309 2.31-5.195 3.75-5.195c1.45 0 1.16 2.886 1.16 2.886l1.44-3.175 1.73 0.577-2.31-4.329 4.91 0.577-2.89-3.174 3.18-0.289s-2.31-1.154-2.31-2.886 0.86-4.329 0.86-4.329-6.35 2.309-12.98 0.577c-6.64-1.732-15.01-9.813-15.01-9.813s15.3 2.598 19.62 2.309c4.33-0.289 9.82-0.577 10.68-4.041 0.87-3.463-5.19-12.987-5.19-12.987v3.752s-5.77-6.061-25.11-7.504-33.77 11.544-50.51 10.101c-15.01-1.731-8.37-10.679-0.86-9.813 4.61 0.578 11.83 3.175 15.29 3.175 3.47 0 9.24-3.752 10.39-8.081z"/>
        <path id="path1771" style="fill-rule:evenodd;fill:#d4170f" d="m357.31 65.877c-2.03 0.288-24.25 0.866-25.11 9.235-0.87 8.37 8.94 7.216 8.94 7.216l-0.29 2.886s-6.35 1.154-10.1 1.154-3.46-4.329-5.48-4.906-2.6 3.175-2.6 3.175l-3.17 0.288 0.29 3.175 2.02 1.155 0.28 2.308 1.74 2.598 2.59-1.443 0.87 3.752s0.87-0.866 2.02-1.155c1.15-0.288 2.02 1.444 2.02 1.444s-0.29-3.752 3.17-4.041c3.47-0.289 5.78 3.752 5.78 3.752v-4.041l3.17 3.175 0.58-4.329 3.75 3.752 0.87-3.752 2.02 1.732v-3.752l6.35 3.174 0.86-3.752 5.2 1.443-1.73-1.731h5.48s-2.02-4.618-3.75-6.35-10.97-4.618-11.26-7.215c-0.29-2.598 5.49-8.947 5.49-8.947z"/>
        <path id="path1772" style="fill-rule:evenodd;stroke:#fed501;stroke-width:.875;fill:#d4170f" d="m281.69 52.023c-1.16 0-12.41 10.679-13.86 12.699-1.44 2.021-0.57 5.195-0.57 5.195l4.9-4.906s-1.44 2.886-1.44 5.195 0.87 4.906 0.87 4.906l2.59-6.349v11.256l3.76-5.484-2.31 10.968 4.9-8.082s-2.59 3.752-1.44 6.35c1.15 2.597 2.02 3.175 2.02 3.175l2.31-9.525s-0.29 5.773 0.87 7.793c1.15 2.02 3.17 3.175 3.17 3.175s0.29-3.752 0.58-6.638c0.29-2.887-0.58-5.196-0.58-5.196s2.6 3.464 2.31 5.484-1.16 4.618-1.16 4.618 3.18-3.175 3.76-5.772c0.57-2.598-0.58-4.907-0.58-4.907s0.58 5.484 1.73 6.927c1.16 1.443 3.18 3.175 3.18 3.175v-9.813s0.28 5.484 1.73 6.927c1.44 1.443 4.33 1.443 4.33 1.443s-2.31-4.041-2.6-7.504c-0.29-3.464 0.58-4.907 0.58-4.907s0.86 4.618 1.15 6.35c0.29 1.731 0.87 3.752 0.87 3.752s0.57-4.907 0.86-6.927-0.29-3.463-0.29-3.463 2.6 4.04 2.02 5.195c-0.57 1.154 0 2.309 0 2.309s1.45-5.195 1.45-7.504-1.45-4.33-1.45-4.33l3.76 5.196s1.15-4.907-0.58-9.525-10.68-9.813-10.68-9.813l-16.16-1.443z"/>
        <path id="path1773" style="fill-rule:evenodd;stroke:#fed501;stroke-width:.875;fill:#d4170f" d="m277.65 45.674s-3.18 2.597-3.18 5.772 2.02 4.041 2.02 4.041l-1.15 5.772 2.02-1.155 0.29 5.773 2.02-2.886 0.86 5.483 2.02-2.02v5.484l2.02-2.598 1.16 2.886 1.73-3.174 1.73 2.886 1.45-2.886 3.46 0.865-0.58-1.731 2.31 0.288-0.87-4.618 2.31 3.175 0.29-3.752 2.6 1.732s1.73-7.504 1.73-12.122-1.44-7.215-1.44-7.215l2.88-4.33-4.9 1.444-1.45-4.041-2.88 2.309-0.87-1.732-1.15 1.443-1.44-3.463-2.03 3.463-3.17-2.309-0.58 3.175-2.59-1.154-0.29 2.886s-4.33-3.175-5.78-3.175c-1.44 0 1.45 5.484 1.45 5.484z"/>
        <path id="path1774" style="stroke:#fed501;stroke-width:.75;fill:none" d="m279.67 54.332c2.02-0.577 0.86 5.195 3.17 5.772 2.31 0.578 5.49-2.02 5.49-2.02s0.86 2.886 3.46 2.598c2.6-0.289 4.04-6.061 4.04-6.061"/>
        <path id="path1777" style="fill-rule:evenodd;fill:#fed501" d="m284.29 64.722s2.93-3.72 3.05-6.183c0.11-2.398-1.55-2.652-1.53-3.668 0.01-1.015 0.67-1.374 2.08-1.424 1.48-0.052 2.5 0.605 2.57 1.616 0.07 0.944-2.13 1.001-2.13 3.598 0 2.598 3.17 6.061 3.17 6.061s-1.82-0.288-2.39 0c-0.58 0.289-1.07 2.309-1.07 2.309s0.13-1.799-1.31-2.088c-1.44-0.288-2.44-0.221-2.44-0.221z"/>
        <path id="path1778" style="fill-rule:evenodd;fill:#0139ab" transform="matrix(.65567 0 0 1 98.935 -.37004)" d="m290.01 63.091a1.8807 2.6002 0 1 0 -3.76 0 1.8807 2.6002 0 1 0 3.76 0z"/>
        <path id="path1775" style="fill-rule:evenodd;fill:#fed501" d="m287.42 46.87c-1.43 1.21-2.57 0.828-4.58-0.042-0.11 0.983 0.87 4.329 2.6 4.041 1.73-0.289 1.98-3.999 1.98-3.999zm-1.29 2.045c0 0.532-0.43 0.964-0.96 0.964s-0.97-0.432-0.97-0.964 0.44-0.964 0.97-0.964 0.96 0.432 0.96 0.964z"/>
        <path id="path1784" style="fill-rule:evenodd;fill:#fed501" d="m290.62 47.096c1.44 1.21 2.5 0.147 4.51-0.722 0.11 0.983-0.83 4.821-2.56 4.532s-1.95-3.356-1.95-3.81zm1.26 1.856c0 0.533 0.43 0.964 0.96 0.964s0.97-0.431 0.97-0.964c0-0.532-0.44-0.964-0.97-0.964s-0.96 0.432-0.96 0.964z"/>
        <path id="path1801" style="stroke:#fed501;stroke-width:.75;fill:none" d="m306.16 80.514c0.22-0.428 2.46-5.561 2.46-5.561s0.11 3.101 0.54 2.566c0.42-0.534 1.49-3.849 1.49-3.849s1.5 2.138 1.93 1.39c0.43-0.749 1.07-1.711 1.07-1.711s0.96 2.78 1.17 2.032c0.22-0.749 1.07-2.46 1.07-2.46s1.39 2.78 1.39 2.139c0-0.642 0.43-2.674 0.43-2.674l1.07 1.497 1.82-2.459s-0.22 2.887 0.21 2.139c0.43-0.749 1.18-2.353 1.18-2.353s1.18 1.818 1.71 1.069c0.53-0.748 0.86-1.39 0.86-1.39h1.39l0.96-1.604 1.17 1.283 0.86-1.176"/>
        <path id="path1802" style="stroke:#fed501;stroke-width:.75;fill:none" d="m347.44 78.803c4.49-0.107 4.71-1.711 4.71-1.711"/>
        <path id="path1803" style="stroke:#fed501;stroke-width:.75;fill:none" d="m351.18 80.407s2.03-0.321 2.78-1.391"/>
        <path id="path1804" style="stroke:#fed501;stroke-width:.75;fill:none" d="m353.96 81.583c2.78-0.107 2.68-1.497 2.68-1.497"/>
        <path id="path1805" style="stroke:#fed501;stroke-width:.75;fill:none" d="m357.06 82.438c2.68 0.642 2.25-1.497 2.25-1.497"/>
        <path id="path1806" style="stroke:#fed501;stroke-width:.75;fill:none" d="m358.99 84.684c1.39-0.107 1.6-1.818 1.6-1.818"/>
        <path id="path1807" style="stroke:#fed501;stroke-width:.75;fill:none" d="m372.57 66.612c3.53-0.642 2.78-0.107 2.78-0.107"/>
        <path id="path1808" style="stroke:#fed501;stroke-width:.75;fill:none" d="m374.5 68.43c1.71 0.107 2.78-1.284 2.78-1.284"/>
        <path id="path1809" style="stroke:#fed501;stroke-width:.75;fill:none" d="m376.53 69.713c1.82-0.214 2.03-1.283 2.03-1.283"/>
        <path id="path1810" style="stroke:#fed501;stroke-width:.75;fill:none" d="m378.99 70.782c1.71-0.214 1.92-1.176 1.92-1.176"/>
        <path id="path1811" style="stroke:#fed501;stroke-width:.75;fill:none" d="m381.02 71.745c1.82-0.749 1.5-1.284 1.5-1.284"/>
        <path id="path1812" style="fill-rule:evenodd;fill:#fed501" d="m344.16 38.051c-6.35-0.807-7.34 2.971-7.34 2.971s3.78-1.504 4.11-1.137-0.74 2.495-0.29 2.275c0.44-0.221 3-2.018 3.52-4.109z"/>
      </g>
      <path id="path1851" style="fill-rule:evenodd;fill:#feffff" d="m237.4 28.346h173.62v177.16c0 17.72-21.26 17.72-85.04 38.98-63.78-21.26-88.24-22.35-88.58-38.98v-177.16zm7.09 7.087h159.45v170.08c0 7.09-14.18 10.63-77.96 31.89-63.78-21.26-81.49-24.8-81.49-31.89v-170.08z"/>
    </g>
  </g>
  <metadata>
    <rdf:RDF>
      <cc:Work>
        <dc:format>image/svg+xml</dc:format>
        <dc:type rdf:resource="http://purl.org/dc/dcmitype/StillImage"/>
        <cc:license rdf:resource="http://creativecommons.org/licenses/publicdomain/"/>
        <dc:publisher>
          <cc:Agent rdf:about="http://openclipart.org/">
            <dc:title>Openclipart</dc:title>
          </cc:Agent>
        </dc:publisher>
        <dc:title>canada saskatchewan</dc:title>
        <dc:date>2011-02-16T23:25:31</dc:date>
        <dc:description>Originally uploaded by Caleb Moore for OCAL. 0.18</dc:description>
        <dc:source>https://openclipart.org/detail/120025/canada-saskatchewan-by-anonymous</dc:source>
        <dc:creator>
          <cc:Agent>
            <dc:title>Anonymous</dc:title>
          </cc:Agent>
        </dc:creator>
        <dc:subject>
          <rdf:Bag>
            <rdf:li>canada</rdf:li>
            <rdf:li>flag</rdf:li>
            <rdf:li>sign</rdf:li>
            <rdf:li>symbol</rdf:li>
          </rdf:Bag>
        </dc:subject>
      </cc:Work>
      <cc:License rdf:about="http://creativecommons.org/licenses/publicdomain/">
        <cc:permits rdf:resource="http://creativecommons.org/ns#Reproduction"/>
        <cc:permits rdf:resource="http://creativecommons.org/ns#Distribution"/>
        <cc:permits rdf:resource="http://creativecommons.org/ns#DerivativeWorks"/>
      </cc:License>
    </rdf:RDF>
  </metadata>
</svg>
